<svg width="42" height="42" viewBox="0 0 42 42" fill="none" xmlns="http://www.w3.org/2000/svg">
<path d="M9.31818 29.3806C7.69593 27.6575 6.82495 25.725 6.82495 22.5923C6.82495 17.0798 10.6947 12.1391 16.3222 9.69623L17.7287 11.8666C12.4761 14.7079 11.4492 18.395 11.0397 20.7197C11.8854 20.2818 12.9927 20.129 14.0778 20.2298C16.9191 20.4929 19.1588 22.8254 19.1588 25.725C19.1588 27.187 18.578 28.5891 17.5442 29.6229C16.5104 30.6567 15.1083 31.2375 13.6463 31.2375C11.9563 31.2375 10.3404 30.4658 9.31818 29.3806V29.3806ZM25.0682 29.3806C23.4459 27.6575 22.575 25.725 22.575 22.5923C22.575 17.0798 26.4447 12.1391 32.0722 9.69623L33.4787 11.8666C28.2261 14.7079 27.1992 18.395 26.7897 20.7197C27.6354 20.2818 28.7427 20.129 29.8278 20.2298C32.6691 20.4929 34.9088 22.8254 34.9088 25.725C34.9088 27.187 34.328 28.5891 33.2942 29.6229C32.2604 30.6567 30.8583 31.2375 29.3963 31.2375C27.7063 31.2375 26.0904 30.4658 25.0682 29.3806V29.3806Z" fill="white"/>
</svg>
