<svg width="233" height="229" viewBox="0 0 233 229" fill="none" xmlns="http://www.w3.org/2000/svg">
<g opacity="0.1">
<path d="M110.835 27.0225C102.112 31.7444 98.1359 44.7192 86.3652 51.0909C74.5957 57.4618 62.8372 53.0045 54.1142 57.7264C36.8728 67.0594 30.2826 104.268 42.5182 124.641C56.1574 147.356 113.287 207.167 130.203 198.01C138.554 193.49 130.361 175.256 125.885 153.348C123.839 143.337 127.263 140.149 134.012 149.838C146.645 167.976 157.421 183.277 165.238 179.046C182.152 169.889 172.4 78.5268 166.036 57.7799C158.937 34.6395 127.634 17.9292 110.835 27.0225Z" fill="#F0FAFE"/>
<path d="M110.836 27.0236L110.516 26.3069C105.954 28.7878 102.737 33.3149 99.1891 37.9236C95.642 42.5448 91.7806 47.2707 86.0448 50.3739C80.3114 53.4791 74.5548 53.9596 69.0642 54.2306C63.5831 54.5096 58.3634 54.5489 53.7944 57.0107C45.4123 61.5677 39.6131 72.2932 37.019 84.4739C34.4337 96.6646 35.0579 110.37 39.8164 121.046C40.4423 122.448 41.1395 123.797 41.9129 125.083C48.8166 136.568 66.5133 157.189 84.6666 173.891C93.7442 182.237 102.924 189.591 110.943 194.309C114.954 196.668 118.675 198.369 121.978 199.199C125.275 200.021 128.186 199.987 130.523 198.728C131.675 198.107 132.575 197.218 133.21 196.124C134.323 194.2 134.637 191.729 134.497 188.853C134.281 184.534 133.028 179.212 131.473 173.157C129.917 167.104 128.053 160.326 126.592 153.173C126.086 150.705 125.931 148.681 126.067 147.253C126.133 146.54 126.271 145.981 126.444 145.596C126.62 145.208 126.811 145.008 127.008 144.9C127.204 144.797 127.447 144.754 127.82 144.84C128.376 144.969 129.181 145.438 130.136 146.339C131.093 147.238 132.205 148.556 133.437 150.325C139.757 159.396 145.615 167.772 150.929 173.407C153.589 176.222 156.111 178.361 158.544 179.549C160.965 180.738 163.378 180.95 165.558 179.764C167.904 178.486 169.676 175.88 171.055 172.376C173.461 166.229 174.7 157.177 175.173 146.711C175.875 131.017 174.812 112.169 173.053 95.5212C171.29 78.8653 168.844 64.4539 166.722 57.5255C166.272 56.06 165.728 54.623 165.101 53.2173C160.33 42.5462 150.748 33.6926 140.352 28.5336C129.957 23.3904 118.709 21.8929 110.516 26.3069L110.836 27.0236L111.156 27.7404C118.722 23.6232 129.617 24.9519 139.757 29.9895C149.897 35.0106 159.243 43.6958 163.8 53.9214C164.401 55.2677 164.92 56.6407 165.348 58.0371C166.912 63.1244 168.717 72.7139 170.257 84.31C172.57 101.709 174.304 123.678 173.877 142.104C173.665 151.314 172.91 159.643 171.435 166.038C170.699 169.234 169.783 171.945 168.689 174.031C167.593 176.121 166.329 177.568 164.918 178.33C163.189 179.26 161.324 179.145 159.13 178.09C155.855 176.503 152.047 172.726 147.923 167.635C143.794 162.545 139.324 156.152 134.587 149.353C132.883 146.911 131.379 145.246 130.045 144.254C129.375 143.759 128.745 143.429 128.129 143.28C127.517 143.13 126.899 143.178 126.369 143.467C125.827 143.759 125.419 144.273 125.145 144.889C124.731 145.82 124.563 147.005 124.571 148.446C124.582 149.888 124.782 151.587 125.177 153.525C127.426 164.53 130.599 174.585 132.146 182.371C132.922 186.261 133.281 189.58 132.962 192.097C132.805 193.357 132.485 194.409 131.988 195.264C131.49 196.116 130.82 196.786 129.883 197.295C127.992 198.325 125.418 198.424 122.299 197.641C116.847 196.281 109.851 192.252 102.309 186.652C90.9863 178.253 78.3988 166.334 67.5409 154.665C56.684 143.002 47.5391 131.563 43.1227 124.202C42.3849 122.976 41.7184 121.686 41.1183 120.341C36.5445 110.112 35.9033 96.715 38.4306 84.837C40.9477 72.9499 46.6364 62.6458 54.4344 58.4443C58.5877 56.1862 63.6092 56.0922 69.1295 55.8247C74.6428 55.5512 80.6505 55.0739 86.6848 51.8075C92.7203 48.5404 96.7327 43.5937 100.297 38.9536C103.861 34.3036 106.995 29.9827 111.156 27.7404L110.836 27.0236Z" fill="#0A1C2D"/>
<mask id="mask0_10_2450" style="mask-type:luminance" maskUnits="userSpaceOnUse" x="47" y="27" width="120" height="140">
<path d="M156.421 141.726C148.687 146.016 145.86 138.157 140.853 130.866C140.089 129.753 139.283 128.749 138.435 127.867C139.877 125.631 140.8 123.359 141.342 121.119C141.842 119.064 142.027 117.049 142.017 115.119L166.699 101.426C166.01 120.632 161.905 138.276 157.22 141.251C156.947 141.423 156.681 141.581 156.421 141.726ZM108.133 166.473C108.027 166.532 107.917 166.586 107.806 166.637C103.744 168.477 93.4599 158.952 83.2336 147.729L100.026 138.414C101.78 140.018 103.752 141.374 106.101 142.213C107.597 142.746 109.237 143.06 111.052 143.094C110.065 153.191 113.025 163.759 108.133 166.473ZM166.753 92.0566L166.751 92.0572C166.449 80.0749 164.664 68.3037 160.722 59.8509C164.663 68.3022 166.449 80.0749 166.753 92.0566ZM166.597 92.1428L140.908 106.394C140.843 106.084 140.777 105.779 140.712 105.483C140.467 104.362 140.125 103.284 139.699 102.306C139.01 100.732 138.114 99.4112 136.995 98.6173C136.436 98.2232 135.813 97.9655 135.144 97.9118C134.478 97.8562 133.777 98.0118 133.097 98.3893C133.094 98.3906 133.092 98.392 133.089 98.3934C132.331 98.8153 131.597 99.4979 130.88 100.456C130.362 101.149 129.685 101.7 128.852 102.162C128.845 102.166 128.839 102.17 128.831 102.174C127.037 103.169 124.537 103.703 121.784 104.327C119.017 104.959 115.991 105.7 113.112 107.234L112.825 107.388C110.274 108.805 108.102 110.738 106.077 112.569C104.061 114.398 102.188 116.122 100.296 117.172C100.292 117.174 100.287 117.177 100.284 117.179C99.2154 117.771 98.1467 118.154 97.0248 118.25C96.026 118.337 95.1658 118.587 94.4437 118.988C94.4401 118.99 94.4376 118.991 94.4339 118.993C93.5846 119.465 92.9352 120.15 92.5021 120.953C91.8474 122.164 91.6679 123.597 91.781 125.054C91.8981 126.512 92.3121 128.014 92.9193 129.408C93.3503 130.397 93.8784 131.331 94.4754 132.153L77.6773 141.472C68.4833 130.879 60.3123 120.342 58.0477 117.383C50.9477 108.101 45.3186 94.85 48.2223 82.1653C50.0233 74.2958 54.2942 68.5488 60.341 65.1942C62.0862 64.2261 63.9801 63.4564 66.0039 62.8943C65.19 63.1222 64.3966 63.3835 63.6245 63.6761C72.2421 67.1201 82.9003 67.4309 91.5414 63.7774C92.5444 63.3519 93.497 62.8841 94.4081 62.3803C99.0586 59.8003 102.654 56.2247 106.695 52.2499C109.226 49.7614 111.994 47.3732 115.019 45.6949C117.608 44.2589 120.385 43.3429 123.363 43.3291C136.572 43.266 147.921 54.9416 155.027 65.5306C159.301 71.8953 163.279 78.5947 165.366 86.2738C165.892 88.2098 166.289 90.168 166.597 92.1428Z" fill="white"/>
</mask>
<g mask="url(#mask0_10_2450)">
<path d="M83.2841 182.282L188.812 123.739L141.817 15.8464L36.2886 74.3891L83.2841 182.282Z" fill="#FAFDFF"/>
</g>
<path d="M90.8261 62.7431C96.8332 60.3176 100.889 56.2208 105.564 51.5686C110.104 47.0494 115.462 42.9026 121.868 43.0764C134.968 43.428 146.519 55.5856 153.835 66.5115C158.234 73.0788 162.35 79.9751 164.614 87.8021C165.304 90.1868 165.806 92.5965 166.196 95.0263C165.679 82.4268 163.606 69.8849 159.313 60.8956C153.876 49.5087 143.644 38.9257 134.179 31.4387C127.966 26.5236 119.783 26.2073 113.079 30.1766C104.782 35.0881 100.001 45.3622 94.7527 53.5205C87.6823 64.5103 76.2839 58.703 66.4349 60.8228C65.2915 61.0671 64.193 61.3853 63.1358 61.7628C71.7699 65.5147 82.3484 66.164 90.8261 62.7431Z" fill="white"/>
<path d="M86.9106 59.6958C80.6108 61.6254 73.1613 59.3755 66.434 60.8232C66.182 60.8778 65.9324 60.9344 65.6851 60.9962C65.6153 61.0128 65.5442 61.03 65.4749 61.0479C62.4998 59.9114 59.5806 58.6073 56.606 57.4755C60.2939 56.1483 64.539 56.046 69.1289 55.824C74.6422 55.5505 80.6498 55.0732 86.6841 51.8068C92.3559 48.7366 96.2419 44.1823 99.6468 39.7951C99.3633 46.8445 94.13 53.9719 88.5142 58.5022C87.9917 58.9225 87.4579 59.321 86.9106 59.6958Z" fill="#D3F1FC"/>
<path d="M86.6852 51.8073C80.6509 55.0738 74.6432 55.5511 69.13 55.8246C64.5401 56.0465 60.295 56.1488 56.6071 57.476C56.2413 57.3354 55.8748 57.2 55.5071 57.0653C64.0677 53.4473 75.2114 57.1299 86.3658 51.0919C92.1979 47.9349 96.1151 43.1575 99.6471 38.5658C99.6649 38.975 99.6648 39.3841 99.6479 39.7956C96.243 44.1828 92.357 48.7371 86.6852 51.8073Z" fill="#0A1D2D"/>
<path d="M65.6846 60.9969C65.6151 61.0136 65.5457 61.0303 65.4756 61.0489C65.5445 61.0309 65.6151 61.0136 65.6846 60.9969Z" fill="#DCF4FD"/>
<path d="M84.7705 61.008C80.6244 63.2524 75.9793 64.1161 71.3639 62.9563C69.3575 62.4522 67.4063 61.7856 65.4759 61.049C65.5463 61.0304 65.6162 61.0139 65.6861 60.9973C65.9333 60.9355 66.1829 60.8789 66.4349 60.8243C73.1623 59.3766 80.6117 61.6265 86.9116 59.6969C86.2157 60.175 85.5005 60.6129 84.7705 61.008Z" fill="#E0F5FD"/>
<path d="M129.87 197.301C127.98 198.324 125.409 198.421 122.299 197.64C116.847 196.28 109.851 192.251 102.308 186.651C91.4081 178.565 79.3347 167.215 68.7604 155.968L74.3616 152.936C89.2317 164.783 101.6 173.702 104.994 175.284C108.399 176.872 112.283 180.304 115.95 178.319C115.984 178.3 116.019 178.281 116.053 178.262C123.085 174.254 120.247 165.107 118.381 158.596C116.99 153.735 117.128 147.917 118.583 142.786C121.228 142.097 124.168 140.913 127.461 139.13C127.472 139.124 127.481 139.119 127.491 139.114C127.506 139.105 127.522 139.097 127.536 139.089C130.301 137.592 132.583 135.984 134.455 134.302C135.576 135.662 136.547 137.215 137.366 138.318C141.231 143.521 146.283 153.287 153.656 151.708C154.589 151.507 155.492 151.159 156.361 150.688C162.493 147.369 166.918 137.983 167.669 131.908C169.051 120.74 170.477 111.404 171.121 100.559L172.052 100.055C173.381 113.902 174.183 128.91 173.877 142.103C173.665 151.313 172.909 159.642 171.435 166.037C170.698 169.233 169.783 171.944 168.689 174.03C167.594 176.118 166.333 177.563 164.923 178.327C164.921 178.327 164.919 178.329 164.918 178.329C163.189 179.259 161.324 179.144 159.13 178.088C155.855 176.502 152.047 172.725 147.923 167.634C143.794 162.544 139.323 156.151 134.587 149.352C132.883 146.91 131.379 145.245 130.045 144.253C129.375 143.758 128.745 143.428 128.129 143.279C127.519 143.13 126.904 143.177 126.375 143.463C126.372 143.464 126.371 143.465 126.369 143.466C126.369 143.466 126.367 143.467 126.366 143.468C125.827 143.76 125.419 144.272 125.145 144.888C124.731 145.819 124.563 147.004 124.571 148.445C124.581 149.886 124.782 151.586 125.177 153.524C127.426 164.529 130.599 174.584 132.146 182.37C132.922 186.259 133.281 189.579 132.962 192.096C132.805 193.356 132.485 194.408 131.988 195.263C131.49 196.114 130.82 196.785 129.883 197.294C129.88 197.296 129.875 197.298 129.87 197.301Z" fill="#D3F1FC"/>
<path d="M165.238 179.045C157.422 183.276 146.645 167.975 134.012 149.838C130.668 145.036 128.14 143.397 126.69 144.182C125.212 144.982 124.853 148.297 125.885 153.348C130.361 175.256 138.554 193.489 130.203 198.01C119.013 204.067 90.2247 179.943 68.069 156.342L68.7606 155.968C79.3349 167.214 91.4083 178.564 102.309 186.651C109.851 192.251 116.847 196.279 122.299 197.639C125.41 198.421 127.98 198.324 129.87 197.3C129.875 197.298 129.88 197.295 129.884 197.293C130.82 196.785 131.491 196.114 131.988 195.262C132.485 194.408 132.806 193.355 132.962 192.096C133.281 189.579 132.923 186.259 132.146 182.37C130.599 174.584 127.426 164.528 125.177 153.523C124.782 151.586 124.582 149.886 124.571 148.444C124.564 147.003 124.731 145.818 125.145 144.888C125.419 144.271 125.827 143.759 126.366 143.467C126.368 143.467 126.369 143.466 126.369 143.466C126.371 143.465 126.372 143.464 126.375 143.463C126.904 143.176 127.519 143.13 128.129 143.279C128.745 143.428 129.375 143.757 130.045 144.252C131.379 145.244 132.883 146.909 134.587 149.352C139.324 156.151 143.794 162.543 147.923 167.634C152.047 172.725 155.855 176.502 159.131 178.088C161.324 179.144 163.189 179.258 164.918 178.329C164.919 178.328 164.922 178.327 164.923 178.326C166.334 177.562 167.595 176.117 168.689 174.03C169.783 171.944 170.699 169.232 171.435 166.037C172.91 159.641 173.665 151.312 173.877 142.103C174.183 128.91 173.381 113.901 172.052 100.055L172.744 99.6804C175.964 132.989 176.155 173.135 165.238 179.045ZM171.777 90.636L171.461 90.807C171.472 89.9183 171.475 89.0167 171.474 88.0994C171.576 88.9361 171.679 89.7831 171.777 90.636Z" fill="#0A1D2D"/>
<path d="M67.2651 147.211L62.8976 149.576C56.5247 142.445 50.9764 135.615 46.9709 130.004C53.668 135.92 60.6063 141.774 67.2651 147.211Z" fill="#D3F1FC"/>
<path d="M62.8973 149.575L62.2129 149.946C54.8814 141.73 48.653 133.928 44.5972 127.895C45.3854 128.599 46.1752 129.3 46.9706 130.003C50.9761 135.614 56.5244 142.445 62.8973 149.575Z" fill="#0A1D2D"/>
<path d="M89.907 101.279C91.63 105.139 90.1864 109.802 86.6829 111.699C83.1793 113.596 78.944 112.006 77.2209 108.146C75.4993 104.289 76.9424 99.6245 80.4459 97.7279C83.9495 95.8314 88.1853 97.4223 89.907 101.279Z" fill="#0A1C2D"/>
<path d="M88.7137 104.483C89.222 105.622 88.7945 106.997 87.7618 107.556C86.7292 108.115 85.4803 107.647 84.9721 106.509C84.4638 105.37 84.8896 103.994 85.9223 103.435C86.9549 102.876 88.2055 103.345 88.7137 104.483Z" fill="white"/>
<path d="M84.6652 102.468C84.9928 103.202 84.7183 104.088 84.0518 104.449C83.3865 104.809 82.5805 104.508 82.2529 103.774C81.926 103.042 82.2007 102.153 82.866 101.793C83.5325 101.432 84.3383 101.736 84.6652 102.468Z" fill="white"/>
<path d="M123.282 83.2129C125.005 87.0726 129.24 88.6624 132.744 86.7659C136.247 84.8694 137.692 80.2048 135.969 76.3451C134.248 72.4885 130.011 70.8983 126.507 72.7948C123.003 74.6914 121.56 79.3563 123.282 83.2129Z" fill="#0A1C2D"/>
<path d="M126.315 84.1284C126.824 85.2669 128.072 85.7348 129.105 85.1758C130.139 84.6162 130.564 83.2422 130.056 82.1036C129.548 80.9651 128.299 80.4955 127.266 81.0551C126.233 81.6141 125.807 82.9898 126.315 84.1284Z" fill="white"/>
<path d="M127.337 79.3674C127.665 80.1013 128.471 80.4025 129.136 80.0424C129.803 79.6816 130.079 78.7949 129.751 78.0609C129.424 77.3286 128.617 77.0253 127.95 77.3861C127.285 77.7462 127.01 78.6351 127.337 79.3674Z" fill="white"/>
<path d="M132.485 62.7382C131.141 60.9989 129.319 60.1153 127.493 59.9147C125.66 59.7104 123.804 60.1457 122.196 61.013C120.695 61.8292 119.396 63.0277 118.577 64.5476C117.754 66.056 117.461 67.9512 118.056 69.8232C118.252 70.4482 118.871 70.7802 119.439 70.5649C120.007 70.349 120.308 69.6673 120.112 69.0416C119.748 67.8501 119.906 66.7989 120.449 65.7656C120.994 64.7429 121.972 63.8013 123.156 63.1634C124.421 62.4754 125.905 62.1396 127.271 62.297C128.642 62.4566 129.875 63.0638 130.83 64.2919C131.22 64.796 131.907 64.8562 132.364 64.4271C132.82 63.9969 132.875 63.2407 132.485 62.7382Z" fill="#0A1C2D"/>
<path d="M72.3315 95.9569C72.0319 94.3738 72.3479 92.9284 73.0695 91.636C73.7905 90.349 74.9386 89.2598 76.2057 88.5771C77.388 87.9339 78.6609 87.6571 79.7303 87.8061C80.8038 87.9643 81.6572 88.4681 82.2929 89.5127C82.623 90.0658 83.2975 90.219 83.7995 89.8558C84.3013 89.4921 84.4395 88.7501 84.1097 88.1976C83.127 86.5355 81.5838 85.6345 79.9978 85.4299C78.4046 85.2158 76.7486 85.6165 75.2458 86.4268C73.6399 87.2993 72.1934 88.6517 71.2211 90.3743C70.2499 92.0892 69.7723 94.2177 70.2033 96.4512C70.3257 97.0981 70.9029 97.5124 71.4917 97.3771C72.0786 97.2408 72.4546 96.6054 72.3315 95.9569Z" fill="#0A1C2D"/>
<path d="M98.0456 41.9179C98.0456 41.9179 97.7232 42.2707 97.1589 42.887C96.8857 43.2002 96.5091 43.5578 96.1634 44.0116C95.8029 44.4587 95.3967 44.9633 94.9544 45.5135C94.0472 46.6165 93.037 47.9879 91.8492 49.354C91.2558 50.0384 90.6777 50.7767 90.0288 51.4666C89.3747 52.1512 88.7097 52.8449 88.0453 53.5399C87.4053 54.2627 86.6391 54.8328 85.9542 55.4752C85.2409 56.0805 84.5927 56.752 83.8687 57.2601C83.1547 57.7807 82.4641 58.2838 81.81 58.7622C81.1453 59.2202 80.5643 59.7327 79.9381 60.0504C77.5199 61.4461 75.9077 62.3777 75.9077 62.3777C75.9077 62.3777 77.4727 61.3604 79.8207 59.8374C80.4251 59.4906 80.9836 58.9445 81.6211 58.4555C82.2473 57.948 82.9083 57.4119 83.5915 56.8588C84.2829 56.3176 84.8949 55.615 85.5714 54.9805C86.2195 54.309 86.9459 53.7096 87.545 52.9616C88.1684 52.2413 88.7912 51.523 89.4037 50.8152C90.011 50.102 90.5523 49.3378 91.1058 48.6341C92.2147 47.224 93.1488 45.8153 94.02 44.6418C94.456 44.0442 94.8559 43.4956 95.2101 43.0111C95.559 42.5113 95.9029 42.1534 96.1655 41.8198C96.702 41.1711 97.0095 40.8018 97.0095 40.8018C97.2793 40.4774 97.738 40.4533 98.0343 40.751C98.3288 41.048 98.3508 41.5531 98.0805 41.8794L98.0565 41.9055L98.0456 41.9179Z" fill="#0A1C2D"/>
<path d="M48.1918 71.6228C47.1286 72.0935 46.343 73.8048 45.87 74.8886C45.2089 76.4097 45.0134 77.8554 44.9865 79.5191L45.1236 79.53C45.2563 78.0168 45.7819 76.5216 46.3954 75.1736C46.9303 73.9989 48.0489 73.0466 48.4159 71.8385C48.4645 71.6846 48.3191 71.5653 48.1918 71.6228Z" fill="#0A1C2D"/>
<path d="M49.8084 72.0316C48.641 72.9776 47.5601 74.4969 47.5035 76.1439L47.6588 76.2022C48.3436 74.8041 49.221 73.6878 50.3824 72.745C50.8313 72.3793 50.2537 71.6678 49.8084 72.0316Z" fill="#0A1C2D"/>
<path d="M91.0655 167.963C90.2501 167.524 89.3673 167.391 88.5215 167.023C87.4803 166.572 86.5033 165.841 85.8283 164.851L85.7431 164.913C86.4311 167.014 89.0242 169.078 91.0748 168.137L91.0655 167.963Z" fill="#0A1C2D"/>
<path d="M93.0285 165.559C91.6589 165.143 90.1417 165.482 88.8351 164.745L88.7246 164.884C89.7496 166.234 91.6392 166.504 93.0392 165.749L93.0285 165.559Z" fill="#0A1C2D"/>
<path d="M167.11 113.62C167.104 115.19 167.536 116.724 167.515 118.325C167.495 119.878 167.136 121.379 166.988 122.915L167.051 122.939C168.296 120.542 168.781 116.015 167.513 113.535C167.417 113.345 167.112 113.372 167.11 113.62Z" fill="#0A1C2D"/>
<path d="M165.169 112.086L164.918 112.181C164.807 113.064 165.108 113.838 165.303 114.685C165.5 115.531 165.663 116.462 165.721 117.327C165.738 117.599 166.092 117.537 166.125 117.301C166.352 115.691 166.329 113.295 165.169 112.086Z" fill="#0A1C2D"/>
<path d="M117.542 30.8436C116.064 30.4163 114.622 31.1022 113.574 32.2455C113.457 32.3727 113.589 32.6297 113.743 32.5219C114.622 31.904 115.601 31.6342 116.642 31.6596C116.965 31.668 117.973 31.9138 117.814 31.1884C117.78 31.0384 117.687 30.886 117.542 30.8436Z" fill="#0A1C2D"/>
<path d="M144.177 90.2151C145.031 92.1273 142.992 95.155 139.624 96.9784C136.255 98.8017 132.833 98.7301 131.979 96.818C131.125 94.9048 133.164 91.8776 136.533 90.0542C139.901 88.2309 143.323 88.302 144.177 90.2151Z" fill="#F9ADB3"/>
<path d="M95.5289 116.549C96.3825 118.461 94.3437 121.489 90.9754 123.312C87.6058 125.136 84.1847 125.064 83.3311 123.151C82.477 121.238 84.5148 118.212 87.8843 116.388C91.2527 114.564 94.6748 114.635 95.5289 116.549Z" fill="#F9ADB3"/>
<path d="M128.832 93.6155C128.552 93.7671 128.765 94.2442 129.045 94.0926C129.325 93.9411 129.112 93.4639 128.832 93.6155Z" fill="#0A1C2D"/>
<path d="M130.791 92.0488C129.755 92.6098 130.547 94.3829 131.583 93.822C132.621 93.2598 131.83 91.4866 130.791 92.0488Z" fill="#0A1C2D"/>
<path d="M135.046 89.3181C134.521 89.6025 134.921 90.4986 135.446 90.2142C135.972 89.9299 135.571 89.0338 135.046 89.3181Z" fill="#0A1C2D"/>
<path d="M134.18 92.0032C133.375 92.4392 133.988 93.8119 134.793 93.3759C135.598 92.94 134.985 91.5673 134.18 92.0032Z" fill="#0A1C2D"/>
<path d="M137.927 90.5293C137.031 91.0145 137.714 92.5446 138.61 92.0595C139.505 91.575 138.822 90.0448 137.927 90.5293Z" fill="#0A1C2D"/>
<path d="M138.836 86.3386C138.125 86.7234 138.668 87.9385 139.378 87.5537C140.089 87.169 139.547 85.9539 138.836 86.3386Z" fill="#0A1C2D"/>
<path d="M142.512 85.5054C141.956 85.8066 142.38 86.7562 142.936 86.455C143.492 86.1545 143.068 85.2049 142.512 85.5054Z" fill="#0A1C2D"/>
<path d="M143.617 88.6737C143.389 88.7968 143.562 89.1829 143.789 89.0598C144.015 88.9374 143.843 88.5513 143.617 88.6737Z" fill="#0A1C2D"/>
<path d="M132.283 96.6978C131.793 96.9634 132.166 97.7998 132.657 97.5342C133.146 97.2693 132.773 96.4329 132.283 96.6978Z" fill="#0A1C2D"/>
<path d="M129.123 95.7487C128.68 95.9883 129.019 96.7459 129.461 96.5063C129.904 96.2666 129.566 95.509 129.123 95.7487Z" fill="#0A1C2D"/>
<path d="M135.939 95.622C135.81 95.6919 135.908 95.9098 136.037 95.8399C136.165 95.7707 136.067 95.5528 135.939 95.622Z" fill="#0A1C2D"/>
<path d="M138.208 93.5142C137.975 93.6405 138.153 94.0399 138.386 93.9136C138.62 93.7873 138.441 93.3879 138.208 93.5142Z" fill="#0A1C2D"/>
<path d="M81.642 119.162C81.362 119.313 81.575 119.79 81.855 119.639C82.135 119.487 81.922 119.01 81.642 119.162Z" fill="#0A1C2D"/>
<path d="M83.6017 117.594C82.563 118.156 83.3546 119.93 84.3932 119.367C85.4307 118.806 84.6391 117.033 83.6017 117.594Z" fill="#0A1C2D"/>
<path d="M87.8557 114.862C87.3304 115.146 87.7305 116.043 88.2558 115.758C88.7811 115.474 88.381 114.578 87.8557 114.862Z" fill="#0A1C2D"/>
<path d="M86.9903 117.548C86.1862 117.983 86.799 119.356 87.6031 118.921C88.4084 118.485 87.7956 117.112 86.9903 117.548Z" fill="#0A1C2D"/>
<path d="M90.7371 116.073C89.8409 116.558 90.524 118.089 91.4202 117.603C92.3165 117.118 91.6334 115.588 90.7371 116.073Z" fill="#0A1C2D"/>
<path d="M91.6449 111.883C90.9342 112.267 91.4766 113.482 92.1874 113.098C92.8981 112.713 92.3557 111.498 91.6449 111.883Z" fill="#0A1C2D"/>
<path d="M95.3221 111.05C94.7669 111.35 95.1908 112.3 95.746 111.999C96.3012 111.699 95.8773 110.749 95.3221 111.05Z" fill="#0A1C2D"/>
<path d="M96.426 114.218C96.1998 114.341 96.3722 114.727 96.5983 114.604C96.8245 114.482 96.6521 114.096 96.426 114.218Z" fill="#0A1C2D"/>
<path d="M85.0941 122.241C84.6023 122.507 84.9757 123.344 85.4675 123.078C85.9569 122.813 85.5835 121.976 85.0941 122.241Z" fill="#0A1C2D"/>
<path d="M81.9328 121.295C81.4901 121.534 81.8283 122.292 82.271 122.052C82.7137 121.813 82.3755 121.055 81.9328 121.295Z" fill="#0A1C2D"/>
<path d="M88.7477 121.167C88.6198 121.236 88.717 121.454 88.845 121.385C88.9729 121.315 88.8756 121.097 88.7477 121.167Z" fill="#0A1C2D"/>
<path d="M91.0177 119.058C90.7844 119.185 90.9627 119.584 91.196 119.458C91.4293 119.331 91.251 118.932 91.0177 119.058Z" fill="#0A1C2D"/>
<path d="M96.354 132.003C102.65 139.884 109.41 148.11 127.207 138.477C145.004 128.843 142.032 115.06 140.025 106.623C138.688 101.005 134.953 96.4259 131.277 101.495C128.245 105.675 120.302 104.509 113.595 107.987C111.07 109.296 108.92 111.213 106.891 113.064C103.835 115.852 101.053 118.493 97.6771 118.683C91.0178 119.058 92.866 127.638 96.354 132.003Z" fill="white"/>
<path d="M96.3534 132.005L95.8674 132.473C99.018 136.409 102.35 140.557 107.251 142.478C112.158 144.4 118.511 143.985 127.491 139.115C136.509 134.247 140.401 128.191 141.67 122.267C142.942 116.351 141.651 110.673 140.648 106.443C140.377 105.303 140.01 104.202 139.563 103.201C138.84 101.588 137.918 100.225 136.788 99.3873C136.224 98.9714 135.599 98.6913 134.934 98.616C134.27 98.5387 133.576 98.6752 132.909 99.0381C132.168 99.4407 131.457 100.108 130.77 101.053C130.274 101.738 129.617 102.273 128.802 102.714C127.045 103.671 124.572 104.133 121.846 104.679C119.119 105.232 116.136 105.885 113.32 107.345L113.039 107.492C110.545 108.844 108.439 110.73 106.478 112.516C104.52 114.306 102.702 115.993 100.848 116.993C99.8039 117.558 98.7536 117.912 97.6434 117.974C96.655 118.03 95.8081 118.256 95.1022 118.638C94.267 119.087 93.6372 119.763 93.2263 120.563C92.6075 121.766 92.4658 123.21 92.6149 124.685C92.768 126.163 93.2165 127.693 93.8541 129.122C94.4024 130.35 95.0923 131.502 95.8674 132.473L96.3534 132.005L96.8376 131.535C96.1451 130.669 95.5124 129.615 95.0124 128.495C94.2341 126.758 93.7843 124.858 93.8594 123.299C93.8947 122.52 94.0574 121.829 94.3497 121.266C94.6429 120.701 95.0588 120.248 95.6715 119.914C96.1909 119.632 96.8593 119.443 97.7099 119.394C99.0288 119.32 100.258 118.898 101.418 118.268C103.478 117.15 105.348 115.39 107.302 113.611C109.254 111.829 111.285 110.025 113.609 108.769L113.869 108.632C116.498 107.265 119.368 106.625 122.079 106.079C124.792 105.526 127.341 105.084 129.371 103.99C130.309 103.484 131.138 102.825 131.781 101.939C132.378 101.114 132.954 100.597 133.479 100.315C133.952 100.06 134.381 99.9833 134.802 100.029C135.429 100.1 136.076 100.473 136.702 101.135C137.328 101.795 137.916 102.732 138.404 103.828C138.808 104.735 139.149 105.75 139.399 106.804C140.404 111.012 141.602 116.445 140.414 121.937C139.221 127.422 135.701 133.075 126.921 137.84C118.105 142.606 112.179 142.893 107.683 141.139C103.18 139.385 99.9849 135.48 96.8376 131.535L96.3534 132.005Z" fill="#0A1C2D"/>
<path d="M98.523 134.956L140.8 112.071C141.12 111.898 141.252 111.473 141.095 111.12C140.938 110.768 140.55 110.623 140.231 110.796L97.9536 133.681C97.6341 133.854 97.502 134.28 97.6592 134.632C97.8167 134.985 98.2035 135.129 98.523 134.956Z" fill="#0A1C2D"/>
<path d="M134.857 125.484C135.811 127.621 135.012 130.204 133.071 131.254L118.432 139.179C116.492 140.229 114.145 139.35 113.191 137.213L105.994 121.093C105.04 118.956 105.842 116.372 107.782 115.322L122.421 107.398C124.361 106.347 126.707 107.227 127.661 109.365L134.857 125.484Z" fill="#BDBCBC"/>
<path d="M134.857 125.486L134.206 125.839C134.981 127.581 134.332 129.68 132.751 130.54L118.112 138.464C116.53 139.317 114.621 138.601 113.842 136.862L106.646 120.742C105.871 119 106.523 116.899 108.101 116.039L122.74 108.115C124.324 107.263 126.23 107.978 127.01 109.719L134.206 125.839L134.857 125.486L135.508 125.134L128.312 109.014C127.181 106.482 124.401 105.438 122.101 106.683L107.462 114.607C105.162 115.852 104.214 118.912 105.344 121.447L112.54 137.567C113.672 140.098 116.452 141.141 118.752 139.897L133.391 131.973C135.69 130.727 136.639 127.666 135.508 125.134L134.857 125.486Z" fill="#0A1C2D"/>
<path d="M131.306 125.307C130.689 125.626 129.991 125.583 129.245 125.333C129.223 124.929 129.128 124.522 128.956 124.136L125.027 115.334C124.329 113.774 122.615 113.129 121.195 113.896L113.203 118.222C112.388 118.663 111.851 119.473 111.669 120.377C111.156 119.69 110.566 119.098 109.88 118.636C110.423 117.949 110.992 117.493 111.552 117.19C113.16 116.32 114.703 116.7 115.398 116.455C116.398 116.097 117.2 115.741 117.846 115.391C121.125 113.616 120.452 111.988 121.771 111.119C121.833 111.079 121.899 111.04 121.971 111.001C123.293 110.285 126.314 109.888 127.275 112.499C128.717 116.422 130.807 122.01 131.306 125.307Z" fill="#908E8E"/>
<path d="M132.751 130.54L118.112 138.464C116.53 139.317 114.621 138.602 113.841 136.862L111.937 132.597L111.617 131.881L108.497 124.891L107.73 123.173C109.446 126.431 111.373 129.546 113.666 132.376C116.463 135.829 120.257 135.925 123.738 134.041C123.955 133.924 124.171 133.798 124.385 133.666C127.647 131.647 130.652 129.7 132.301 125.867C132.655 125.04 132.884 124.129 133.013 123.166L134.206 125.839C134.981 127.581 134.331 129.681 132.751 130.54Z" fill="#908E8E"/>
<path d="M133.071 131.254L118.432 139.179C116.492 140.229 114.145 139.35 113.191 137.213L111.286 132.947L111.937 132.595L113.841 136.86C114.621 138.6 116.53 139.315 118.112 138.462L132.751 130.538C134.331 129.679 134.981 127.579 134.206 125.837L133.013 123.164C133.08 122.665 133.12 122.153 133.137 121.633L134.857 125.484C135.811 127.621 135.012 130.204 133.071 131.254ZM108.497 124.889L107.847 125.242L105.994 121.093C105.675 120.378 105.558 119.613 105.608 118.872C106.285 120.325 106.988 121.762 107.731 123.171L108.497 124.889Z" fill="#071522"/>
<path d="M128.306 124.49C128.827 125.656 128.391 127.067 127.331 127.641L119.339 131.967C118.279 132.541 116.999 132.059 116.478 130.893L112.549 122.091C112.029 120.926 112.464 119.514 113.524 118.94L121.516 114.614C122.576 114.04 123.857 114.524 124.377 115.688L128.306 124.49Z" fill="#BDBCBC"/>
<path d="M128.305 124.489L127.654 124.841C127.996 125.611 127.709 126.542 127.01 126.923L119.018 131.249C118.316 131.627 117.471 131.309 117.127 130.54L113.197 121.738C112.855 120.968 113.144 120.037 113.843 119.656L121.835 115.33C122.534 114.953 123.38 115.271 123.725 116.039L127.654 124.841L128.305 124.489L128.956 124.137L125.027 115.335C124.329 113.774 122.614 113.129 121.195 113.897L113.203 118.223C111.783 118.993 111.2 120.881 111.897 122.442L115.826 131.244C116.523 132.806 118.237 133.45 119.657 132.681L127.649 128.355C129.068 127.587 129.653 125.698 128.956 124.137L128.305 124.489Z" fill="#0A1C2D"/>
<path d="M127.01 126.924L119.018 131.25C118.316 131.628 117.472 131.31 117.127 130.541L115.936 127.873L126.463 122.174L127.655 124.842C127.997 125.612 127.71 126.543 127.01 126.924Z" fill="#908E8E"/>
<path d="M127.331 127.641L119.339 131.967C118.279 132.541 116.999 132.059 116.478 130.893L115.287 128.225L115.937 127.873L117.128 130.541C117.472 131.31 118.317 131.628 119.019 131.25L127.011 126.924C127.71 126.543 127.997 125.613 127.655 124.842L126.464 122.174L127.115 121.822L128.306 124.49C128.827 125.656 128.391 127.067 127.331 127.641Z" fill="#071522"/>
<path d="M119.609 131.64C120.185 132.93 119.703 134.49 118.529 135.125C117.358 135.759 115.94 135.228 115.364 133.938L109.932 121.771C109.356 120.481 109.841 118.92 111.012 118.286C112.186 117.65 113.602 118.183 114.178 119.473L119.609 131.64Z" fill="#BDBCBC"/>
<path d="M119.608 131.638L118.957 131.99C119.356 132.886 119.023 133.964 118.208 134.406C117.396 134.845 116.414 134.478 116.014 133.584L110.582 121.417C110.185 120.523 110.52 119.44 111.331 118.999C112.145 118.56 113.126 118.931 113.526 119.823L118.957 131.99L119.608 131.638L120.259 131.286L114.828 119.119C114.075 117.434 112.224 116.737 110.691 117.567C109.159 118.396 108.529 120.434 109.282 122.121L114.713 134.288C115.466 135.975 117.317 136.669 118.849 135.84C120.381 135.011 121.012 132.972 120.259 131.286L119.608 131.638Z" fill="#0A1C2D"/>
<path d="M131.307 125.308C131.882 126.598 131.399 128.159 130.227 128.793C129.054 129.428 127.637 128.896 127.061 127.606L121.63 115.439C121.054 114.149 121.537 112.589 122.709 111.954C123.882 111.319 125.299 111.851 125.875 113.141L131.307 125.308Z" fill="#BDBCBC"/>
<path d="M131.306 125.308L130.655 125.66C131.053 126.555 130.719 127.635 129.906 128.076C129.092 128.515 128.112 128.147 127.711 127.254L122.28 115.087C121.882 114.192 122.216 113.11 123.028 112.669C123.842 112.23 124.823 112.6 125.223 113.493L130.655 125.66L131.306 125.308L131.957 124.955L126.525 112.788C125.772 111.104 123.921 110.407 122.389 111.237C120.857 112.066 120.226 114.104 120.978 115.791L126.409 127.958C127.162 129.645 129.015 130.339 130.546 129.51C132.079 128.68 132.709 126.643 131.957 124.955L131.306 125.308Z" fill="#0A1C2D"/>
<path d="M121.419 117.573C121.824 118.48 121.484 119.575 120.662 120.02L118.151 121.379C117.328 121.825 116.335 121.451 115.93 120.544C115.527 119.64 115.864 118.545 116.687 118.099L119.197 116.74C120.019 116.295 121.015 116.669 121.419 117.573Z" fill="#DCDBDB"/>
<path d="M123.914 108.51C124.103 108.935 123.841 109.505 123.328 109.783L108.944 117.569C108.431 117.847 107.86 117.727 107.671 117.303C107.481 116.878 107.744 116.308 108.257 116.03L122.641 108.244C123.154 107.966 123.724 108.085 123.914 108.51Z" fill="#DCDBDB"/>
<path d="M124.132 113.197C124.52 112.987 124.963 113.112 125.125 113.475L129.649 123.608C129.811 123.971 129.629 124.434 129.242 124.643C128.856 124.852 128.412 124.728 128.25 124.366L123.726 114.232C123.564 113.869 123.747 113.406 124.132 113.197Z" fill="#DCDBDB"/>
<path d="M112.436 119.528C112.822 119.319 113.267 119.443 113.429 119.805L117.953 129.939C118.115 130.302 117.932 130.765 117.546 130.974C117.16 131.183 116.715 131.059 116.553 130.697L112.029 120.563C111.867 120.201 112.051 119.737 112.436 119.528Z" fill="#DCDBDB"/>
<path d="M100.417 133.141L97.4933 124.982L101.575 132.514L100.417 133.141Z" fill="#0A1C2D"/>
<path d="M106.497 129.85L103.799 122.191L107.657 129.222L106.497 129.85Z" fill="#0A1C2D"/>
<path d="M105.813 130.219L109.472 140.027L104.653 130.847L105.813 130.219Z" fill="#0A1C2D"/>
<path d="M134.366 114.763L131.667 107.104L135.526 114.135L134.366 114.763Z" fill="#0A1C2D"/>
<path d="M136.717 113.489L139.334 120.961L135.558 114.117L136.717 113.489Z" fill="#0A1C2D"/>
<path d="M132.814 120.406L198.961 84.6003L196.161 78.3281L130.014 114.134L132.814 120.406Z" fill="#BDBCBC"/>
<path d="M198.962 84.6003L198.642 83.8834L133.146 119.337L130.986 114.499L195.831 79.3975L198.311 84.9526L198.962 84.6003L199.612 84.2486L196.492 77.2595L129.044 113.769L132.484 121.475L199.932 84.9651L199.612 84.2486L198.962 84.6003Z" fill="#0A1C2D"/>
<path d="M133.146 119.337L197.991 84.2363L197.27 82.6222L132.426 117.723L133.146 119.337Z" fill="#908E8E"/>
<path d="M198.961 84.6003L132.814 120.406L131.774 118.075L132.425 117.723L133.145 119.337L197.99 84.2358L197.269 82.6217L197.92 82.2693L198.961 84.6003Z" fill="#071522"/>
<path d="M195.537 80.676C195.727 81.1016 195.465 81.6718 194.95 81.9504L133.742 115.083C133.227 115.362 132.658 115.242 132.468 114.816C132.277 114.389 132.539 113.82 133.054 113.542L194.262 80.4089C194.776 80.1303 195.346 80.2488 195.537 80.676Z" fill="#DCDBDB"/>
<path d="M44.8228 168.038L110.967 132.234L108.167 125.962L42.0228 161.766L44.8228 168.038Z" fill="#BDBCBC"/>
<path d="M110.966 132.231L110.646 131.515L45.1532 166.967L42.9933 162.129L107.836 127.029L110.315 132.584L110.966 132.231L111.617 131.879L108.497 124.89L41.0513 161.399L44.4912 169.105L111.937 132.596L111.617 131.879L110.966 132.231Z" fill="#0A1C2D"/>
<path d="M45.1543 166.969L109.997 131.869L109.276 130.255L44.4337 165.355L45.1543 166.969Z" fill="#908E8E"/>
<path d="M110.967 132.233L44.8228 168.038L43.7821 165.707L44.4331 165.355L45.1537 166.969L109.996 131.869L109.275 130.255L109.926 129.902L110.967 132.233Z" fill="#071522"/>
<path d="M107.543 128.309C107.733 128.734 107.471 129.305 106.957 129.582L45.7491 162.715C45.2345 162.994 44.6654 162.874 44.4754 162.448C44.2847 162.021 44.5464 161.452 45.0609 161.174L106.269 128.041C106.782 127.763 107.352 127.882 107.543 128.309Z" fill="#DCDBDB"/>
</g>
</svg>
