<svg width="219" height="137" viewBox="0 0 219 137" fill="none" xmlns="http://www.w3.org/2000/svg">
<g opacity="0.2">
<path d="M123.239 60.9868C123.239 60.9868 63.7565 77.4824 20.4393 48.543C-9.57417 28.4908 16.7613 -15.2705 46.4674 7.73657C92.1993 43.1556 125.801 46.2003 125.801 46.2003L123.239 60.9868Z" fill="#A8E3FA"/>
<path d="M123.24 60.9869L123.022 60.3735C123.022 60.3735 122.77 60.4432 122.27 60.5697C118.778 61.4562 103.468 65.0257 84.034 65.0246C64.547 65.0257 40.9412 61.4373 20.8762 48.0301C11.6934 41.8898 7.92405 33.538 7.91778 25.5892C7.91631 19.3685 10.2486 13.4054 14.1226 9.02859C18.0016 4.6482 23.3762 1.86349 29.5371 1.8623C34.5611 1.86349 40.1688 3.71446 45.9907 8.22132C91.8396 43.7325 125.602 46.8305 125.726 46.8399L125.801 46.2004L125.084 46.1035L122.522 60.8888L123.24 60.9869L123.956 61.085L126.633 45.6296L125.874 45.561C125.874 45.561 125.758 45.5504 125.509 45.5208C121.77 45.0693 89.7084 40.371 46.945 7.25327C40.9314 2.59275 34.974 0.576302 29.5371 0.577484C22.8626 0.576302 17.0652 3.61279 12.9814 8.23549C8.89178 12.8617 6.46991 19.0836 6.46778 25.5892C6.46205 33.8938 10.4507 42.6794 20.0032 49.0561C40.4188 62.6925 64.3563 66.3094 84.034 66.3105C106.473 66.3094 123.412 61.611 123.456 61.6004L123.886 61.481L123.956 61.085L123.24 60.9869Z" fill="#0A1C2D"/>
<path d="M92.5395 40.6908C90.2416 38.7512 87.4468 37.5526 84.6817 36.2052C80.6452 34.2348 76.8785 31.6617 73.0995 29.3296C65.2104 24.4682 57.4968 19.3869 49.5921 14.5444C41.9525 9.86375 23.9561 -0.984413 17.9676 11.9322C17.8957 12.0847 18.1061 12.2537 18.2728 12.2017C20.5848 11.4866 22.4255 10.1592 24.7093 9.34249C28.4525 8.00332 32.3656 9.21957 35.7823 10.6781C42.4072 13.5066 48.488 17.8007 54.4484 21.5759C60.5905 25.4658 66.6391 29.4786 72.9135 33.2006C78.5557 36.5479 85.2343 40.439 92.0676 41.4082C92.5119 41.4709 92.9208 41.0146 92.5395 40.6908Z" fill="white"/>
<path d="M56.742 57.0664C49.3185 56.6397 41.2378 55.8525 32.4982 54.5855C28.5337 52.7191 24.642 50.549 20.8764 48.0326C11.6936 41.8922 7.92424 33.5404 7.91797 25.5917C7.91704 21.9866 8.69983 18.4691 10.1113 15.2967C11.3576 18.7078 12.9737 22.0458 14.6493 25.3056C17.754 31.3467 22.2498 36.831 27.3034 41.7008C35.2732 49.3836 45.6378 54.2285 56.742 57.0664Z" fill="#86C7E1"/>
<path d="M32.4977 54.584C31.7753 54.4788 31.0455 54.3712 30.3143 54.2589C26.9555 52.5876 23.6518 50.6906 20.4393 48.5441C6.5034 39.2325 4.72059 24.8125 9.77993 14.3354C9.87993 14.6439 9.98513 14.9489 10.0955 15.2538C10.1007 15.268 10.1059 15.281 10.1107 15.2952C8.69926 18.4676 7.91646 21.9852 7.91739 25.5902C7.92366 33.539 11.693 41.8908 20.8758 48.0311C24.6414 50.5475 28.5331 52.7176 32.4977 54.584Z" fill="#091A29"/>
<path d="M103.293 54.5156C103.293 54.5156 102.108 54.4281 100.068 54.1799C98.0232 53.9424 95.116 53.5464 91.6529 52.9531C88.1884 52.3703 84.1753 51.5642 79.918 50.5596C77.7873 50.0667 75.6138 49.4627 73.3956 48.8882C71.2102 48.2181 68.9581 47.6224 66.7665 46.873C64.5789 46.1154 62.3576 45.4369 60.257 44.5776C58.1362 43.7632 56.043 42.9748 54.095 42.0635C52.1232 41.1983 50.2154 40.365 48.4925 39.4325C46.7597 38.5188 45.0592 37.7481 43.6294 36.8345C42.169 35.9657 40.831 35.1703 39.6446 34.4647C38.5004 33.707 37.5378 33.0049 36.728 32.4482C35.118 31.3241 34.1982 30.6812 34.1982 30.6812C34.1982 30.6812 35.1316 31.3088 36.7665 32.4045C37.5878 32.947 38.5633 33.6314 39.7222 34.3677C40.9212 35.0509 42.2742 35.8227 43.7498 36.6643C45.1946 37.5508 46.9097 38.2919 48.6556 39.1712C50.392 40.0719 52.3113 40.8698 54.2941 41.6971C56.2524 42.5706 58.355 43.32 60.4832 44.0942C62.5904 44.9145 64.8185 45.5515 67.0097 46.2678C69.205 46.9758 71.4597 47.5302 73.6456 48.159C75.8649 48.692 78.0373 49.2559 80.1654 49.7097C84.418 50.634 88.4212 51.3668 91.8726 51.8857C95.3212 52.4153 98.2117 52.7592 100.236 52.959C102.262 53.1705 103.415 53.2355 103.415 53.2355L103.293 54.5156Z" fill="#0A1C2D"/>
<path d="M47.0957 26.1686L47.09 26.0304L47.0894 26.0292C47.0817 25.8649 47.0724 25.7006 47.0645 25.5351H46.9858C46.9781 25.7006 46.9697 25.8649 46.9604 26.0292H46.9598L46.9541 26.1686L47.0244 26.2266L47.0957 26.1686Z" fill="#0A1C2D"/>
<path d="M46.2984 19.507C45.9187 19.3652 45.6322 19.2186 45.1864 19.2517C44.6448 19.2907 44.277 19.4834 43.9582 19.8734C43.3208 20.6559 44.5848 21.774 45.4667 21.2102C45.5728 21.1429 45.9443 20.8875 45.8192 20.9656L46.0505 20.8604L46.2463 20.7268C46.4307 20.5058 46.4484 20.4928 46.2984 20.689C46.7785 20.4762 46.8271 19.7068 46.2984 19.507Z" fill="#0A1C2D"/>
<path d="M55.1231 25.6601C55.0575 25.4013 54.9929 25.1436 54.9184 24.8871C54.7544 24.3221 53.796 24.3221 53.632 24.8871C53.5575 25.1436 53.4929 25.4013 53.4288 25.6601C53.1205 26.9154 55.4293 26.9154 55.1231 25.6601Z" fill="#0A1C2D"/>
<path d="M62.083 31.0373C60.7341 31.0373 60.7341 32.8906 62.083 32.8906C63.433 32.8906 63.433 31.0373 62.083 31.0373Z" fill="#0A1C2D"/>
<path d="M65.4222 27.1794L65.5534 27.4429L65.6086 27.6073C65.7217 27.9382 66.2535 27.9382 66.3655 27.6073L66.442 27.3791C66.3655 27.6049 66.5332 27.2314 66.5534 27.1794C66.8633 26.3449 65.1097 26.3449 65.4222 27.1794Z" fill="#0A1C2D"/>
<path d="M55.3908 33.1191C54.194 33.1191 54.194 34.7656 55.3908 34.7656C56.5872 34.7656 56.5872 33.1191 55.3908 33.1191Z" fill="#0A1C2D"/>
<path d="M32.9919 18.1193L32.9331 18.1334C32.396 18.2599 32.396 18.9679 32.9331 19.0944L32.9919 19.1086C33.4841 19.5814 34.4675 19.3201 34.4675 18.6133C34.4675 17.9077 33.4841 17.6465 32.9919 18.1193Z" fill="#0A1C2D"/>
<path d="M35.8701 6.61877C35.167 6.61877 34.9159 7.42015 35.4435 7.77711L35.4674 7.83739C35.6055 8.18962 36.1351 8.18962 36.2742 7.83739L36.2982 7.77711C36.8247 7.42015 36.5747 6.61877 35.8701 6.61877Z" fill="#0A1C2D"/>
<path d="M28.6203 11.1139C27.7776 11.1139 27.7776 12.2734 28.6203 12.2734C29.4629 12.2734 29.4629 11.1139 28.6203 11.1139Z" fill="#0A1C2D"/>
<path d="M23.6009 5.52543C22.538 5.52543 22.538 6.98633 23.6009 6.98633C24.6629 6.98633 24.6629 5.52543 23.6009 5.52543Z" fill="#0A1C2D"/>
<path d="M39.2177 11.8444C37.279 11.8444 37.279 14.5098 39.2177 14.5098C41.1557 14.5098 41.1557 11.8444 39.2177 11.8444Z" fill="#0A1C2D"/>
<path d="M73.885 36.1232C73.4819 36.044 73.6825 35.7639 73.5022 35.4932C73.1918 35.0216 72.4397 34.9365 72.0054 35.323C71.1527 36.0783 72.3309 37.0841 73.1997 36.5889C73.3839 36.6633 73.5673 36.7224 73.7945 36.7153C74.1673 36.7047 74.2715 36.2012 73.885 36.1232Z" fill="#0A1C2D"/>
<path d="M78.7727 34.5135C78.7621 34.6518 78.7929 34.7913 78.8107 34.9308C78.8929 35.5726 79.8512 35.5726 79.9341 34.9308C79.9523 34.7913 79.9809 34.6518 79.9727 34.5135C79.9216 33.828 78.8231 33.828 78.7727 34.5135Z" fill="#0A1C2D"/>
<path d="M82.7185 38.3172C81.892 38.3172 81.892 39.4531 82.7185 39.4531C83.5447 39.4531 83.5447 38.3172 82.7185 38.3172Z" fill="#0A1C2D"/>
<path d="M91.8189 40.7872C91.5845 40.7482 91.3273 40.5946 91.6705 40.8581C91.1621 40.4669 90.3115 40.7092 90.3115 41.3581C90.3115 42.0058 91.1621 42.2469 91.6705 41.8569C91.3273 42.1205 91.5845 41.9657 91.8189 41.9266C92.4569 41.8203 92.4569 40.896 91.8189 40.7872Z" fill="#0A1C2D"/>
<path d="M13.0442 20.4273L12.9129 20.2027L12.8385 20.0029C12.7223 19.6602 12.1733 19.6602 12.0566 20.0029L11.9827 20.2027L11.851 20.4273C11.501 21.3055 13.3947 21.3055 13.0442 20.4273Z" fill="#0A1C2D"/>
<path d="M22.4857 16.415C22.3581 16.4197 22.2321 16.4221 22.1045 16.4257C21.0758 16.454 21.0758 17.8121 22.1045 17.8405C22.2321 17.844 22.3581 17.8476 22.4857 17.8511C23.5305 17.8807 23.5305 16.3855 22.4857 16.415Z" fill="#0A1C2D"/>
<path d="M17.6787 11.1999C16.9965 11.3665 16.5841 12.0131 16.7721 12.6182C16.8559 12.8901 17.0767 13.1773 17.3689 13.3073C17.0038 13.1454 17.4189 13.3653 17.5382 13.4196C18.0559 13.6655 18.8293 13.5071 19.0538 12.9941C19.6945 12.2057 18.9445 10.8914 17.6787 11.1999Z" fill="#0A1C2D"/>
<path d="M125.361 65.1396C125.361 65.1396 84.0098 106.48 30.0614 101.507C-7.31996 98.0599 -10.2366 48.5294 28.6014 54.6473C88.3926 64.0652 118.947 51.3035 118.947 51.3035L125.361 65.1396Z" fill="#A8E3FA"/>
<path d="M125.361 65.1397L124.819 64.713C124.817 64.713 124.681 64.8501 124.404 65.116C122.321 67.1088 112.495 76.1663 97.4375 84.7108C82.3791 93.2576 62.1041 101.281 39.1181 101.278C36.1672 101.278 33.1713 101.146 30.1359 100.867C20.7072 99.9948 13.5624 96.1534 8.74 91.0225C3.9208 85.8927 1.4484 79.4581 1.45053 73.456C1.45053 68.4645 3.15413 63.7898 6.57867 60.3775C10.0063 56.9687 15.1531 54.7714 22.2577 54.7655C24.1853 54.7655 26.2567 54.9298 28.4744 55.2796C44.6317 57.8244 58.6661 58.7546 70.55 58.7546C102.759 58.7558 119.172 51.9193 119.255 51.8838L118.947 51.3035L118.276 51.547L124.691 65.3831L125.361 65.1397L126.031 64.895L119.325 50.4335L118.637 50.7219C118.637 50.7219 118.584 50.7444 118.461 50.7917C116.633 51.508 100.528 57.4698 70.55 57.4698C58.7515 57.4698 44.8025 56.5455 28.7281 54.0137C26.4344 53.6521 24.2787 53.4807 22.2577 53.4807C14.8167 53.4748 9.19733 55.8257 5.49533 59.5241C1.79 63.2189 0 68.2104 0 73.456C0.002 79.7677 2.58387 86.4719 7.626 91.8451C12.6656 97.2172 20.1885 101.245 29.9859 102.146C33.0719 102.43 36.1181 102.564 39.1181 102.564C64.0515 102.561 85.7375 93.3001 101.189 84.063C116.643 74.8224 125.876 65.5923 125.903 65.5652L126.203 65.2649L126.031 64.895L125.361 65.1397Z" fill="#0A1C2D"/>
<path d="M87.2479 61.7971C84.15 61.1861 81.0583 61.4378 77.9047 61.5477C73.3005 61.7073 68.5749 61.2251 63.9817 60.9579C54.3943 60.4012 44.8291 59.5786 35.2395 59.0455C25.9708 58.5302 4.23948 57.4711 6.62961 71.2754C6.65828 71.4385 6.93641 71.4869 7.04894 71.3664C8.61188 69.6951 9.41561 67.7165 10.8973 65.9719C13.326 63.1127 17.3828 62.3645 21.1599 62.0513C28.4807 61.4426 36.1895 62.3408 43.4916 62.8479C51.0181 63.3692 58.5333 64.0405 66.0749 64.3585C72.8572 64.6433 80.8427 64.9223 87.2615 62.6257C87.6771 62.4768 87.7615 61.8988 87.2479 61.7971Z" fill="white"/>
<path d="M39.1271 101.279C39.1228 101.279 39.1219 101.279 39.1176 101.279C36.1667 101.279 33.1708 101.147 30.1354 100.868C20.7067 99.9957 13.5619 96.1543 8.73951 91.0233C5.05618 87.1027 2.74431 82.4197 1.85938 77.7509C4.91191 80.1031 8.23911 82.2247 11.5714 84.2506C17.7484 88.0046 24.7906 90.6439 31.9547 92.5055C37.1552 93.8553 42.4395 94.4593 47.7182 94.4593C58.5006 94.4593 69.2562 91.9405 79.2078 88.1239C82.9406 86.6926 86.4572 85.117 89.7662 83.3488C90.3807 84.8333 91.014 86.3273 91.663 87.8202C77.3651 95.1047 59.288 101.279 39.1271 101.279Z" fill="#86C7E1"/>
<path d="M39.1182 101.922C36.1458 101.922 33.1198 101.788 30.061 101.507C12.702 99.9066 2.78229 88.3694 1.01562 77.0804C1.28229 77.2978 1.54843 77.513 1.82189 77.7222C1.83429 77.7316 1.84683 77.7411 1.85936 77.7505C2.74429 82.4193 5.05616 87.1023 8.73949 91.0229C13.5619 96.1539 20.7067 99.9953 30.1354 100.868C33.1708 101.147 36.1667 101.279 39.1176 101.279C39.1219 101.279 39.1228 101.279 39.1271 101.279C59.288 101.279 77.3651 95.1043 91.663 87.8198C91.7515 88.0231 91.8391 88.224 91.9282 88.4273C77.5667 95.7307 59.4088 101.922 39.1182 101.922Z" fill="#091A29"/>
<path d="M104.507 68.7209C104.507 68.7209 103.441 69.1878 101.548 69.9076C99.6587 70.6392 96.9379 71.6297 93.6265 72.7053C90.3197 73.7928 86.4123 74.9369 82.1817 76.0243C80.0697 76.5775 77.8562 77.0538 75.6218 77.5762C73.3593 78.0018 71.0833 78.5218 68.7702 78.8823C66.4551 79.2346 64.1577 79.6695 61.8577 79.8941C59.5671 80.1671 57.3161 80.4484 55.1166 80.5595C52.9233 80.7203 50.8046 80.8799 48.7858 80.868C46.7697 80.8787 44.8645 80.9969 43.1071 80.868C41.3514 80.7912 39.7415 80.7215 38.3145 80.66C36.8942 80.5359 35.6609 80.374 34.6426 80.2688C32.6093 80.0418 31.4473 79.9118 31.4473 79.9118C31.4473 79.9118 32.6119 80.0218 34.6499 80.2132C35.6691 80.3019 36.9035 80.4413 38.3243 80.5418C39.7499 80.5796 41.3582 80.621 43.1123 80.6671C44.8655 80.7652 46.7655 80.6151 48.7733 80.5702C50.7843 80.5465 52.8931 80.3527 55.0738 80.1541C57.2598 80.0076 59.4967 79.6872 61.7702 79.3764C64.0525 79.1152 66.3322 78.6424 68.6254 78.2523C70.9181 77.8552 73.1729 77.2973 75.4109 76.8363C77.6223 76.2784 79.8114 75.7678 81.8983 75.1827C86.0795 74.0291 89.9347 72.8259 93.1926 71.6912C96.4557 70.5683 99.1317 69.5388 100.983 68.7847C102.841 68.0389 103.867 67.5673 103.866 67.5673L104.507 68.7209Z" fill="#0A1C2D"/>
<path d="M39.8692 70.1458L39.7833 70.03L39.7823 70.0288C39.6796 69.8928 39.5765 69.7557 39.4729 69.6186L39.4062 69.6541C39.4953 69.7995 39.5833 69.9437 39.6719 70.0891L39.6713 70.0902L39.7468 70.2108L39.8427 70.2285L39.8692 70.1458Z" fill="#0A1C2D"/>
<path d="M35.3078 64.8053C34.9006 64.8561 34.5692 64.862 34.2058 65.0937C33.7651 65.3774 33.562 65.7095 33.5172 66.1894C33.425 67.1515 35.1583 67.5309 35.5875 66.6444C35.6391 66.5369 35.8094 66.1492 35.7468 66.2733L35.8839 66.0771L35.973 65.8714C36.0026 65.5996 36.0099 65.5807 35.9954 65.8171C36.2834 65.4152 35.8771 64.7344 35.3078 64.8053Z" fill="#0A1C2D"/>
<path d="M46.4472 66.0392C46.2399 65.8454 46.0337 65.6551 45.8217 65.4695C45.3529 65.0582 44.5311 65.4979 44.7201 66.057C44.8061 66.3111 44.9004 66.5617 44.9961 66.8134C45.4628 68.0297 47.4415 66.973 46.4472 66.0392Z" fill="#0A1C2D"/>
<path d="M55.5402 67.4611C54.384 68.0781 55.4636 69.6666 56.6183 69.0496C57.7746 68.4327 56.695 66.8441 55.5402 67.4611Z" fill="#0A1C2D"/>
<path d="M56.1533 62.6272L56.4195 62.7927L56.5627 62.9085C56.8528 63.1402 57.3075 62.8978 57.2117 62.5622L57.1451 62.3317C57.2101 62.5598 57.1372 62.1639 57.1231 62.1107C56.9044 61.2525 55.4012 62.0551 56.1533 62.6272Z" fill="#0A1C2D"/>
<path d="M51.0178 72.305C49.9929 72.8522 50.9512 74.2611 51.9768 73.7139C53.0017 73.1666 52.0445 71.7565 51.0178 72.305Z" fill="#0A1C2D"/>
<path d="M23.1036 69.7042L23.0599 69.7432C22.6734 70.0966 23.0859 70.7041 23.6192 70.5658L23.6791 70.5505C24.375 70.7313 25.0646 70.0564 24.6536 69.4524C24.2432 68.8472 23.2495 69.073 23.1036 69.7042Z" fill="#0A1C2D"/>
<path d="M18.8746 58.5341C18.2699 58.8568 18.5215 59.657 19.1814 59.722L19.2366 59.7622C19.5606 60.0009 20.0142 59.7586 19.9278 59.3922L19.9126 59.3307C20.1559 58.7847 19.4762 58.2126 18.8746 58.5341Z" fill="#0A1C2D"/>
<path d="M15.2784 65.7018C14.557 66.0872 15.2321 67.08 15.9534 66.6935C16.6764 66.3094 16.0013 65.3165 15.2784 65.7018Z" fill="#0A1C2D"/>
<path d="M7.72631 63.2084C6.81698 63.6966 7.66644 64.9459 8.57684 64.4601C9.48618 63.9744 8.63564 62.7238 7.72631 63.2084Z" fill="#0A1C2D"/>
<path d="M24.78 61.4792C23.1202 62.3657 24.6712 64.6493 26.3322 63.7616C27.9931 62.8751 26.4415 60.5928 24.78 61.4792Z" fill="#0A1C2D"/>
<path d="M68.6096 66.4174C68.2178 66.5332 68.2252 66.2011 67.9153 66.0522C67.3741 65.791 66.6793 66.0616 66.532 66.59C66.2424 67.6278 67.8366 67.9504 68.2929 67.1301C68.494 67.1089 68.6856 67.0758 68.8757 66.9658C69.1888 66.785 68.984 66.3063 68.6096 66.4174Z" fill="#0A1C2D"/>
<path d="M71.8579 62.8021C71.9303 62.9262 72.0376 63.0326 72.1335 63.1413C72.5772 63.6531 73.3986 63.2146 73.0954 62.6272C73.0319 62.5019 72.9751 62.3683 72.885 62.2537C72.4439 61.6899 71.5022 62.1922 71.8579 62.8021Z" fill="#0A1C2D"/>
<path d="M77.4537 64.259C76.7458 64.6361 77.4062 65.6089 78.1152 65.2306C78.8225 64.8536 78.1605 63.8808 77.4537 64.259Z" fill="#0A1C2D"/>
<path d="M86.6866 62.2093C86.4621 62.2826 86.1528 62.2696 86.6002 62.3381C85.9361 62.2365 85.3492 62.8322 85.7273 63.3865C86.1044 63.9421 86.9736 63.7612 87.1814 63.1927C87.0413 63.5757 87.1721 63.3263 87.3502 63.1844C87.8345 62.8015 87.2954 62.0095 86.6866 62.2093Z" fill="#0A1C2D"/>
<path d="M7.35673 80.8038L7.11407 80.6726L6.93487 80.5355C6.6354 80.2956 6.16567 80.5462 6.26567 80.8925L6.3178 81.0981L6.33593 81.3475C6.54687 82.2624 8.16873 81.396 7.35673 80.8038Z" fill="#0A1C2D"/>
<path d="M13.1093 73.0493L12.79 73.2325C11.9239 73.7277 12.7151 74.8908 13.6135 74.4452L13.9457 74.2797C14.8588 73.827 13.988 72.5446 13.1093 73.0493Z" fill="#0A1C2D"/>
<path d="M5.95579 70.7792C5.46725 71.2354 5.49019 71.9765 6.00379 72.4091C6.23392 72.603 6.59232 72.7483 6.91578 72.7259C6.50952 72.7554 6.99285 72.7519 7.12672 72.746C7.71418 72.7188 8.28298 72.2283 8.17778 71.6869C8.26778 70.7177 6.86005 69.9364 5.95579 70.7792Z" fill="#0A1C2D"/>
<path d="M179.889 4.59947C170.169 4.59947 161.401 12.4182 148.286 12.4182C135.173 12.4182 126.405 4.59947 116.686 4.59947C97.4737 4.59947 76.6508 28.9032 79.4696 48.4081C82.6113 70.1529 109.918 135.705 128.767 135.705C138.073 135.705 138.025 119.329 142.785 101.751C144.959 93.7167 149.309 92.7534 151.485 102.394C155.555 120.436 159.095 135.705 167.806 135.705C186.655 135.705 214.505 65.8871 217.105 48.4081C220.005 28.9138 198.607 4.59947 179.889 4.59947Z" fill="#F0FAFE"/>
<path d="M179.889 4.601V3.9592C174.801 3.96629 170.103 5.97919 165.071 7.92235C160.036 9.8726 154.677 11.7779 148.287 11.7767C141.897 11.7779 136.539 9.8726 131.504 7.92235C126.473 5.97919 121.773 3.96629 116.687 3.9592C107.339 3.9722 97.8363 9.45299 90.6281 17.2386C83.4243 25.0338 78.4931 35.181 78.4863 44.755C78.4863 46.0126 78.5718 47.2608 78.751 48.4924C80.3457 59.4883 87.9661 81.3075 97.5666 100.473C102.368 110.053 107.66 118.956 112.967 125.5C115.621 128.772 118.279 131.457 120.911 133.347C123.54 135.233 126.167 136.345 128.768 136.35C130.051 136.351 131.213 136.061 132.223 135.519C133.992 134.565 135.264 132.902 136.291 130.77C137.827 127.564 138.835 123.23 139.865 118.246C140.893 113.266 141.936 107.641 143.491 101.902C144.025 99.92 144.697 98.3976 145.391 97.419C145.736 96.9296 146.084 96.5798 146.393 96.3694C146.707 96.1578 146.959 96.0881 147.179 96.0869C147.395 96.0892 147.629 96.1531 147.931 96.3623C148.379 96.672 148.913 97.3256 149.409 98.3504C149.908 99.3739 150.377 100.76 150.775 102.52C152.811 111.545 154.712 119.888 157.224 126.036C158.484 129.111 159.891 131.643 161.599 133.453C163.295 135.257 165.375 136.354 167.807 136.35C170.425 136.344 173.059 135.156 175.7 133.162C180.321 129.662 185.061 123.607 189.677 116.23C196.595 105.167 203.192 91.1356 208.283 78.4199C213.373 65.6984 216.952 54.3301 217.824 48.4948C218.007 47.2596 218.095 46.0091 218.095 44.7479C218.088 35.1727 213.035 25.029 205.773 17.2351C198.504 9.45419 189.011 3.97456 179.889 3.9592V4.601V5.24399C188.328 5.22862 197.575 10.4494 204.656 18.0542C211.744 25.6484 216.652 35.577 216.644 44.7479C216.644 45.9559 216.56 47.1508 216.385 48.3257C215.751 52.6139 213.529 60.2483 210.265 69.2265C205.371 82.701 198.125 99.251 190.36 112.396C186.48 118.967 182.465 124.688 178.58 128.732C176.64 130.753 174.732 132.353 172.913 133.432C171.093 134.514 169.38 135.066 167.807 135.064C165.883 135.059 164.255 134.247 162.709 132.626C160.405 130.201 158.5 125.983 156.84 120.691C155.172 115.399 153.721 109.033 152.196 102.269C151.645 99.8373 150.963 98.0466 150.163 96.8079C149.76 96.1885 149.327 95.7039 148.833 95.3552C148.344 95.0077 147.771 94.7997 147.179 94.8021C146.576 94.8009 146.004 95.0125 145.511 95.3505C144.767 95.8611 144.141 96.6519 143.571 97.6955C143.003 98.7416 142.501 100.048 142.08 101.602C139.691 110.432 138.508 118.938 136.777 125.168C135.916 128.281 134.908 130.82 133.613 132.514C132.967 133.362 132.259 133.996 131.471 134.419C130.683 134.84 129.812 135.062 128.768 135.064C126.657 135.068 124.308 134.133 121.824 132.349C117.476 129.234 112.811 123.588 108.285 116.592C101.49 106.096 94.9686 92.5622 89.8989 79.8868C84.8281 67.2136 81.2046 55.3738 80.189 48.3281C80.0181 47.1544 79.9369 45.9606 79.9369 44.755C79.9301 35.5758 84.7218 25.6448 91.7494 18.053C98.7713 10.4494 108.005 5.2298 116.687 5.24399C121.317 5.23689 125.861 7.1328 130.923 9.09959C135.98 11.0569 141.563 13.0616 148.287 13.0628C155.012 13.0616 160.595 11.0569 165.652 9.09959C170.713 7.1328 175.257 5.23689 179.889 5.24399V4.601Z" fill="#0A1C2D"/>
<path d="M174.757 106.91C166.332 106.91 166.855 99.9318 165.249 92.4806C163.763 85.5897 159.469 81.0131 149.992 81.0131C149.451 81.0131 148.892 81.0285 148.317 81.058C130.012 82.0237 131.504 105.401 122.929 105.398C122.815 105.398 122.697 105.395 122.58 105.387C113.612 104.745 99.6999 55.6338 97.7437 48.5018C95.0614 38.7198 95.1869 26.5998 102.582 18.404C107.171 13.318 113.115 10.8193 119.703 10.8193C121.604 10.8193 123.559 11.0274 125.549 11.441V11.4422C124.748 11.2756 123.953 11.1443 123.165 11.0451C129.411 17.1299 138.643 21.7372 147.621 22.5799C148.664 22.6781 149.679 22.723 150.671 22.723C155.736 22.723 160.259 21.5528 165.324 20.2727C168.496 19.469 171.839 18.8378 175.135 18.8378C177.955 18.8378 180.74 19.3 183.359 20.5115C194.973 25.8883 200.469 39.1914 202.657 49.945C203.973 56.4092 204.905 63.0022 203.801 69.5421C203.465 71.5337 202.949 73.4733 202.325 75.381C205.764 68.4015 208.404 61.1052 209.403 54.4459C206.044 76.8396 184.145 106.435 175.641 106.887C175.336 106.902 175.041 106.91 174.757 106.91ZM209.404 54.4388C209.405 54.4247 209.408 54.4093 209.411 54.3951C209.408 54.4105 209.407 54.4235 209.404 54.4388ZM209.412 54.388C209.413 54.3726 209.416 54.3573 209.419 54.3419C209.416 54.3585 209.413 54.3715 209.412 54.388ZM209.42 54.3289C209.421 54.3183 209.423 54.3076 209.425 54.297C209.423 54.3088 209.421 54.3171 209.42 54.3289ZM209.428 54.2793C209.429 54.2698 209.431 54.2604 209.432 54.2509C209.431 54.2592 209.429 54.2698 209.428 54.2793ZM209.453 54.1008C209.453 54.0984 209.455 54.0949 209.455 54.0913C209.453 54.0949 209.453 54.0984 209.453 54.1008ZM209.459 54.0594C209.459 54.057 209.46 54.0559 209.46 54.0535C209.46 54.0571 209.46 54.057 209.459 54.0594ZM209.829 48.2039C209.829 48.1992 209.829 48.1945 209.829 48.1897C209.829 48.1945 209.829 48.198 209.829 48.2039Z" fill="#FAFDFF"/>
<path d="M147.621 22.5817C153.982 23.1786 159.265 21.8064 165.324 20.2745C171.209 18.7852 177.678 17.8846 183.358 20.5133C194.973 25.8901 200.469 39.1932 202.657 49.9468C203.973 56.411 204.905 63.004 203.801 69.5439C203.465 71.5355 202.949 73.4751 202.325 75.3828C206.91 66.0771 210.074 56.2053 209.824 48.0319C209.508 37.679 204.562 26.0319 199.07 16.9212C195.464 10.9405 188.245 7.51156 180.637 7.75741C171.225 8.06117 162.818 13.6141 154.84 17.4555C144.092 22.629 136.188 13.9781 126.5 11.6556C125.377 11.3872 124.264 11.1851 123.165 11.0468C129.41 17.1316 138.642 21.739 147.621 22.5817Z" fill="white"/>
<path d="M145.33 18.8496C138.902 17.7811 133.117 13.2411 126.5 11.6549C126.181 11.5793 125.865 11.5084 125.549 11.4422C123.334 9.45885 121.237 7.37501 119.022 5.39402C122.864 5.87745 126.714 7.46367 130.922 9.09952C135.98 11.0569 141.562 13.0615 148.286 13.0627C154.606 13.0627 159.917 11.2921 164.73 9.45293C161.65 14.4349 154.101 17.5376 147.245 18.6144C146.609 18.7137 145.97 18.7929 145.33 18.8496Z" fill="#D3F1FC"/>
<path d="M148.286 13.0645C141.562 13.0633 135.979 11.0586 130.922 9.10129C126.714 7.46544 122.863 5.87923 119.022 5.3958C118.75 5.15113 118.475 4.90884 118.199 4.6689C127.331 5.4029 135.857 12.4215 148.286 12.4215C154.783 12.4215 160.215 10.5019 165.223 8.56467C165.074 8.86844 164.91 9.16512 164.73 9.4547C159.917 11.2939 154.606 13.0645 148.286 13.0645Z" fill="#0A1D2D"/>
<path d="M126.499 11.6549C126.182 11.5793 125.865 11.5084 125.549 11.4434V11.4422C125.865 11.5084 126.181 11.5793 126.499 11.6549Z" fill="#DCF4FD"/>
<path d="M142.882 18.959C138.263 18.959 133.747 17.7664 130.069 15.1235C128.471 13.9746 126.986 12.73 125.549 11.4428C125.865 11.5078 126.182 11.5787 126.499 11.6544C133.117 13.2406 138.902 17.7806 145.33 18.8491C144.514 18.9224 143.697 18.959 142.882 18.959Z" fill="#E0F5FD"/>
<path d="M128.753 135.064C126.646 135.064 124.301 134.13 121.823 132.349C117.475 129.235 112.81 123.589 108.285 116.593C101.489 106.097 94.9679 92.5631 89.8982 79.8876C86.0159 70.186 82.982 60.9713 81.3174 54.0237C94.7455 79.4515 111.423 105.514 115.249 109.43C117.669 111.908 119.779 115.909 123.865 115.909C123.903 115.909 123.941 115.909 123.979 115.908C131.897 115.76 133.013 108.045 133.949 102.611C134.951 96.7863 139.575 90.7724 145.302 87.8305C146.91 87.0043 148.829 86.5799 150.739 86.5799C152.215 86.5799 153.686 86.8329 155.005 87.3494C158.025 88.5314 158.459 92.9059 159.11 95.3856C160.494 100.655 161.115 109.686 168.365 111.427C169.282 111.647 170.233 111.749 171.202 111.749C178.035 111.749 185.765 106.698 188.874 102.603C195.737 93.5607 201.598 86.4547 207.494 76.5355C202.823 88.3801 196.767 101.548 190.359 112.397C186.479 118.968 182.465 124.689 178.579 128.733C176.639 130.754 174.731 132.354 172.913 133.433C171.095 134.514 169.383 135.064 167.811 135.064C167.81 135.064 167.809 135.064 167.806 135.064C165.882 135.06 164.254 134.248 162.709 132.627C160.405 130.202 158.499 125.983 156.839 120.692C155.171 115.4 153.721 109.034 152.195 102.269C151.645 99.8381 150.962 98.0474 150.162 96.8087C149.759 96.1894 149.326 95.7048 148.833 95.3561C148.345 95.0098 147.774 94.8029 147.185 94.8029C147.182 94.8029 147.181 94.8029 147.178 94.8029C147.178 94.8029 147.177 94.8029 147.175 94.8029C146.574 94.8029 146.002 95.0133 145.51 95.3514C144.766 95.862 144.141 96.6527 143.57 97.6964C143.002 98.7424 142.501 100.049 142.079 101.603C139.69 110.433 138.507 118.939 136.777 125.169C135.915 128.282 134.907 130.821 133.613 132.515C132.966 133.362 132.258 133.997 131.47 134.42C130.682 134.841 129.811 135.063 128.767 135.064C128.763 135.064 128.758 135.064 128.753 135.064Z" fill="#D3F1FC"/>
<path d="M167.807 135.705C159.096 135.705 155.556 120.436 151.485 102.394C150.407 97.6172 148.796 95.4435 147.179 95.4435C145.533 95.4435 143.883 97.6976 142.785 101.751C138.025 119.329 138.073 135.705 128.768 135.705C110.76 135.705 85.0311 75.8689 80.0332 51.5699C80.4581 52.3867 80.8857 53.2022 81.318 54.0213C82.9827 60.969 86.0165 70.1836 89.8988 79.8852C94.9685 92.5607 101.49 106.094 108.285 116.59C112.811 123.586 117.476 129.233 121.824 132.347C124.301 134.127 126.647 135.062 128.753 135.062C128.759 135.062 128.764 135.062 128.768 135.062C129.812 135.061 130.683 134.839 131.471 134.418C132.259 133.995 132.967 133.36 133.613 132.513C134.908 130.819 135.916 128.28 136.777 125.167C138.508 118.936 139.691 110.431 142.08 101.6C142.501 100.046 143.003 98.7401 143.571 97.694C144.141 96.6503 144.767 95.8596 145.511 95.349C146.003 95.0109 146.575 94.8005 147.176 94.8005C147.177 94.8005 147.179 94.8005 147.179 94.8005C147.181 94.8005 147.183 94.8005 147.185 94.8005C147.775 94.8005 148.345 95.0074 148.833 95.3537C149.327 95.7024 149.76 96.187 150.163 96.8063C150.963 98.0451 151.645 99.8358 152.196 102.267C153.721 109.031 155.172 115.398 156.84 120.689C158.5 125.981 160.405 130.199 162.709 132.625C164.255 134.245 165.883 135.057 167.807 135.062C167.809 135.062 167.811 135.062 167.812 135.062C169.384 135.062 171.096 134.511 172.913 133.431C174.732 132.352 176.64 130.751 178.58 128.73C182.465 124.687 186.48 118.966 190.36 112.394C196.768 101.546 202.824 88.3777 207.495 76.5332C208.275 75.2212 209.055 73.8607 209.839 72.4388C199.741 99.259 181.425 135.705 167.807 135.705Z" fill="#0A1D2D"/>
<path d="M162.445 10.3606C162.445 10.3606 162.013 10.4882 161.26 10.7128C160.891 10.8334 160.408 10.9445 159.916 11.1359C159.413 11.318 158.847 11.5236 158.229 11.7482C156.973 12.1914 155.519 12.7872 153.905 13.3096C153.099 13.5708 152.283 13.8793 151.423 14.1228C150.563 14.3616 149.688 14.6038 148.813 14.8461C147.949 15.1168 147.032 15.2303 146.161 15.4265C145.279 15.5837 144.428 15.8166 143.575 15.9005C142.725 15.9974 141.904 16.0908 141.125 16.1794C140.345 16.2503 139.617 16.3946 138.931 16.3792C136.2 16.4418 134.38 16.4844 134.38 16.4844C134.38 16.4844 136.192 16.3614 138.909 16.1782C139.591 16.1652 140.309 15.9891 141.079 15.8839C141.844 15.7622 142.652 15.6345 143.487 15.501C144.324 15.3816 145.156 15.1133 146.016 14.9194C146.867 14.6866 147.757 14.5388 148.596 14.2327C149.444 13.9561 150.291 13.6807 151.124 13.4077C151.955 13.1311 152.747 12.7907 153.525 12.4988C155.085 11.9137 156.488 11.2612 157.741 10.7542C158.371 10.493 158.949 10.253 159.463 10.0403C159.975 9.81568 160.427 9.69277 160.797 9.5533C161.537 9.29563 161.961 9.14905 161.961 9.14905C162.335 9.01903 162.755 9.18215 162.901 9.5131C163.048 9.84405 162.864 10.2164 162.491 10.3464L162.46 10.3558L162.445 10.3606Z" fill="#0A1C2D"/>
<path d="M105.803 12.3232C104.658 12.2487 103.268 13.1777 102.41 13.777C101.207 14.6162 100.451 15.583 99.7637 16.7757L99.8809 16.8359C100.605 15.7958 101.677 14.9212 102.767 14.186C103.717 13.5477 105.103 13.2959 105.918 12.5679C106.022 12.4745 105.94 12.3326 105.803 12.3232Z" fill="#0A1C2D"/>
<path d="M107.089 13.2521C105.665 13.4802 104.085 14.1551 103.374 15.3229L103.49 15.4258C104.665 14.6823 105.901 14.2202 107.318 13.992C107.869 13.9046 107.636 13.1647 107.089 13.2521Z" fill="#0A1C2D"/>
<path d="M105.682 98.6946C105.125 98.0575 104.387 97.6167 103.775 97.0198C103.022 96.2858 102.437 95.3768 102.228 94.3981L102.129 94.4088C101.905 96.1947 103.403 98.7017 105.622 98.8223L105.682 98.6946Z" fill="#0A1C2D"/>
<path d="M108.406 97.7234C107.343 96.8877 105.849 96.5379 104.97 95.4942L104.815 95.5533C105.194 96.9291 106.781 97.8629 108.341 97.8652L108.406 97.7234Z" fill="#0A1C2D"/>
<path d="M195.699 89.1739C195.063 90.3039 194.837 91.5828 194.176 92.7305C193.536 93.8439 192.615 94.7907 191.865 95.8414L191.912 95.8828C193.989 94.637 196.239 91.5568 196.095 89.2685C196.084 89.0947 195.799 88.9943 195.699 89.1739Z" fill="#0A1C2D"/>
<path d="M194.572 87.3053L194.308 87.2745C193.855 87.8703 193.813 88.5463 193.651 89.2354C193.488 89.9222 193.263 90.6585 192.968 91.3074C192.875 91.5107 193.217 91.6029 193.339 91.4469C194.189 90.3725 195.129 88.6326 194.572 87.3053Z" fill="#0A1C2D"/>
<path d="M182.533 8.03129C181.105 7.10935 178.894 7.3091 177.355 7.91073L177.394 8.03602C178.165 8.03248 178.926 7.96629 179.697 7.95211C180.643 7.93556 181.533 8.17786 182.47 8.24168C182.609 8.25232 182.626 8.09157 182.533 8.03129Z" fill="#0A1C2D"/>
<path d="M184.378 9.98425C183.222 9.09777 181.652 9.02803 180.254 9.44527C180.099 9.49136 180.114 9.72894 180.294 9.71121C181.33 9.60838 182.319 9.7975 183.243 10.2218C183.528 10.3542 184.336 10.9275 184.483 10.3388C184.512 10.2171 184.491 10.0705 184.378 9.98425Z" fill="#0A1C2D"/>
<path d="M143.931 48.6621C143.931 52.1229 140.767 54.9277 136.863 54.9277C132.958 54.9277 129.794 52.1229 129.794 48.6621C129.794 45.2013 132.958 42.3953 136.863 42.3953C140.767 42.3953 143.931 45.2013 143.931 48.6621Z" fill="#0A1C2D"/>
<path d="M141.574 50.5081C141.574 51.5281 140.642 52.3555 139.492 52.3555C138.34 52.3555 137.406 51.5281 137.406 50.5081C137.406 49.488 138.34 48.6606 139.492 48.6606C140.642 48.6606 141.574 49.488 141.574 50.5081Z" fill="white"/>
<path d="M138.752 47.4707C138.752 48.1278 138.149 48.6621 137.406 48.6621C136.664 48.6621 136.062 48.1278 136.062 47.4707C136.062 46.8123 136.664 46.2781 137.406 46.2781C138.149 46.2781 138.752 46.8123 138.752 47.4707Z" fill="white"/>
<path d="M181.119 48.6621C181.119 52.1229 184.284 54.9277 188.187 54.9277C192.091 54.9277 195.256 52.1229 195.256 48.6621C195.256 45.2013 192.091 42.3953 188.187 42.3953C184.284 42.3953 181.119 45.2013 181.119 48.6621Z" fill="#0A1C2D"/>
<path d="M183.476 50.5081C183.476 51.5281 184.409 52.3555 185.56 52.3555C186.712 52.3555 187.644 51.5281 187.644 50.5081C187.644 49.488 186.712 48.6606 185.56 48.6606C184.409 48.6606 183.476 49.488 183.476 50.5081Z" fill="white"/>
<path d="M186.301 47.4707C186.301 48.1278 186.903 48.6621 187.643 48.6621C188.387 48.6621 188.989 48.1278 188.989 47.4707C188.989 46.8123 188.387 46.2781 187.643 46.2781C186.903 46.2781 186.301 46.8123 186.301 47.4707Z" fill="white"/>
<path d="M197.582 37.4675C197.074 35.685 195.793 34.334 194.234 33.4748C192.67 32.6107 190.832 32.1994 189.041 32.1982C187.366 32.1994 185.721 32.5576 184.376 33.3353C183.034 34.1036 182.01 35.3576 181.796 36.9439C181.721 37.4722 182.144 37.9544 182.74 38.0206C183.336 38.0868 183.878 37.711 183.954 37.1838C184.104 36.1791 184.668 35.4829 185.569 34.9475C186.468 34.4215 187.722 34.1237 189.041 34.126C190.452 34.1237 191.918 34.4629 193.081 35.1094C194.246 35.7619 195.109 36.6826 195.474 37.9426C195.622 38.4591 196.214 38.7712 196.796 38.64C197.378 38.5088 197.73 37.984 197.582 37.4675Z" fill="#0A1C2D"/>
<path d="M130.289 37.9426C130.656 36.6826 131.517 35.7619 132.684 35.1094C133.845 34.4629 135.312 34.1237 136.723 34.126C138.041 34.1237 139.295 34.4215 140.195 34.9475C141.096 35.4829 141.659 36.1803 141.811 37.1838C141.885 37.7121 142.429 38.0868 143.025 38.0206C143.62 37.9544 144.043 37.4722 143.968 36.9439C143.752 35.3576 142.728 34.1036 141.387 33.3353C140.043 32.5576 138.396 32.1994 136.723 32.1982C134.932 32.1994 133.092 32.6107 131.531 33.4748C129.971 34.334 128.689 35.685 128.181 37.4675C128.033 37.984 128.385 38.5088 128.968 38.64C129.549 38.7712 130.141 38.4591 130.289 37.9426Z" fill="#0A1C2D"/>
<path d="M151.802 64.9954C151.802 75.762 169.926 75.762 169.926 64.9954H151.802Z" fill="#DF434D"/>
<path d="M151.803 64.9958H151.077C151.071 67.8479 152.297 70.07 154.151 71.531C156.003 72.9954 158.439 73.7129 160.864 73.7129C163.289 73.7129 165.725 72.9954 167.577 71.531C169.431 70.07 170.657 67.8479 170.652 64.9958V64.3528H151.077V64.9958H151.803V65.6388H169.927V64.9958H169.201C169.196 67.5276 168.156 69.3419 166.611 70.5724C165.064 71.8005 162.969 72.4281 160.864 72.4281C158.757 72.4281 156.664 71.8005 155.117 70.5724C153.572 69.3419 152.533 67.5276 152.527 64.9958H151.803Z" fill="#0A1C2D"/>
<path d="M166.626 67.4043C169.18 67.4043 169.926 66.3086 169.926 64.9966H151.802C151.802 66.3086 154.61 67.4043 156.059 67.4043C157.508 67.4043 164.07 67.4043 166.626 67.4043Z" fill="white"/>
<path d="M166.626 67.4039V68.0469C168.012 68.0481 169.052 67.7467 169.741 67.1509C170.43 66.5552 170.654 65.7515 170.652 64.9962V64.3532H151.077V64.9962C151.078 65.5352 151.361 65.9914 151.72 66.3507C152.265 66.8921 153.018 67.2892 153.796 67.58C154.576 67.8672 155.366 68.0421 156.06 68.0469C157.509 68.0469 164.07 68.0469 166.626 68.0469V67.4039V66.7609C164.07 66.7609 157.509 66.7609 156.06 66.7609C155.528 66.768 154.513 66.5209 153.741 66.1309C153.35 65.9382 153.016 65.7113 152.806 65.4997C152.593 65.2846 152.525 65.1132 152.526 64.9962H151.802V65.6392H169.926V64.9962H169.201C169.198 65.5529 169.049 65.9524 168.728 66.2314C168.406 66.5127 167.796 66.7597 166.626 66.7609V67.4039Z" fill="#0A1C2D"/>
<path d="M197.068 61.891C197.068 63.6061 194.025 64.9961 190.272 64.9961C186.52 64.9961 183.476 63.6061 183.476 61.891C183.476 60.1748 186.52 58.7848 190.272 58.7848C194.025 58.7848 197.068 60.1748 197.068 61.891Z" fill="#F9ADB3"/>
<path d="M142.86 61.891C142.86 63.6061 139.816 64.9961 136.062 64.9961C132.309 64.9961 129.268 63.6061 129.268 61.891C129.268 60.1748 132.309 58.7848 136.062 58.7848C139.816 58.7848 142.86 60.1748 142.86 61.891Z" fill="#F9ADB3"/>
<path d="M169.23 63.8937C169.583 64.9646 170.325 65.6336 170.962 66.0012C171.602 66.3723 172.139 66.4716 172.199 66.4834C172.591 66.5532 172.974 66.3274 173.053 65.9799C173.131 65.6324 172.877 65.2932 172.485 65.2235L172.406 65.5686L172.491 65.2246L172.485 65.2235L172.406 65.5686L172.491 65.2246C172.49 65.2246 172.403 65.2069 172.261 65.1573C172.045 65.084 171.718 64.9386 171.41 64.6857C171.101 64.4304 170.803 64.0758 170.621 63.5297C170.507 63.1893 170.105 62.9954 169.721 63.0959C169.337 63.1952 169.117 63.5533 169.23 63.8937Z" fill="#0A1C2D"/>
<path d="M151.106 63.5297C150.854 64.2779 150.388 64.6786 149.968 64.928C149.76 65.0497 149.564 65.1265 149.426 65.1715L149.272 65.2164L149.24 65.2235L149.236 65.2246L149.318 65.5615L149.242 65.2235L149.236 65.2246L149.318 65.5615L149.242 65.2235C148.849 65.2932 148.596 65.6312 148.674 65.9799C148.753 66.3274 149.136 66.5532 149.528 66.4834C149.588 66.4716 150.125 66.3723 150.765 66.0012C151.402 65.6336 152.144 64.9646 152.497 63.8937C152.61 63.5533 152.39 63.1952 152.006 63.0959C151.622 62.9954 151.22 63.1893 151.106 63.5297Z" fill="#0A1C2D"/>
<path d="M162.342 74.8992C161.572 75.0528 160.841 75.1439 160.05 75.1604C159.824 75.1651 158.941 75.1533 158.882 75.4843C158.8 75.9417 159.445 76.2585 159.866 76.3542C160.806 76.5681 161.852 76.5551 162.758 76.236C163.68 75.9121 163.346 74.6971 162.342 74.8992Z" fill="#0A1C2D"/>
<path d="M181.933 58.3475C181.621 58.3475 181.621 58.7754 181.933 58.7754C182.245 58.7754 182.245 58.3475 181.933 58.3475Z" fill="#0A1C2D"/>
<path d="M184.319 57.9825C183.163 57.9825 183.163 59.5723 184.319 59.5723C185.475 59.5723 185.475 57.9825 184.319 57.9825Z" fill="#0A1C2D"/>
<path d="M189.232 57.674C188.648 57.674 188.648 58.4766 189.232 58.4766C189.817 58.4766 189.817 57.674 189.232 57.674Z" fill="#0A1C2D"/>
<path d="M187.378 59.2731C186.482 59.2731 186.482 60.5059 187.378 60.5059C188.275 60.5059 188.275 59.2731 187.378 59.2731Z" fill="#0A1C2D"/>
<path d="M191.332 59.6758C190.335 59.6758 190.335 61.0469 191.332 61.0469C192.331 61.0469 192.331 59.6758 191.332 59.6758Z" fill="#0A1C2D"/>
<path d="M193.826 57.002C193.034 57.002 193.034 58.0918 193.826 58.0918C194.62 58.0918 194.62 57.002 193.826 57.002Z" fill="#0A1C2D"/>
<path d="M197.459 57.8365C196.84 57.8365 196.84 58.6875 197.459 58.6875C198.079 58.6875 198.079 57.8365 197.459 57.8365Z" fill="#0A1C2D"/>
<path d="M197.181 60.558C196.929 60.558 196.929 60.9043 197.181 60.9043C197.433 60.9043 197.433 60.558 197.181 60.558Z" fill="#0A1C2D"/>
<path d="M183.796 61.9245C183.25 61.9245 183.25 62.6738 183.796 62.6738C184.342 62.6738 184.342 61.9245 183.796 61.9245Z" fill="#0A1C2D"/>
<path d="M181.34 60.0024C180.846 60.0024 180.846 60.6797 181.34 60.6797C181.834 60.6797 181.834 60.0024 181.34 60.0024Z" fill="#0A1C2D"/>
<path d="M187.506 62.5733C187.365 62.5733 187.365 62.7695 187.506 62.7695C187.65 62.7695 187.65 62.5733 187.506 62.5733Z" fill="#0A1C2D"/>
<path d="M190.389 61.9399C190.128 61.9399 190.128 62.2969 190.389 62.2969C190.648 62.2969 190.648 61.9399 190.389 61.9399Z" fill="#0A1C2D"/>
<path d="M129.349 58.3475C129.039 58.3475 129.039 58.7754 129.349 58.7754C129.661 58.7754 129.661 58.3475 129.349 58.3475Z" fill="#0A1C2D"/>
<path d="M131.735 57.9825C130.579 57.9825 130.579 59.5723 131.735 59.5723C132.892 59.5723 132.892 57.9825 131.735 57.9825Z" fill="#0A1C2D"/>
<path d="M136.649 57.674C136.064 57.674 136.064 58.4766 136.649 58.4766C137.233 58.4766 137.233 57.674 136.649 57.674Z" fill="#0A1C2D"/>
<path d="M134.794 59.2731C133.898 59.2731 133.898 60.5059 134.794 60.5059C135.691 60.5059 135.691 59.2731 134.794 59.2731Z" fill="#0A1C2D"/>
<path d="M138.749 59.6758C137.75 59.6758 137.75 61.0469 138.749 61.0469C139.746 61.0469 139.746 59.6758 138.749 59.6758Z" fill="#0A1C2D"/>
<path d="M141.242 57.002C140.45 57.002 140.45 58.0918 141.242 58.0918C142.036 58.0918 142.036 57.002 141.242 57.002Z" fill="#0A1C2D"/>
<path d="M144.875 57.8365C144.256 57.8365 144.256 58.6875 144.875 58.6875C145.494 58.6875 145.494 57.8365 144.875 57.8365Z" fill="#0A1C2D"/>
<path d="M144.597 60.558C144.345 60.558 144.345 60.9043 144.597 60.9043C144.851 60.9043 144.851 60.558 144.597 60.558Z" fill="#0A1C2D"/>
<path d="M131.213 61.9245C130.666 61.9245 130.666 62.6738 131.213 62.6738C131.758 62.6738 131.758 61.9245 131.213 61.9245Z" fill="#0A1C2D"/>
<path d="M128.756 60.0024C128.262 60.0024 128.262 60.6797 128.756 60.6797C129.25 60.6797 129.25 60.0024 128.756 60.0024Z" fill="#0A1C2D"/>
<path d="M134.923 62.5733C134.781 62.5733 134.781 62.7695 134.923 62.7695C135.066 62.7695 135.066 62.5733 134.923 62.5733Z" fill="#0A1C2D"/>
<path d="M137.805 61.9399C137.544 61.9399 137.544 62.2969 137.805 62.2969C138.064 62.2969 138.064 61.9399 137.805 61.9399Z" fill="#0A1C2D"/>
<path d="M98.517 62.5971C97.0883 63.0982 95.1898 64.1821 93.0736 65.7553C89.9086 68.1133 86.2997 71.5682 83.4637 75.7607C80.6304 79.9508 78.5679 84.8879 78.5664 90.189C78.5596 96.4145 81.4451 103.106 89.1012 109.506C89.3924 109.749 89.8512 109.739 90.1263 109.48C90.4012 109.222 90.3888 108.816 90.0976 108.572C82.6784 102.352 80.0236 96.0587 80.017 90.189C80.0127 83.5239 83.4966 77.3481 87.6564 72.6166C89.7336 70.2527 91.9741 68.2516 94.0064 66.7387C96.0331 65.2258 97.8727 64.1986 99.0471 63.7932C99.4195 63.6632 99.6028 63.2897 99.457 62.9599C99.3107 62.629 98.8897 62.467 98.5175 62.5971" fill="#0A1C2D"/>
<path d="M102.343 64.9327C102.649 67.0106 96.6057 70.1074 96.6057 70.1074C96.6057 70.1074 90.2041 66.688 90.8562 61.8194C91.4885 61.1623 93.5879 58.4957 98.0207 58.0844" fill="#F0FAFE"/>
<path d="M101.623 65.0158L101.628 65.089C101.643 65.3361 101.396 65.8219 100.9 66.3337C100.169 67.1067 98.9913 67.9317 98.0074 68.5392C97.5153 68.8453 97.0705 69.1007 96.7506 69.2768C96.5907 69.3666 96.4621 69.4352 96.3741 69.4824L96.2418 69.5522L96.6049 70.1077L96.9787 69.5581L96.9267 69.5285C96.6423 69.3701 95.2554 68.5605 93.971 67.3088C92.6793 66.0535 91.5273 64.3846 91.533 62.5171C91.533 62.3126 91.5459 62.1057 91.5746 61.8977L90.8554 61.8197L91.4069 62.2369C91.5887 62.0466 91.8194 61.7783 92.1563 61.4474C93.1658 60.4604 95.0054 59.0125 98.0954 58.7229C98.4934 58.6863 98.7825 58.3707 98.7413 58.0173C98.6997 57.6639 98.3429 57.4074 97.9449 57.4452C95.5762 57.6639 93.8054 58.4948 92.5669 59.3529C91.9459 59.782 91.4554 60.2169 91.0798 60.5857C90.7063 60.9533 90.4382 61.2642 90.3038 61.4025L90.1621 61.5502L90.1355 61.7417C90.0991 62.0053 90.083 62.2641 90.083 62.5171C90.0907 65.0217 91.673 67.0476 93.1839 68.4435C94.7033 69.8429 96.197 70.6396 96.2303 70.6585L96.5959 70.8535L96.9673 70.6644C96.9839 70.6549 98.4407 69.9091 99.9251 68.882C100.668 68.3667 101.418 67.7828 102.01 67.161C102.591 66.537 103.063 65.8774 103.078 65.089L103.061 64.8503C103.01 64.4992 102.645 64.251 102.249 64.2959C101.852 64.342 101.572 64.6647 101.624 65.0158" fill="#0A1C2D"/>
<path d="M88.6794 108.437C85.7717 111.2 89.9904 115.377 91.419 116.004C93.595 116.959 96.5149 115.741 96.6504 114.172C96.7732 112.742 94.1701 110.231 94.1701 110.231C94.1701 110.231 96.1857 109.292 95.5789 108.922C93.5498 107.686 90.367 106.835 88.6794 108.437Z" fill="#F0FAFE"/>
<path d="M88.6796 108.438L88.15 107.999C87.3083 108.791 86.949 109.746 86.9542 110.661C86.9624 112.066 87.7083 113.377 88.5583 114.424C88.9864 114.948 89.4463 115.405 89.8812 115.77C90.3208 116.137 90.7156 116.41 91.0968 116.58C91.7416 116.864 92.4307 116.984 93.0984 116.984C94.1307 116.982 95.1182 116.702 95.902 116.233C96.6776 115.765 97.2916 115.079 97.3734 114.221V114.216L97.3796 114.071C97.3744 113.547 97.175 113.059 96.9192 112.583C96.1432 111.171 94.7239 109.82 94.7036 109.796L94.1703 110.231L94.5072 110.799C94.5214 110.793 94.9176 110.609 95.3406 110.352C95.5531 110.223 95.7714 110.079 95.9676 109.906C96.0662 109.818 96.1604 109.722 96.2458 109.599C96.3282 109.478 96.4146 109.318 96.4176 109.094C96.4187 108.959 96.3766 108.806 96.2938 108.681C96.2115 108.555 96.0984 108.459 95.9875 108.391L95.9895 108.393C94.652 107.584 92.9006 106.923 91.1859 106.915C90.0922 106.912 88.9687 107.215 88.149 107.999L88.6796 108.438L89.2104 108.875C89.7094 108.404 90.3619 108.206 91.1859 108.201C92.4578 108.194 94.0334 108.754 95.1682 109.452L95.1703 109.453L95.4239 109.123L95.037 109.322L95.1703 109.453L95.4239 109.123L95.037 109.322L95.4848 109.092L94.9672 109.094L95.037 109.322L95.4848 109.092L94.9672 109.094H95.3094L95.0083 108.93C95.0093 108.932 94.9703 108.974 94.9672 109.094H95.3094L95.0083 108.93L94.8135 109.099C94.6364 109.231 94.3823 109.378 94.1796 109.486L93.9271 109.616L93.8328 109.662L92.9995 110.05L93.6364 110.666L93.7328 110.761C93.9572 110.987 94.5348 111.589 95.0395 112.265C95.2916 112.602 95.5255 112.957 95.687 113.281C95.851 113.605 95.9328 113.898 95.9291 114.071L95.9276 114.128V114.123C95.9058 114.449 95.6234 114.847 95.088 115.169C94.5615 115.488 93.8244 115.701 93.0984 115.698C92.626 115.698 92.1615 115.613 91.7406 115.429C91.5843 115.363 91.2427 115.146 90.8791 114.838C90.3271 114.375 89.6895 113.7 89.2078 112.953C88.7224 112.206 88.4015 111.391 88.4047 110.661C88.4099 110.02 88.6192 109.443 89.2094 108.876L88.6796 108.438Z" fill="#0A1C2D"/>
</g>
</svg>
