<svg width="163" height="171" viewBox="0 0 163 171" fill="none" xmlns="http://www.w3.org/2000/svg">
<g opacity="0.2">
<path d="M100.148 6.98151C90.5608 8.57513 83.3586 18.7133 70.4204 20.864C57.4833 23.0144 47.3891 15.7513 37.8004 17.3452C18.8489 20.4954 2.80444 50.9546 9.19193 72.1975C16.3135 95.8784 55.3768 164.348 73.9711 161.257C83.1493 159.731 80.0741 141.514 81.5173 121.174C82.1758 111.878 86.289 110.091 90.2175 120.463C97.5704 139.872 103.889 156.284 112.481 154.856C131.076 151.765 145.632 69.5029 144.964 49.6289C144.217 27.4604 118.614 3.91209 100.148 6.98151Z" fill="#F0FAFE"/>
<path d="M100.148 6.98126L100.029 6.26576C95.0123 7.10777 90.749 10.1196 86.1455 13.1056C81.5393 16.1028 76.6056 19.1003 70.3014 20.1482C63.9979 21.196 58.3598 19.9557 53.0321 18.6098C47.7103 17.2737 42.7014 15.8031 37.6815 16.6294C28.4631 18.178 20.1036 25.835 14.4329 35.6808C8.7697 45.5362 5.78155 57.6366 7.54627 68.2913C7.77892 69.6909 8.09388 71.0645 8.4979 72.4055C12.1053 84.3818 23.6584 107.412 36.6736 127.166C43.1825 137.037 50.0493 146.076 56.4947 152.489C59.7194 155.695 62.8375 158.248 65.7838 159.92C68.7259 161.585 71.5228 162.393 74.09 161.972C75.3557 161.763 76.4494 161.25 77.3438 160.481C78.9119 159.128 79.8592 157.07 80.4785 154.529C81.4012 150.71 81.5931 145.722 81.6881 140.007C81.7813 134.295 81.7686 127.866 82.2401 121.224C82.4014 118.932 82.783 117.127 83.2859 115.925C83.535 115.324 83.8142 114.876 84.0812 114.592C84.3509 114.306 84.5862 114.187 84.8032 114.149C85.0167 114.115 85.2605 114.149 85.5959 114.331C86.0947 114.604 86.7433 115.243 87.4215 116.302C88.103 117.36 88.8223 118.826 89.5395 120.719C93.218 130.427 96.6375 139.399 100.253 145.829C102.064 149.043 103.92 151.63 105.939 153.364C107.947 155.095 110.202 155.975 112.6 155.571C115.181 155.135 117.56 153.38 119.797 150.729C123.708 146.077 127.263 138.561 130.453 129.596C135.231 116.15 139.143 99.4534 141.813 84.469C144.48 69.4777 145.908 56.2405 145.688 49.6038C145.642 48.2007 145.496 46.7938 145.262 45.3901C143.485 34.7362 136.625 24.2768 128.019 16.796C119.41 9.32924 109.03 4.78714 100.029 6.26576L100.148 6.98126L100.267 7.69679C108.59 6.29438 118.676 10.588 127.068 17.8907C135.466 25.179 142.143 35.4228 143.833 45.6277C144.056 46.9733 144.194 48.3168 144.239 49.653C144.405 54.5278 143.626 63.3874 142.068 73.9134C139.731 89.7115 135.645 109.315 130.418 125.217C127.804 133.166 124.902 140.19 121.819 145.327C120.278 147.895 118.692 149.988 117.098 151.487C115.502 152.989 113.914 153.883 112.362 154.14C110.463 154.45 108.706 153.813 106.883 152.263C104.16 149.941 101.502 145.559 98.8844 139.944C96.2603 134.328 93.652 127.483 90.8954 120.206C89.9021 117.59 88.8981 115.708 87.8796 114.462C87.3678 113.839 86.8507 113.371 86.2997 113.064C85.7524 112.757 85.1488 112.62 84.5656 112.72C83.9708 112.817 83.4453 113.146 83.0214 113.604C82.3822 114.294 81.9102 115.275 81.5409 116.531C81.1748 117.788 80.9216 119.324 80.794 121.122C80.0701 131.341 80.4773 140.998 79.9214 148.215C79.648 151.82 79.1236 154.811 78.1604 156.909C77.6795 157.959 77.0975 158.781 76.399 159.381C75.6989 159.978 74.881 160.368 73.8522 160.541C71.7707 160.892 69.2796 160.237 66.4984 158.657C61.6332 155.904 55.9868 150.386 50.2296 143.343C41.5848 132.778 32.6487 118.788 25.302 105.513C17.9551 92.242 12.1907 79.6612 9.88631 71.9884C9.50099 70.7087 9.19963 69.395 8.97664 68.0535C7.27271 57.8402 10.1625 46.0034 15.6897 36.4032C21.2095 26.7906 29.3534 19.4681 37.9193 18.0605C42.4874 17.2917 47.3203 18.6564 52.6771 20.015C58.0282 21.3652 63.9057 22.6806 70.5391 21.5779C77.1731 20.4752 82.309 17.3291 86.9357 14.3204C91.5648 11.3018 95.6964 8.44707 100.267 7.69679L100.148 6.98126Z" fill="#0A1C2D"/>
<path d="M114.01 121.672C105.699 123.054 104.925 115.204 101.961 107.176C99.2217 99.7515 94.1415 95.3621 84.7911 96.9164C84.2574 97.0051 83.708 97.1143 83.1457 97.2415C65.2688 101.316 71.0637 127.085 62.6052 128.49C62.4921 128.509 62.3751 128.522 62.257 128.533C53.2922 129.288 30.4848 76.9214 27.2363 69.3057C22.7793 58.8602 20.6619 45.3528 26.4405 35.0201C30.0264 28.6066 35.428 24.8514 41.9275 23.771C43.8018 23.4595 45.7694 23.3703 47.8091 23.5043C47.8099 23.5055 47.8104 23.5054 47.8109 23.5054C46.9896 23.4527 46.1803 23.4371 45.3838 23.4547C52.6719 29.2027 62.6298 32.8161 71.6439 32.2815C72.6911 32.2196 73.7004 32.1032 74.6807 31.9403C79.6756 31.11 83.9198 29.0664 88.6789 26.8101C91.6592 25.3956 94.8393 24.1452 98.0901 23.6049C100.872 23.1424 103.706 23.1999 106.514 24.1199C118.966 28.1986 126.848 42.0995 130.997 53.707C133.49 60.6859 135.629 67.87 135.749 75.3272C135.786 77.5988 135.637 79.84 135.374 82.0663C138.06 71.415 139.362 60.3978 137.913 51.5289C142.041 76.7845 123.874 119.449 114.878 121.501C114.58 121.57 114.291 121.626 114.01 121.672ZM137.913 51.5289C137.907 51.4934 137.902 51.459 137.896 51.4235C137.901 51.458 137.908 51.4944 137.913 51.5289ZM137.877 51.3079C137.874 51.292 137.871 51.2776 137.869 51.2617C137.871 51.2761 137.874 51.2946 137.877 51.3079ZM137.868 51.2566C137.865 51.2406 137.863 51.2252 137.86 51.2077C137.863 51.2237 137.865 51.2406 137.868 51.2566ZM137.849 51.1488C137.846 51.1319 137.843 51.116 137.841 51.1C137.843 51.116 137.846 51.1329 137.849 51.1488ZM137.839 51.0898C137.837 51.0764 137.835 51.0647 137.833 51.0518C137.835 51.0661 137.837 51.0754 137.839 51.0898ZM137.82 50.9836C137.818 50.9703 137.815 50.9569 137.813 50.9441C137.816 50.9585 137.817 50.9687 137.82 50.9836ZM137.811 50.9282C137.807 50.914 137.805 50.9007 137.802 50.8862C137.805 50.8996 137.807 50.915 137.811 50.9282ZM137.801 50.877C137.799 50.8641 137.796 50.8498 137.794 50.8364C137.796 50.8508 137.798 50.8627 137.801 50.877ZM137.79 50.8196C137.788 50.8079 137.786 50.7945 137.784 50.7826C137.786 50.7945 137.788 50.8063 137.79 50.8196ZM137.782 50.7734C137.78 50.759 137.776 50.7433 137.773 50.7274C137.776 50.7424 137.78 50.759 137.782 50.7734ZM137.771 50.713C137.769 50.7012 137.767 50.6894 137.764 50.6777C137.767 50.6883 137.769 50.7028 137.771 50.713ZM137.75 50.6056C137.748 50.5938 137.746 50.5819 137.744 50.5701C137.746 50.5809 137.748 50.5938 137.75 50.6056ZM137.732 50.5021C137.728 50.4878 137.726 50.476 137.724 50.4627C137.726 50.477 137.728 50.4878 137.732 50.5021Z" fill="#FAFDFF"/>
<path d="M71.6442 32.2816C78.0297 31.9041 82.9869 29.5095 88.6792 26.8103C94.2103 24.1865 100.424 22.1263 106.514 24.12C118.966 28.1988 126.848 42.0996 130.997 53.7071C133.49 60.686 135.629 67.8701 135.749 75.3273C135.786 77.5989 135.637 79.8401 135.375 82.0664C138.175 70.9595 139.472 59.4552 137.713 50.4029C135.485 38.9328 128.453 26.7827 121.349 17.5452C116.686 11.4824 108.93 8.84928 101.471 10.3703C92.2432 12.2542 84.976 19.8094 77.8166 25.3936C68.1706 32.9131 58.7735 24.5812 48.7877 23.5865C47.6296 23.4708 46.4941 23.4298 45.3841 23.4548C52.6722 29.2029 62.6301 32.8163 71.6442 32.2816Z" fill="white"/>
<path d="M68.6912 28.5008C62.1535 28.3657 55.6076 24.2621 48.7868 23.5834C48.4586 23.5501 48.1326 23.5232 47.8085 23.5014C45.2576 21.6574 42.8031 19.6824 40.2516 17.8412C44.1307 17.7492 48.2222 18.8844 52.6764 20.0133C58.0276 21.3634 63.9051 22.6788 70.5385 21.5762C76.7723 20.54 81.6838 17.6988 86.0923 14.8642C83.9768 20.913 77.1019 25.6038 70.539 27.9247C69.9283 28.1397 69.3122 28.3327 68.6912 28.5008Z" fill="#D3F1FC"/>
<path d="M70.5388 21.5782C63.9054 22.6809 58.0279 21.3655 52.6768 20.0153C48.2226 18.8864 44.1311 17.7513 40.2519 17.8433C39.9382 17.617 39.623 17.3923 39.3064 17.1706C48.4501 16.4887 58.1587 22.9022 70.4201 20.864C76.8296 19.7986 81.832 16.7707 86.4129 13.7953C86.323 14.1562 86.216 14.5133 86.0926 14.8663C81.6842 17.7009 76.7726 20.542 70.5388 21.5782Z" fill="#0A1D2D"/>
<path d="M48.7868 23.5852C48.4592 23.5518 48.1339 23.5261 47.8103 23.5042C47.8098 23.5043 47.8093 23.5044 47.8085 23.5032C48.1326 23.525 48.4587 23.5519 48.7868 23.5852Z" fill="#DCF4FD"/>
<path d="M66.297 29.0254C61.7403 29.7828 57.0663 29.196 52.9502 26.8593C51.161 25.8429 49.4653 24.7002 47.8106 23.5033C48.1342 23.5252 48.4595 23.5509 48.7871 23.5843C55.608 24.263 62.1538 28.3665 68.6915 28.5017C67.8995 28.7171 67.1001 28.8919 66.297 29.0254Z" fill="#E0F5FD"/>
<path d="M73.8373 160.542C71.7586 160.888 69.2731 160.232 66.498 158.656C61.6327 155.903 55.9864 150.385 50.2292 143.342C41.5843 132.776 32.6482 118.787 25.3015 105.512C19.6773 95.3525 14.9803 85.5973 12.0531 78.1389C30.0034 104.233 51.2761 130.5 55.7726 134.231C58.6195 136.593 61.4415 140.697 65.4701 140.027C65.5081 140.021 65.5464 140.013 65.5845 140.007C73.3677 138.545 73.0411 129.776 72.9596 123.575C72.8704 116.93 76.3193 109.48 81.4246 105.266C82.858 104.084 84.6728 103.297 86.5579 102.984C88.0134 102.742 89.5116 102.782 90.9075 103.14C94.1048 103.96 95.3432 108.757 96.4429 111.409C98.7834 117.047 101.066 126.995 108.539 127.744C109.485 127.839 110.441 127.795 111.397 127.636C118.139 126.516 124.831 119.628 127.139 114.561C132.237 103.372 136.705 94.5021 140.687 82.4958C138.269 96.4425 134.733 112.091 130.417 125.215C127.804 133.165 124.902 140.189 121.818 145.326C120.278 147.893 118.691 149.987 117.097 151.486C115.503 152.986 113.917 153.88 112.367 154.137C112.365 154.138 112.363 154.138 112.361 154.138C110.463 154.449 108.706 153.812 106.883 152.262C104.16 149.94 101.501 145.558 98.884 139.943C96.2598 134.327 93.6515 127.481 90.895 120.204C89.9016 117.589 88.8977 115.707 87.8791 114.461C87.3673 113.838 86.8502 113.37 86.2992 113.063C85.7537 112.757 85.1529 112.621 84.5713 112.717C84.5692 112.718 84.5673 112.718 84.5651 112.718C84.5641 112.719 84.5636 112.719 84.5625 112.719C83.9687 112.818 83.4444 113.145 83.0209 113.602C82.3817 114.293 81.9097 115.274 81.5404 116.53C81.1743 117.787 80.9211 119.323 80.7935 121.121C80.0696 131.339 80.4768 140.997 79.921 148.213C79.6476 151.819 79.1231 154.81 78.1599 156.908C77.679 157.957 77.097 158.78 76.3985 159.38C75.6985 159.977 74.8805 160.367 73.8517 160.54C73.8471 160.54 73.8424 160.541 73.8373 160.542Z" fill="#D3F1FC"/>
<path d="M112.48 154.855C103.888 156.284 97.5701 139.872 90.2172 120.463C88.2705 115.324 86.2789 113.17 84.6847 113.435C83.0611 113.705 81.8493 116.484 81.517 121.174C80.0733 141.514 83.149 159.731 73.9708 161.257C56.2057 164.21 19.7571 101.843 10.3323 75.6234C10.9027 76.4625 11.4753 77.2998 12.0533 78.1403C14.9804 85.5987 19.6774 95.3539 25.3017 105.513C32.6483 118.788 41.5845 132.778 50.2293 143.343C55.9865 150.386 61.6328 155.904 66.4981 158.657C69.2733 160.233 71.7587 160.889 73.8374 160.543C73.8425 160.543 73.8473 160.542 73.8519 160.541C74.8807 160.368 75.6986 159.978 76.3987 159.381C77.0972 158.781 77.6792 157.959 78.16 156.909C79.1233 154.811 79.6477 151.82 79.9211 148.215C80.477 140.998 80.0698 131.341 80.7936 121.122C80.9213 119.324 81.1745 117.788 81.5405 116.531C81.9098 115.275 82.3819 114.294 83.0211 113.604C83.4446 113.146 83.9688 112.819 84.5627 112.72C84.5637 112.72 84.5642 112.72 84.5653 112.72C84.5674 112.719 84.5694 112.719 84.5715 112.719C85.1531 112.622 85.7539 112.759 86.2993 113.064C86.8503 113.371 87.3675 113.839 87.8792 114.463C88.8978 115.708 89.9018 117.59 90.8951 120.206C93.6517 127.483 96.26 134.328 98.8841 139.944C101.501 145.559 104.16 149.941 106.883 152.263C108.706 153.813 110.463 154.45 112.361 154.14C112.363 154.139 112.365 154.139 112.367 154.139C113.917 153.881 115.504 152.988 117.097 151.487C118.691 149.988 120.278 147.895 121.818 145.327C124.902 140.191 127.804 133.166 130.417 125.217C134.733 112.092 138.269 96.4439 140.687 82.4972C141.213 80.9109 141.731 79.2694 142.24 77.5612C137.241 109.062 125.914 152.622 112.48 154.855Z" fill="#0A1D2D"/>
<path d="M60.685 65.5296C61.3252 69.3809 58.7228 73.021 54.8721 73.6611C51.0212 74.3012 47.3796 71.699 46.7394 67.8477C46.0992 63.9964 48.703 60.3551 52.5539 59.715C56.4047 59.0749 60.0448 61.6783 60.685 65.5296Z" fill="#0A1C2D"/>
<path d="M58.7012 67.9694C58.8899 69.1049 58.1237 70.1784 56.9873 70.3673C55.8518 70.556 54.7786 69.7883 54.5899 68.6528C54.401 67.5168 55.1683 66.4442 56.3038 66.2554C57.4402 66.0665 58.5123 66.8334 58.7012 67.9694Z" fill="white"/>
<path d="M55.3531 65.0521C55.4749 65.7848 54.9805 66.4762 54.2479 66.598C53.5152 66.7198 52.8238 66.2254 52.702 65.4928C52.5802 64.7602 53.0744 64.0682 53.8071 63.9464C54.5398 63.8246 55.2313 64.3195 55.3531 65.0521Z" fill="white"/>
<path d="M97.3695 59.4297C98.0097 63.281 101.649 65.8836 105.501 65.2434C109.352 64.6032 111.957 60.9627 111.316 57.1114C110.676 53.2601 107.034 50.657 103.182 51.2973C99.3312 51.9375 96.7294 55.5785 97.3695 59.4297Z" fill="#0A1C2D"/>
<path d="M100.036 61.1001C100.225 62.2356 101.298 63.0033 102.433 62.8145C103.569 62.6257 104.336 61.5521 104.148 60.4166C103.959 59.2806 102.886 58.5139 101.75 58.7027C100.614 58.8914 99.8471 59.9641 100.036 61.1001Z" fill="white"/>
<path d="M102.259 57.2565C102.381 57.9891 103.074 58.4832 103.806 58.3615C104.538 58.2397 105.033 57.5482 104.912 56.8155C104.79 56.0829 104.098 55.5881 103.365 55.7099C102.633 55.8316 102.137 56.5239 102.259 57.2565Z" fill="white"/>
<path d="M111.538 44.2728C110.708 42.3729 109.194 41.0797 107.496 40.3792C105.795 39.6753 103.904 39.5179 102.138 39.8101C100.487 40.0873 98.9285 40.7545 97.7468 41.8403C96.5657 42.9165 95.7873 44.4786 95.8686 46.2789C95.8926 46.8779 96.3985 47.3455 96.9988 47.3228C97.5985 47.297 98.0658 46.7922 98.042 46.1921C98.0047 45.0494 98.4313 44.1824 99.2214 43.4401C100.011 42.7074 101.193 42.169 102.495 41.9553C103.885 41.7229 105.395 41.8585 106.661 42.3873C107.932 42.9221 108.953 43.8056 109.547 45.1488C109.788 45.6979 110.43 45.9482 110.981 45.7066C111.53 45.4654 111.78 44.8235 111.539 44.2744" fill="#0A1C2D"/>
<path d="M45.2453 55.8388C45.3728 54.3757 46.0527 53.2095 47.0824 52.2923C48.1091 51.3823 49.4939 50.7655 50.8849 50.5356C52.1859 50.3167 53.4779 50.4439 54.4625 50.8817C55.4507 51.3284 56.1355 52.012 56.4702 53.1039C56.6419 53.6794 57.2476 54.0073 57.8236 53.8361C58.3984 53.6635 58.7264 53.0573 58.5548 52.4818C58.0478 50.7534 56.8062 49.5257 55.34 48.8908C53.8701 48.2458 52.1806 48.1185 50.5283 48.3904C48.7626 48.6853 47.0242 49.4459 45.6426 50.6623C44.2632 51.8742 43.2492 53.5877 43.0781 55.6557C43.027 56.2534 43.4715 56.7799 44.0701 56.8303C44.6683 56.8809 45.1948 56.4364 45.2459 55.8387" fill="#0A1C2D"/>
<path d="M84.0051 16.2477C84.0051 16.2477 83.6033 16.4605 82.9013 16.834C82.5589 17.0287 82.1042 17.2314 81.654 17.5252C81.1925 17.81 80.6715 18.1318 80.1032 18.4831C78.9464 19.1822 77.6211 20.0838 76.1273 20.9308C75.3797 21.3538 74.6318 21.8282 73.8293 22.2414C73.0237 22.6483 72.2058 23.0614 71.3875 23.4745C70.5865 23.9185 69.703 24.1938 68.8794 24.5564C68.0374 24.8748 67.242 25.2733 66.4155 25.5066C65.5953 25.7538 64.8026 25.9937 64.0508 26.22C63.2949 26.4268 62.6041 26.7051 61.9221 26.8009C59.2409 27.3182 57.4531 27.6641 57.4531 27.6641C57.4531 27.6641 59.218 27.2315 61.8645 26.5821C62.5345 26.4545 63.2114 26.1406 63.9511 25.8987C64.6838 25.6377 65.4564 25.3619 66.2554 25.0777C67.0593 24.8062 67.8297 24.3713 68.6431 24.0145C69.4387 23.6173 70.2905 23.3068 71.0609 22.8273C71.845 22.3807 72.6301 21.9352 73.4024 21.496C74.1699 21.0508 74.888 20.5421 75.602 20.0896C77.0331 19.1826 78.2965 18.2265 79.4379 17.457C80.0117 17.0629 80.5377 16.7011 81.0039 16.3803C81.4674 16.0464 81.8909 15.8341 82.2302 15.6196C82.913 15.2114 83.3042 14.9788 83.3042 14.9788C83.6475 14.773 84.0933 14.8855 84.2989 15.2297C84.5038 15.5728 84.392 16.0185 84.0482 16.2243L84.0185 16.2401L84.0051 16.2477Z" fill="#0A1C2D"/>
<path d="M28.495 27.7229C27.3517 27.8264 26.1511 29.087 25.4162 29.8945C24.3852 31.0255 23.8188 32.2266 23.3599 33.6654L23.4876 33.7131C24.0099 32.4395 24.904 31.288 25.8448 30.2936C26.6629 29.425 27.9835 28.9176 28.6527 27.9751C28.7376 27.8542 28.6307 27.7098 28.495 27.7229Z" fill="#0A1C2D"/>
<path d="M29.934 28.5437C28.5701 29.0313 27.1384 30.0397 26.6526 31.4559L26.7857 31.5514C27.8074 30.5327 28.9412 29.8158 30.2988 29.3306C30.8244 29.1418 30.4572 28.3554 29.934 28.5437Z" fill="#0A1C2D"/>
<path d="M44.3504 123.852C43.6838 123.234 42.8741 122.864 42.1602 122.301C41.2816 121.608 40.5364 120.692 40.1479 119.638L40.0519 119.667C40.1612 121.691 42.1045 124.234 44.3157 124.005L44.3504 123.852Z" fill="#0A1C2D"/>
<path d="M46.8589 122.325C45.6563 121.57 44.115 121.427 43.056 120.408L42.9139 120.499C43.5414 121.968 45.2812 122.747 46.8194 122.494L46.8589 122.325Z" fill="#0A1C2D"/>
<path d="M131.387 98.499C130.968 99.8595 130.983 101.321 130.544 102.707C130.119 104.05 129.384 105.255 128.839 106.546L128.892 106.584C130.711 104.859 132.361 101.061 131.795 98.5394C131.752 98.3464 131.454 98.284 131.387 98.499Z" fill="#0A1C2D"/>
<path d="M129.93 96.6035L129.664 96.6139C129.328 97.3494 129.412 98.1087 129.379 98.902C129.345 99.6934 129.26 100.549 129.088 101.32C129.035 101.56 129.389 101.608 129.48 101.413C130.12 100.078 130.725 97.9893 129.93 96.6035Z" fill="#0A1C2D"/>
<path d="M103.392 10.3637C101.813 9.57066 99.6697 10.1554 98.2627 11.0772L98.3241 11.2116C99.0822 11.0816 99.8222 10.8829 100.579 10.7395C101.51 10.5672 102.434 10.6893 103.368 10.6084C103.507 10.5961 103.494 10.4144 103.392 10.3637Z" fill="#0A1C2D"/>
<path d="M105.573 12.2342C104.268 11.436 102.709 11.6168 101.404 12.3094C101.261 12.3858 101.32 12.6478 101.495 12.5985C102.496 12.3144 103.507 12.3613 104.497 12.6846C104.803 12.7852 105.706 13.2879 105.742 12.6115C105.75 12.471 105.7 12.3116 105.573 12.2342Z" fill="#0A1C2D"/>
<path d="M70.7546 82.5341C71.2758 85.7079 72.8974 87.9805 74.9958 89.3027C77.0927 90.6284 79.6288 91.0273 82.0216 90.6295C84.4137 90.2319 86.6845 89.034 88.2401 87.1012C89.7979 85.1712 90.5967 82.4963 90.0636 79.3245C89.9979 78.929 89.6241 78.6627 89.2295 78.7283C88.8345 78.7939 88.5675 79.1668 88.6332 79.5623C89.0952 82.3794 88.4061 84.5705 87.1097 86.1925C85.8108 87.8118 83.8612 88.8549 81.784 89.2002C79.7067 89.5455 77.5245 89.1892 75.7715 88.0772C74.0196 86.9619 72.6587 85.1116 72.1849 82.2964C72.1192 81.9009 71.7455 81.6345 71.3509 81.7001C70.9564 81.7657 70.6888 82.1386 70.7546 82.5341Z" fill="#0A1C2D"/>
<path d="M115.548 71.5359C115.865 73.4441 113.121 75.491 109.419 76.1064C105.717 76.7218 102.458 75.6727 102.141 73.7645C101.823 71.8549 104.568 69.8073 108.27 69.1919C111.972 68.5765 115.231 69.6262 115.548 71.5359Z" fill="#F9ADB3"/>
<path d="M62.0736 80.4243C62.3908 82.3325 59.6454 84.3796 55.9447 84.9948C52.2413 85.6104 48.9819 84.5614 48.6648 82.6532C48.3473 80.7435 51.0919 78.6959 54.7954 78.0803C58.4961 77.4652 61.7561 78.5147 62.0736 80.4243Z" fill="#F9ADB3"/>
<path d="M87.846 78.4298C88.393 79.5637 89.248 80.1877 89.9453 80.492C90.6455 80.8002 91.1936 80.8226 91.2549 80.8261C91.6546 80.8394 91.9899 80.5255 92.0038 80.1257C92.0169 79.7249 91.7037 79.3904 91.3038 79.3771L91.2909 79.7562L91.31 79.3761L91.3031 79.3758L91.2909 79.7562L91.31 79.3761C91.3095 79.3762 91.2201 79.3721 91.0703 79.3405C90.8444 79.2941 90.4943 79.1859 90.1434 78.955C89.791 78.7215 89.4324 78.3747 89.151 77.7967C88.9755 77.4369 88.5417 77.2856 88.1819 77.4616C87.8218 77.6365 87.6711 78.0698 87.846 78.4298Z" fill="#0A1C2D"/>
<path d="M83.699 91.7067C82.9674 92.0037 82.263 92.2254 81.4855 92.373C81.2642 92.4167 80.391 92.5471 80.393 92.9253C80.3965 93.448 81.0922 93.6944 81.5268 93.7332C82.4909 93.8158 83.5212 93.6297 84.3573 93.1259C85.2052 92.6149 84.6532 91.3169 83.699 91.7067Z" fill="#0A1C2D"/>
<path d="M99.9638 70.0771C99.6555 70.1283 99.7347 70.6046 100.043 70.5534C100.351 70.5022 100.272 70.0259 99.9638 70.0771Z" fill="#0A1C2D"/>
<path d="M102.25 69.2773C101.109 69.4669 101.403 71.2369 102.544 71.0473C103.685 70.8575 103.391 69.0875 102.25 69.2773Z" fill="#0A1C2D"/>
<path d="M107.039 68.1279C106.463 68.2237 106.611 69.1177 107.188 69.0219C107.765 68.926 107.616 68.032 107.039 68.1279Z" fill="#0A1C2D"/>
<path d="M105.507 70.2129C104.623 70.3598 104.85 71.7301 105.735 71.5831C106.62 71.436 106.392 70.0658 105.507 70.2129Z" fill="#0A1C2D"/>
<path d="M109.481 70.0121C108.497 70.1757 108.75 71.7011 109.735 71.5374C110.719 71.3738 110.466 69.8485 109.481 70.0121Z" fill="#0A1C2D"/>
<path d="M111.447 66.6277C110.666 66.7575 110.868 67.97 111.649 67.8401C112.431 67.7101 112.23 66.4976 111.447 66.6277Z" fill="#0A1C2D"/>
<path d="M115.186 66.9609C114.576 67.0623 114.733 68.0097 115.343 67.9083C115.955 67.8066 115.798 66.8592 115.186 66.9609Z" fill="#0A1C2D"/>
<path d="M115.416 70.0357C115.166 70.0772 115.23 70.4635 115.48 70.422C115.727 70.3809 115.663 69.9946 115.416 70.0357Z" fill="#0A1C2D"/>
<path d="M102.463 73.7498C101.925 73.8392 102.064 74.6747 102.602 74.5853C103.14 74.4958 103.002 73.6603 102.463 73.7498Z" fill="#0A1C2D"/>
<path d="M99.6844 72.0131C99.1973 72.094 99.3231 72.8503 99.8101 72.7694C100.298 72.6883 100.172 71.932 99.6844 72.0131Z" fill="#0A1C2D"/>
<path d="M106.244 73.8645C106.103 73.888 106.139 74.1074 106.281 74.0839C106.421 74.0605 106.385 73.8411 106.244 73.8645Z" fill="#0A1C2D"/>
<path d="M108.968 72.6881C108.711 72.7308 108.777 73.1278 109.034 73.0852C109.29 73.0426 109.224 72.6455 108.968 72.6881Z" fill="#0A1C2D"/>
<path d="M48.0918 78.7001C47.7835 78.7514 47.8626 79.2277 48.1709 79.1764C48.4787 79.1252 48.3995 78.649 48.0918 78.7001Z" fill="#0A1C2D"/>
<path d="M50.378 77.9003C49.2369 78.0899 49.5311 79.8599 50.6723 79.6702C51.8127 79.4807 51.5185 77.7107 50.378 77.9003Z" fill="#0A1C2D"/>
<path d="M55.1674 76.751C54.5914 76.8467 54.74 77.7407 55.316 77.645C55.893 77.5491 55.7444 76.6551 55.1674 76.751Z" fill="#0A1C2D"/>
<path d="M53.6338 78.836C52.75 78.9829 52.9778 80.3531 53.8615 80.2062C54.7474 80.059 54.5196 78.6887 53.6338 78.836Z" fill="#0A1C2D"/>
<path d="M57.61 78.6332C56.6256 78.7968 56.8792 80.3222 57.8635 80.1585C58.8475 79.995 58.5939 78.4696 57.61 78.6332Z" fill="#0A1C2D"/>
<path d="M59.5747 75.2507C58.7933 75.3806 58.9948 76.593 59.7762 76.4631C60.5594 76.333 60.3578 75.1205 59.5747 75.2507Z" fill="#0A1C2D"/>
<path d="M63.3139 75.5839C62.7036 75.6854 62.8611 76.6328 63.4714 76.5313C64.0813 76.43 63.9238 75.4826 63.3139 75.5839Z" fill="#0A1C2D"/>
<path d="M63.5429 78.6589C63.2943 78.7002 63.3585 79.0865 63.6071 79.0452C63.8563 79.0037 63.7921 78.6174 63.5429 78.6589Z" fill="#0A1C2D"/>
<path d="M50.5914 82.3708C50.0529 82.4603 50.1918 83.2958 50.7303 83.2063C51.2697 83.1166 51.1308 82.2812 50.5914 82.3708Z" fill="#0A1C2D"/>
<path d="M47.8119 80.6363C47.3264 80.717 47.4521 81.4733 47.9376 81.3926C48.4252 81.3116 48.2995 80.5553 47.8119 80.6363Z" fill="#0A1C2D"/>
<path d="M54.372 82.4876C54.2307 82.5111 54.2672 82.7305 54.4084 82.707C54.5497 82.6835 54.5132 82.4641 54.372 82.4876Z" fill="#0A1C2D"/>
<path d="M57.0967 81.3092C56.8404 81.3519 56.9064 81.7489 57.1627 81.7063C57.4192 81.6637 57.3532 81.2666 57.0967 81.3092Z" fill="#0A1C2D"/>
</g>
</svg>
