<svg width="161" height="172" viewBox="0 0 161 172" fill="none" xmlns="http://www.w3.org/2000/svg">
<g opacity="0.1">
<path d="M138.792 46.6921C132.123 42.8413 122.613 45.4204 113.613 40.2242C104.614 35.0286 102.093 25.5034 95.4228 21.6526C82.2398 14.0414 57.0907 24.606 50.3085 40.8196C42.7454 58.8952 32.1879 120.456 45.1221 127.923C51.5072 131.61 58.7933 118.914 69.9152 107.193C74.9973 101.837 78.4137 102.814 75.5978 111.137C70.3272 126.717 65.9336 139.939 71.9098 143.389C84.843 150.856 135.156 107.845 144.751 95.3462C155.453 81.4055 151.637 54.1078 138.792 46.6921Z" fill="#F0FAFE"/>
<path d="M138.792 46.6928L139.08 46.1951C135.585 44.1858 131.46 43.8819 127.14 43.3921C122.813 42.9081 118.285 42.2591 113.901 39.7264C109.516 37.196 106.69 33.5992 104.106 30.0935C101.522 26.5973 99.1966 23.1773 95.7099 21.1557C89.2891 17.4633 80.3201 17.9416 71.8946 21.1125C63.4672 24.2933 55.5496 30.1933 51.2664 37.6015C50.7043 38.575 50.2056 39.5742 49.7777 40.5984C45.9574 49.7424 41.4352 69.6503 39.4573 88.2891C38.4715 97.6072 38.1241 106.595 38.8409 113.763C39.1997 117.348 39.8235 120.479 40.7844 122.985C41.7467 125.485 43.0514 127.388 44.8343 128.422C45.7139 128.931 46.6422 129.168 47.5763 129.147C49.2171 129.109 50.8325 128.327 52.4901 127.083C54.9765 125.21 57.6052 122.254 60.5395 118.805C63.4713 115.356 66.7005 111.415 70.3325 107.588C71.5846 106.267 72.7262 105.355 73.6392 104.872C74.0949 104.63 74.4901 104.497 74.7962 104.457C75.1059 104.417 75.31 104.463 75.4614 104.549C75.6095 104.637 75.742 104.779 75.8549 105.059C76.0234 105.477 76.0981 106.195 75.9805 107.185C75.8653 108.175 75.5677 109.434 75.0538 110.954C72.4183 118.747 69.9949 125.957 68.9705 131.712C68.4604 134.591 68.2941 137.108 68.6574 139.185C69.014 141.255 69.9512 142.928 71.6221 143.888C73.4207 144.92 75.7599 145.043 78.4629 144.547C83.1981 143.669 89.1558 140.859 95.6208 136.979C105.312 131.155 116.11 122.907 125.286 115.081C134.465 107.25 142.001 99.868 145.207 95.6968C145.884 94.8131 146.503 93.8798 147.067 92.9038C151.341 85.4893 152.408 75.636 150.907 66.7268C149.397 57.8246 145.332 49.8206 139.08 46.1951L138.792 46.6928L138.505 47.1906C144.303 50.5223 148.314 58.2262 149.774 66.9182C151.245 75.6036 150.175 85.2342 146.072 92.3296C145.533 93.2645 144.941 94.1562 144.295 94.9967C141.943 98.0637 137.007 103.093 130.754 108.751C121.374 117.242 109.006 127.182 97.8029 134.281C92.2041 137.83 86.8921 140.668 82.419 142.259C80.1837 143.054 78.1591 143.538 76.4298 143.653C74.6969 143.768 73.275 143.516 72.1967 142.892C70.8786 142.127 70.1245 140.853 69.7883 138.986C69.2918 136.195 69.8704 132.176 71.0949 127.422C72.3165 122.665 74.1663 117.162 76.1417 111.322C76.8502 109.222 77.1822 107.565 77.1869 106.289C77.1873 105.65 77.1066 105.104 76.9238 104.638C76.7435 104.175 76.4425 103.788 76.0356 103.555C75.6227 103.315 75.1355 103.252 74.6459 103.318C73.9072 103.419 73.1249 103.783 72.2668 104.365C71.4096 104.949 70.4819 105.762 69.4981 106.798C63.9114 112.686 59.2996 118.802 55.3278 122.939C53.3454 125.008 51.5191 126.573 49.8738 127.372C49.0518 127.773 48.2813 127.983 47.5514 127.999C46.8227 128.012 46.126 127.839 45.409 127.427C43.9586 126.594 42.7644 124.939 41.8571 122.572C40.2655 118.439 39.5885 112.221 39.6097 105.013C39.637 94.1959 41.2104 81.1367 43.3971 69.3159C45.5809 57.4982 48.3859 46.8969 50.8379 41.0419C51.2457 40.0651 51.7229 39.1097 52.2619 38.1762C56.3593 31.0687 64.0852 25.2808 72.3001 22.1871C80.5161 19.0831 89.1845 18.7008 95.1352 22.1511C98.3168 23.9807 100.588 27.2484 103.182 30.775C105.777 34.2946 108.712 38.0579 113.326 40.7218C117.941 43.3862 122.667 44.0462 127.013 44.5337C131.364 45.0173 135.33 45.35 138.505 47.1906L138.792 46.6928Z" fill="#0A1C2D"/>
<mask id="mask0_10_2613" style="mask-type:luminance" maskUnits="userSpaceOnUse" x="52" y="25" width="95" height="100">
<path d="M89.5536 123.844C83.7717 120.508 87.2494 115.314 89.478 108.91C89.818 107.933 90.0769 106.973 90.2444 106.037C92.1743 106.054 93.9085 105.711 95.4641 105.128C96.8921 104.594 98.1646 103.868 99.3056 103.048L117.759 113.698C106.079 121.334 93.8955 126.039 90.1698 124.176C89.9535 124.067 89.7485 123.957 89.5536 123.844ZM54.6611 102.148C54.5824 102.102 54.504 102.052 54.4271 101.999C51.636 100.073 52.9801 89.2158 55.3555 77.6824L67.9102 84.9281C67.6933 86.7717 67.7145 88.655 68.2001 90.571C68.5102 91.7915 69.0104 93.0146 69.7502 94.2368C63.3481 97.8353 58.3193 104.259 54.6611 102.148ZM123.339 109.785L123.338 109.784C130.319 104.533 136.553 98.3841 139.917 92.1991C136.554 98.383 130.319 104.533 123.339 109.785ZM123.223 109.718L104.016 98.6328C104.173 98.4588 104.326 98.2862 104.474 98.1182C105.037 97.4826 105.533 96.8005 105.934 96.1054C106.58 94.9837 106.988 93.8309 106.991 92.7517C106.99 92.2136 106.882 91.6906 106.634 91.2228C106.389 90.7566 106.003 90.3557 105.494 90.0621C105.492 90.061 105.49 90.06 105.489 90.0589C104.921 89.7322 104.208 89.5313 103.341 89.4583C102.712 89.4058 102.102 89.1877 101.479 88.8281C101.474 88.8249 101.469 88.8222 101.464 88.8191C100.122 88.0449 98.7593 86.6069 97.2366 85.0377C95.7032 83.4638 93.9971 81.7621 91.8822 80.4938L91.6707 80.3679C89.7622 79.268 87.7061 78.6372 85.7728 78.0619C83.8441 77.4914 82.0373 76.9718 80.6227 76.1553C80.62 76.1538 80.6163 76.1517 80.6136 76.1501C79.8148 75.6891 79.1404 75.1393 78.6135 74.4336C78.1443 73.8054 77.6355 73.3387 77.0956 73.0272C77.0929 73.0256 77.091 73.0245 77.0883 73.0229C76.4533 72.6565 75.7746 72.5135 75.1174 72.5635C74.125 72.6383 73.1997 73.123 72.3833 73.8121C71.5673 74.5046 70.8499 75.4129 70.2772 76.4045C69.8708 77.1081 69.5382 77.853 69.3001 78.5969L56.7408 71.3485C59.1753 60.7669 62.0043 50.8899 62.8117 48.1359C65.3446 39.5004 70.848 30.1703 79.5872 26.7561C85.0087 24.6376 90.2053 25.0569 94.7263 27.6662C96.0311 28.4192 97.2804 29.3549 98.461 30.4644C97.9851 30.019 97.498 29.6013 97.0012 29.2109C98.566 36.3958 102.843 43.6178 108.628 47.8271C109.3 48.3151 109.976 48.7517 110.656 49.1455C114.133 51.1522 117.759 52.0373 121.808 53.0508C124.344 53.686 126.919 54.5208 129.181 55.8262C131.116 56.9431 132.822 58.4045 134.077 60.3803C139.644 69.1419 137.47 81.6134 134.164 90.8039C132.178 96.3296 129.87 101.8 126.188 106.425C125.26 107.591 124.265 108.68 123.223 109.718Z" fill="white"/>
</mask>
<g mask="url(#mask0_10_2613)">
<path d="M34.8613 92.2812L113.774 137.825L158.104 61.0719L79.1909 15.5281L34.8613 92.2812Z" fill="#FAFDFF"/>
</g>
<path d="M108.615 47.8278C112.715 50.8105 116.952 51.8397 121.795 53.0533C126.499 54.2321 131.341 56.0979 134.062 60.3847C139.629 69.148 137.456 81.6211 134.151 90.8125C132.166 96.3389 129.859 101.81 126.178 106.435C125.057 107.844 123.838 109.14 122.558 110.37C129.861 104.983 136.444 98.5954 139.925 92.1697C144.334 84.0302 146.147 73.0564 146.448 63.8275C146.646 57.7691 143.226 52.2557 137.897 49.4325C131.302 45.9384 123.052 46.9061 115.86 46.7187C106.173 46.4662 104.617 36.6373 99.0061 31.0033C98.3558 30.3484 97.6811 29.7528 96.9892 29.2081C98.5543 36.3941 102.832 43.6175 108.615 47.8278Z" fill="white"/>
<path d="M108.71 44.0293C104.779 40.6553 102.838 34.8506 99.0057 31.0021C98.8619 30.8581 98.718 30.7164 98.572 30.5785C98.5313 30.5391 98.4897 30.4992 98.4485 30.4608C97.8157 28.0472 97.3078 25.6033 96.6725 23.192C99.0923 25.0881 101.026 27.8414 103.183 30.7738C105.778 34.2934 108.713 38.0567 113.326 40.7206C117.663 43.2244 122.099 43.9583 126.224 44.4425C121.885 47.0792 115.316 46.489 110.131 44.6068C109.649 44.4312 109.176 44.2395 108.71 44.0293Z" fill="#D3F1FC"/>
<path d="M113.327 40.7221C108.713 38.0583 105.778 34.2949 103.183 30.7754C101.026 27.843 99.0926 25.0896 96.6727 23.1936C96.5954 22.8965 96.5147 22.601 96.4331 22.305C102.371 26.491 105.085 35.3012 113.613 40.2253C118.073 42.7999 122.656 43.465 126.959 43.9509C126.722 44.1265 126.477 44.2903 126.224 44.444C122.1 43.9598 117.663 43.2259 113.327 40.7221Z" fill="#0A1D2D"/>
<path d="M98.5723 30.579C98.5316 30.5397 98.4909 30.5003 98.4488 30.4613C98.49 30.4998 98.5316 30.5397 98.5723 30.579Z" fill="#DCF4FD"/>
<path d="M106.983 43.1457C103.813 41.3154 101.248 38.6037 99.9055 35.1011C99.3219 33.5784 98.8599 32.0271 98.4488 30.4614C98.491 30.5003 98.5317 30.5397 98.5724 30.5791C98.7184 30.717 98.8623 30.8587 99.0061 31.0027C102.838 34.8512 104.779 40.6559 108.711 44.0299C108.118 43.7634 107.541 43.4679 106.983 43.1457Z" fill="#E0F5FD"/>
<path d="M45.3998 127.42C43.9543 126.586 42.7628 124.933 41.858 122.572C40.2664 118.439 39.5894 112.22 39.6106 105.012C39.6371 94.5986 41.0969 82.1056 43.1562 70.6407L47.4389 73.1134C46.9153 87.6464 47.0388 99.3599 47.5899 102.228C48.1427 105.105 47.8041 109.036 50.6074 110.655C50.6339 110.67 50.6604 110.685 50.6874 110.7C56.1842 113.723 60.4003 108.192 63.4698 104.356C65.7617 101.494 69.3006 99.254 73.0096 98.1564C74.5876 99.6217 76.5925 101.083 79.1103 102.536C79.1185 102.541 79.1259 102.545 79.1332 102.55C79.1451 102.556 79.157 102.563 79.1679 102.57C81.2823 103.79 83.25 104.648 85.0809 105.206C84.7623 106.489 84.2622 107.751 83.9641 108.732C82.5584 113.359 78.9488 120.596 83.1445 124.817C83.6757 125.35 84.2827 125.806 84.9469 126.189C89.6358 128.896 97.1976 128.049 101.161 126.111C108.446 122.548 114.656 119.748 121.422 115.828L122.134 116.239C114.443 122.659 105.825 129.198 97.8038 134.281C92.205 137.829 86.8931 140.668 82.4199 142.259C80.1846 143.054 78.16 143.537 76.4308 143.652C74.7 143.768 73.28 143.517 72.2013 142.894C72.2004 142.894 72.1986 142.893 72.1976 142.892C70.8795 142.126 70.1254 140.853 69.7892 138.986C69.2928 136.195 69.8713 132.175 71.0958 127.422C72.3174 122.665 74.1672 117.162 76.1427 111.321C76.8512 109.221 77.1831 107.565 77.1878 106.289C77.1882 105.65 77.1075 105.103 76.9247 104.638C76.7447 104.176 76.4455 103.79 76.0411 103.557C76.0393 103.556 76.0384 103.555 76.0365 103.554C76.0365 103.554 76.0356 103.554 76.0347 103.553C75.6221 103.315 75.1364 103.252 74.6468 103.318C73.9081 103.418 73.1258 103.783 72.2677 104.364C71.4106 104.949 70.4828 105.761 69.499 106.798C63.9123 112.686 59.3006 118.802 55.3287 122.939C53.3463 125.007 51.52 126.573 49.8747 127.371C49.0527 127.772 48.2822 127.983 47.5523 127.998C46.8236 128.012 46.1269 127.839 45.4099 127.426C45.4072 127.425 45.4035 127.422 45.3998 127.42Z" fill="#D3F1FC"/>
<path d="M71.911 143.389C65.9348 139.938 70.3284 126.717 75.5991 111.137C76.9948 107.012 76.8595 104.692 75.7506 104.052C74.6207 103.399 72.4807 104.49 69.9165 107.193C58.7945 118.913 51.5085 131.609 45.1233 127.923C36.567 122.983 38.2914 94.371 42.628 70.3347L43.1568 70.64C41.0975 82.1049 39.6376 94.5978 39.6112 105.012C39.59 112.22 40.267 118.438 41.8586 122.571C42.7634 124.932 43.9549 126.585 45.4004 127.42C45.4041 127.422 45.4077 127.424 45.4105 127.425C46.1275 127.838 46.8242 128.011 47.5529 127.997C48.2828 127.982 49.0533 127.772 49.8753 127.37C51.5206 126.572 53.3469 125.006 55.3293 122.938C59.3011 118.801 63.9129 112.685 69.4996 106.797C70.4834 105.761 71.4111 104.948 72.2683 104.364C73.1264 103.782 73.9087 103.418 74.6474 103.317C75.137 103.251 75.6227 103.314 76.0353 103.552C76.0362 103.553 76.0371 103.553 76.0371 103.553C76.039 103.555 76.0399 103.555 76.0417 103.556C76.4461 103.79 76.7452 104.176 76.9253 104.637C77.1081 105.102 77.1888 105.649 77.1884 106.288C77.1837 107.564 76.8517 109.221 76.1432 111.32C74.1678 117.161 72.318 122.664 71.0964 127.421C69.8719 132.175 69.2933 136.194 69.7898 138.985C70.126 140.852 70.8801 142.126 72.1982 142.891C72.1991 142.892 72.201 142.893 72.2019 142.893C73.2806 143.516 74.7006 143.767 76.4313 143.652C78.1606 143.536 80.1852 143.053 82.4205 142.258C86.8936 140.667 92.2056 137.829 97.8044 134.28C105.826 129.197 114.444 122.658 122.135 116.238L122.664 116.543C104.173 132.004 80.2587 148.208 71.911 143.389ZM127.644 112.285L127.402 112.145C127.938 111.796 128.478 111.437 129.026 111.069C128.571 111.471 128.11 111.878 127.644 112.285Z" fill="#0A1D2D"/>
<path d="M47.7315 66.1482L44.3921 64.2201C45.8437 57.1695 47.4799 50.7816 49.0676 45.8975C48.4847 52.6754 48.0453 59.5871 47.7315 66.1482Z" fill="#D3F1FC"/>
<path d="M44.3922 64.2196L43.8689 63.9174C45.5467 55.8009 47.4634 48.5766 49.2812 43.4904C49.2081 44.2911 49.1374 45.0918 49.0678 45.897C47.4801 50.781 45.8438 57.1689 44.3922 64.2196Z" fill="#0A1D2D"/>
<path d="M85.1746 62.6572C83.6273 65.3373 80.2026 66.255 77.5238 64.7083C74.8449 63.1617 73.9274 59.737 75.4747 57.057C77.0208 54.3791 80.4458 53.4607 83.1247 55.0073C85.8035 56.554 86.7207 59.9794 85.1746 62.6572Z" fill="#0A1C2D"/>
<path d="M82.7326 63.1551C82.2762 63.9456 81.2655 64.2151 80.4759 63.7592C79.6863 63.3034 79.4152 62.2939 79.8717 61.5033C80.3281 60.7127 81.3383 60.442 82.1279 60.8979C82.9175 61.3538 83.189 62.3645 82.7326 63.1551Z" fill="white"/>
<path d="M82.1522 59.6819C81.858 60.1915 81.2072 60.3657 80.6976 60.0715C80.1889 59.7778 80.0135 59.1266 80.3077 58.617C80.6013 58.1085 81.2538 57.9334 81.7625 58.227C82.2721 58.5213 82.4458 59.1734 82.1522 59.6819Z" fill="white"/>
<path d="M110.693 77.389C109.146 80.069 110.064 83.4937 112.743 85.0404C115.421 86.587 118.847 85.6698 120.394 82.9898C121.94 80.3119 121.022 76.886 118.343 75.3393C115.665 73.7927 112.24 74.7111 110.693 77.389Z" fill="#0A1C2D"/>
<path d="M111.484 79.7533C111.028 80.5439 111.299 81.5534 112.088 82.0092C112.879 82.4656 113.888 82.1951 114.344 81.4045C114.8 80.614 114.531 79.6043 113.74 79.1479C112.951 78.6921 111.94 78.9627 111.484 79.7533Z" fill="white"/>
<path d="M114.78 78.5194C114.486 79.029 114.662 79.6802 115.17 79.9739C115.68 80.2681 116.332 80.0944 116.626 79.5848C116.919 79.0763 116.745 78.4236 116.235 78.1294C115.726 77.8357 115.074 78.0108 114.78 78.5194Z" fill="white"/>
<path d="M126.992 75.2471C127.439 73.6658 127.164 72.1124 126.478 70.8299C125.792 69.5418 124.713 68.4945 123.485 67.7832C122.335 67.1216 121.046 66.747 119.776 66.8166C118.512 66.8792 117.25 67.445 116.393 68.5864C116.106 68.9656 116.18 69.5062 116.56 69.7938C116.939 70.0811 117.48 70.0067 117.767 69.6271C118.319 68.9102 119.017 68.593 119.874 68.5367C120.726 68.4856 121.72 68.7521 122.623 69.2764C123.592 69.8334 124.448 70.676 124.956 71.6381C125.466 72.6046 125.646 73.659 125.333 74.7798C125.204 75.2383 125.471 75.7144 125.929 75.8438C126.387 75.9715 126.863 75.7045 126.992 75.2471Z" fill="#0A1C2D"/>
<path d="M80.6047 48.9555C81.4189 48.1242 82.4223 47.7534 83.5131 47.7107C84.6004 47.6699 85.7578 47.9893 86.7248 48.55C87.6307 49.0706 88.3576 49.7977 88.7401 50.5613C89.119 51.3313 89.1942 52.0948 88.8501 52.9316C88.6651 53.3704 88.871 53.8758 89.3095 54.0608C89.7482 54.2454 90.2528 54.0392 90.4375 53.6008C90.9977 52.2883 90.8557 50.9116 90.2785 49.7857C89.7039 48.6512 88.734 47.7217 87.5868 47.0569C86.357 46.3493 84.9106 45.9388 83.4521 45.9887C81.9986 46.0362 80.5156 46.5743 79.3706 47.7526C79.0379 48.0922 79.0448 48.6381 79.3854 48.9715C79.7257 49.3033 80.2714 49.2963 80.6047 48.9555Z" fill="#0A1C2D"/>
<path d="M124.249 44.2392C124.249 44.2392 123.896 44.1683 123.278 44.0437C122.971 43.9893 122.591 43.8846 122.167 43.8388C121.741 43.7806 121.26 43.7153 120.736 43.6445C119.677 43.4891 118.411 43.3734 117.071 43.1387C116.4 43.0222 115.704 42.9373 115.005 42.7866C114.307 42.6301 113.599 42.4703 112.891 42.3113C112.177 42.1794 111.498 41.9035 110.812 41.7099C110.135 41.4828 109.448 41.3251 108.825 41.052C108.199 40.7905 107.594 40.5374 107.019 40.2985C106.452 40.0444 105.89 39.8672 105.424 39.5822C103.523 38.5494 102.255 37.8613 102.255 37.8613C102.255 37.8613 103.553 38.484 105.499 39.4197C105.973 39.6786 106.546 39.8275 107.119 40.0513C107.699 40.2602 108.311 40.4806 108.943 40.7088C109.571 40.9472 110.261 41.0686 110.939 41.2598C111.626 41.4175 112.305 41.6556 113.016 41.7504C113.721 41.8722 114.425 41.9945 115.119 42.1142C115.813 42.2283 116.509 42.2785 117.173 42.361C118.505 42.5262 119.759 42.5768 120.845 42.6803C121.394 42.728 121.899 42.7715 122.345 42.8106C122.797 42.8401 123.163 42.9231 123.478 42.9624C124.102 43.0557 124.459 43.1102 124.459 43.1102C124.772 43.1579 124.989 43.4502 124.941 43.7644C124.894 44.0773 124.601 44.294 124.287 44.2468L124.261 44.2414L124.249 44.2392Z" fill="#0A1C2D"/>
<path d="M84.5051 23.3196C83.7548 22.8084 82.3854 22.9766 81.5289 23.0993C80.3281 23.2734 79.3776 23.7237 78.3712 24.3723L78.4252 24.4669C79.3883 23.9483 80.5138 23.6954 81.5902 23.5593C82.5283 23.441 83.5909 23.7958 84.4749 23.5535C84.5884 23.5239 84.5956 23.3804 84.5051 23.3196Z" fill="#0A1C2D"/>
<path d="M84.9729 24.5484C83.8925 24.1588 82.5076 24.0558 81.4981 24.6782L81.5317 24.8038C82.6695 24.6946 83.7238 24.8251 84.7996 25.212C85.2161 25.361 85.3867 24.6958 84.9729 24.5484Z" fill="#0A1C2D"/>
<path d="M45.8236 90.1275C45.7263 89.4151 45.4168 88.7804 45.2633 88.0766C45.0742 87.2103 45.0802 86.2745 45.374 85.4338L45.2993 85.4027C44.3473 86.6966 44.2568 89.2304 45.7238 90.2033L45.8236 90.1275Z" fill="#0A1C2D"/>
<path d="M48.1267 90.4559C47.7711 89.388 46.8994 88.525 46.7637 87.3697L46.6322 87.3525C46.2767 88.5682 46.9492 89.9199 48.0177 90.5392L48.1267 90.4559Z" fill="#0A1C2D"/>
<path d="M111.846 118.418C110.905 119.042 110.179 119.941 109.212 120.569C108.276 121.177 107.22 121.542 106.236 122.06L106.25 122.11C108.231 121.97 111.151 120.477 112.075 118.648C112.146 118.509 111.996 118.319 111.846 118.418Z" fill="#0A1C2D"/>
<path d="M111.908 116.526L111.74 116.398C111.163 116.679 110.833 117.187 110.413 117.655C109.994 118.123 109.509 118.603 109.018 118.988C108.863 119.108 109.056 119.316 109.212 119.243C110.275 118.748 111.696 117.774 111.908 116.526Z" fill="#0A1C2D"/>
<path d="M139.466 52.6369C139.07 51.4932 138.024 50.8185 136.878 50.5864C136.75 50.5603 136.655 50.7505 136.788 50.8086C137.544 51.1394 138.138 51.6758 138.581 52.3712C138.719 52.5873 139.017 53.3497 139.38 52.9545C139.455 52.8719 139.505 52.7495 139.466 52.6369Z" fill="#0A1C2D"/>
<path d="M115.723 93.9478C114.957 95.2755 112.248 95.1461 109.672 93.6592C107.097 92.1722 105.63 89.8908 106.397 88.5631C107.164 87.2346 109.872 87.3643 112.448 88.8513C115.023 90.3382 116.49 92.6193 115.723 93.9478Z" fill="#F9ADB3"/>
<path d="M78.5259 72.4732C77.7594 73.8009 75.0503 73.6715 72.4748 72.1846C69.8984 70.6971 68.4328 68.4162 69.1993 67.0884C69.9663 65.76 72.6743 65.8892 75.2507 67.3767C77.8261 68.8636 79.2929 71.1447 78.5259 72.4732Z" fill="#F9ADB3"/>
<path d="M106.922 85.2087C106.708 85.0851 106.517 85.4164 106.731 85.54C106.945 85.6636 107.136 85.3323 106.922 85.2087Z" fill="#0A1C2D"/>
<path d="M108.723 85.8716C107.931 85.4142 107.22 86.6454 108.012 87.1028C108.806 87.5613 109.517 86.3301 108.723 85.8716Z" fill="#0A1C2D"/>
<path d="M112.232 87.579C111.83 87.3471 111.471 87.9694 111.873 88.2013C112.274 88.4332 112.633 87.8109 112.232 87.579Z" fill="#0A1C2D"/>
<path d="M110.246 88.085C109.63 87.7295 109.079 88.6826 109.695 89.0381C110.311 89.3936 110.861 88.4404 110.246 88.085Z" fill="#0A1C2D"/>
<path d="M112.779 89.9589C112.093 89.5632 111.48 90.6257 112.165 91.0213C112.85 91.4165 113.463 90.354 112.779 89.9589Z" fill="#0A1C2D"/>
<path d="M115.685 88.8799C115.141 88.5661 114.654 89.4098 115.198 89.7236C115.741 90.0374 116.228 89.1936 115.685 88.8799Z" fill="#0A1C2D"/>
<path d="M117.804 90.9662C117.379 90.7206 116.998 91.38 117.424 91.6256C117.848 91.8707 118.229 91.2113 117.804 90.9662Z" fill="#0A1C2D"/>
<path d="M116.397 92.9615C116.224 92.8611 116.069 93.1292 116.243 93.2296C116.416 93.3294 116.57 93.0613 116.397 92.9615Z" fill="#0A1C2D"/>
<path d="M106.602 88.7164C106.227 88.4998 105.892 89.0806 106.267 89.2972C106.641 89.5132 106.976 88.9325 106.602 88.7164Z" fill="#0A1C2D"/>
<path d="M105.775 86.2553C105.437 86.0598 105.133 86.5859 105.472 86.7813C105.81 86.9768 106.114 86.4507 105.775 86.2553Z" fill="#0A1C2D"/>
<path d="M108.858 90.6917C108.759 90.6346 108.672 90.7865 108.77 90.8436C108.868 90.9001 108.956 90.7482 108.858 90.6917Z" fill="#0A1C2D"/>
<path d="M111.118 91.341C110.94 91.238 110.78 91.5153 110.958 91.6183C111.136 91.7213 111.297 91.444 111.118 91.341Z" fill="#0A1C2D"/>
<path d="M70.8401 64.3786C70.626 64.255 70.4348 64.5863 70.6488 64.7099C70.8629 64.8335 71.0542 64.5022 70.8401 64.3786Z" fill="#0A1C2D"/>
<path d="M72.6404 65.0404C71.8463 64.5819 71.1354 65.8131 71.9296 66.2716C72.7228 66.7296 73.4337 65.4984 72.6404 65.0404Z" fill="#0A1C2D"/>
<path d="M76.1497 66.745C75.7481 66.5132 75.3888 67.1354 75.7905 67.3673C76.1921 67.5992 76.5514 66.9769 76.1497 66.745Z" fill="#0A1C2D"/>
<path d="M74.1628 67.2525C73.548 66.8976 72.9977 67.8507 73.6125 68.2057C74.2282 68.5612 74.7785 67.608 74.1628 67.2525Z" fill="#0A1C2D"/>
<path d="M76.6967 69.1288C76.0114 68.7331 75.398 69.7956 76.0833 70.1913C76.7686 70.5869 77.382 69.5244 76.6967 69.1288Z" fill="#0A1C2D"/>
<path d="M79.6027 68.0478C79.0593 67.7341 78.5721 68.5778 79.1156 68.8916C79.6591 69.2053 80.1462 68.3616 79.6027 68.0478Z" fill="#0A1C2D"/>
<path d="M81.7225 70.1338C81.298 69.8887 80.9173 70.5481 81.3418 70.7932C81.7663 71.0383 82.147 70.3789 81.7225 70.1338Z" fill="#0A1C2D"/>
<path d="M80.3147 72.1291C80.1418 72.0292 79.987 72.2973 80.16 72.3971C80.3329 72.497 80.4877 72.2289 80.3147 72.1291Z" fill="#0A1C2D"/>
<path d="M70.5207 67.8848C70.1446 67.6677 69.8093 68.2485 70.1853 68.4656C70.5595 68.6816 70.8949 68.1008 70.5207 67.8848Z" fill="#0A1C2D"/>
<path d="M69.6934 65.4232C69.3548 65.2278 69.0511 65.7539 69.3896 65.9493C69.7281 66.1448 70.0319 65.6187 69.6934 65.4232Z" fill="#0A1C2D"/>
<path d="M72.7754 69.8573C72.6775 69.8008 72.5898 69.9527 72.6877 70.0092C72.7856 70.0657 72.8733 69.9138 72.7754 69.8573Z" fill="#0A1C2D"/>
<path d="M75.0361 70.5089C74.8577 70.4059 74.6976 70.6832 74.876 70.7862C75.0544 70.8892 75.2145 70.6119 75.0361 70.5089Z" fill="#0A1C2D"/>
<path d="M69.6512 79.2054C67.7173 86.506 65.781 94.2505 79.3885 102.107C92.9969 109.964 99.9252 102.487 104.083 97.7867C106.852 94.6566 107.942 90.364 103.291 89.9746C99.4546 89.653 96.6485 83.9572 91.6116 80.9357C89.7152 79.7981 87.6213 79.1504 85.62 78.5558C82.6053 77.6606 79.7994 76.8875 78.1975 74.7412C75.0361 70.5082 70.7224 75.161 69.6512 79.2054Z" fill="white"/>
<path d="M69.6505 79.2044L69.1558 79.0723C68.1927 82.7224 67.1823 86.5769 68.1957 90.5729C69.2109 94.5723 72.2612 98.5878 79.1322 102.549C86.0199 106.535 91.3563 106.671 95.4571 105.134C99.5547 103.602 102.38 100.478 104.466 98.124C105.028 97.4884 105.524 96.8063 105.925 96.1111C106.571 94.9893 106.979 93.8364 106.981 92.757C106.981 92.2188 106.873 91.6958 106.625 91.2278C106.378 90.7595 105.99 90.3575 105.479 90.0638C104.911 89.737 104.199 89.536 103.331 89.4629C102.703 89.4103 102.093 89.1921 101.47 88.8324C100.123 88.0595 98.7567 86.6168 97.2278 85.0412C95.6945 83.4669 93.9886 81.7649 91.8738 80.4962L91.6623 80.3703C89.7541 79.27 87.6981 78.6391 85.7651 78.0635C83.8323 77.4917 82.0216 76.9705 80.6064 76.151C79.8077 75.6899 79.1334 75.14 78.6065 74.4341C78.1373 73.8058 77.6285 73.339 77.0887 73.0274C76.452 72.6575 75.7702 72.5136 75.1107 72.5635C74.1185 72.6382 73.1933 73.1229 72.3771 73.812C71.5612 74.5046 70.8441 75.4129 70.2715 76.4046C69.7792 77.2574 69.3944 78.1731 69.1558 79.0723L69.6505 79.2044L70.1448 79.335C70.3568 78.5325 70.7082 77.6936 71.1572 76.9159C71.8521 75.708 72.7892 74.6512 73.7543 74.0762C74.2358 73.7872 74.7204 73.6176 75.1861 73.5844C75.6529 73.5513 76.107 73.6438 76.5774 73.913C76.9744 74.1423 77.3828 74.5062 77.7868 75.0468C78.4128 75.8852 79.207 76.5254 80.0951 77.0366C81.6725 77.9449 83.5489 78.4708 85.4744 79.0445C87.4001 79.6159 89.3742 80.2301 91.1504 81.2569L91.347 81.3729C93.3231 82.5562 94.9715 84.1889 96.4939 85.7545C98.0206 87.3192 99.4095 88.8202 100.959 89.718C101.675 90.1327 102.434 90.4148 103.247 90.4831C104.004 90.5456 104.567 90.718 104.967 90.9505C105.328 91.1599 105.563 91.4115 105.721 91.7066C105.956 92.1478 106.018 92.7229 105.898 93.4008C105.78 94.0765 105.479 94.8386 105.039 95.5993C104.675 96.2286 104.219 96.859 103.699 97.4463C101.627 99.7932 98.9077 102.758 95.1004 104.175C91.2956 105.587 86.3639 105.534 79.6434 101.663C72.9063 97.7685 70.121 93.9827 69.1868 90.3206C68.2492 86.6539 69.1746 82.9867 70.1448 79.335L69.6505 79.2044Z" fill="#0A1C2D"/>
<path d="M68.8432 81.8162L101.169 100.479C101.413 100.621 101.726 100.537 101.867 100.292C102.009 100.048 101.925 99.7349 101.68 99.5938L69.3545 80.9306C69.1103 80.7895 68.7972 80.8733 68.656 81.1177C68.5145 81.3628 68.5989 81.6752 68.8432 81.8162Z" fill="#0A1C2D"/>
<path d="M90.5293 101.939C89.6726 103.423 87.7763 103.931 86.2923 103.074L75.0992 96.6119C73.6161 95.7557 73.1063 93.8583 73.9629 92.3745L80.4252 81.1814C81.282 79.6975 83.1801 79.1904 84.6632 80.0466L95.8563 86.5089C97.3402 87.3657 97.8483 89.2621 96.9916 90.746L90.5293 101.939Z" fill="#BDBCBC"/>
<path d="M90.5282 101.94L90.0305 101.652C89.3309 102.86 87.7892 103.273 86.5784 102.577L75.3854 96.115C74.1781 95.415 73.7636 93.872 74.4596 92.6623L80.9219 81.4693C81.6216 80.2616 83.1651 79.849 84.3754 80.5439L95.5684 87.0062C96.7763 87.7074 97.1893 89.2486 96.4928 90.4591L90.0305 101.652L90.5282 101.94L91.026 102.227L97.4883 91.0338C98.5035 89.2755 97.9011 87.0269 96.1426 86.0116L84.9496 79.5493C83.1911 78.5341 80.9433 79.1356 79.9265 80.8945L73.4642 92.0876C72.45 93.8464 73.0529 96.094 74.8108 97.1102L86.0038 103.573C87.7629 104.587 90.0108 103.985 91.026 102.227L90.5282 101.94Z" fill="#0A1C2D"/>
<path d="M89.0695 99.5297C88.6067 99.2515 88.3243 98.775 88.145 98.1835C88.3761 98.0072 88.578 97.7821 88.7328 97.514L92.2614 91.4023C92.8862 90.3179 92.5158 88.9312 91.431 88.304L85.3203 84.776C84.6973 84.4163 83.9764 84.3866 83.3556 84.6294C83.5399 84.0164 83.6338 83.3911 83.6076 82.7541C84.2578 82.8364 84.781 83.0289 85.2092 83.2761C86.4388 83.986 86.8917 85.1539 87.3444 85.5129C88 86.0277 88.5666 86.4133 89.0606 86.6986C91.5675 88.1459 92.2437 87.0507 93.3451 87.5707C93.3966 87.5956 93.4488 87.6235 93.5037 87.6552C94.5147 88.2389 96.0849 90.0683 94.9475 91.7467C93.2386 94.2672 90.8203 97.8811 89.0695 99.5297Z" fill="#908E8E"/>
<path d="M86.5787 102.578L75.3857 96.1156C74.1783 95.4156 73.7639 93.8727 74.4599 92.6629L76.1698 89.7012L76.4571 89.2037L79.2589 84.3507L79.9477 83.1578C78.757 85.592 77.745 88.1075 77.0643 90.7509C76.2337 93.9748 77.8498 96.5109 80.5112 98.0475C80.6768 98.1431 80.847 98.2351 81.0205 98.3233C83.666 99.6615 86.1556 100.86 89.1734 100.41C89.8241 100.312 90.4701 100.098 91.1022 99.7971L90.0308 101.653C89.3311 102.86 87.7895 103.274 86.5787 102.578Z" fill="#908E8E"/>
<path d="M86.2923 103.074L75.0992 96.6119C73.6161 95.7557 73.1063 93.8583 73.9629 92.3745L75.6728 89.4128L76.1706 89.7001L74.4606 92.6618C73.7646 93.8716 74.1791 95.4145 75.3864 96.1145L86.5795 102.577C87.7902 103.273 89.3319 102.859 90.0315 101.652L91.1029 99.796C91.4307 99.6403 91.7547 99.4614 92.0733 99.2646L90.5293 101.939C89.6726 103.423 87.7763 103.931 86.2923 103.074ZM79.2597 84.3496L78.762 84.0623L80.4252 81.1814C80.7116 80.6853 81.1174 80.3016 81.5821 80.0376C81.0121 81.0651 80.4636 82.1037 79.9484 83.1567L79.2597 84.3496Z" fill="#071522"/>
<path d="M88.2345 97.2294C87.7669 98.0393 86.7317 98.3174 85.9211 97.8494L79.8104 94.3214C78.9997 93.8533 78.723 92.8178 79.1905 92.0079L82.7191 85.8962C83.186 85.0875 84.2219 84.8082 85.0326 85.2763L91.1433 88.8043C91.9539 89.2723 92.23 90.309 91.7631 91.1177L88.2345 97.2294Z" fill="#BDBCBC"/>
<path d="M88.2348 97.227L87.7371 96.9396C87.4277 97.4734 86.7447 97.6571 86.2088 97.3492L80.0981 93.8211C79.5626 93.5105 79.3801 92.8272 79.6877 92.2923L83.2163 86.1806C83.5256 85.6469 84.2096 85.4637 84.7454 85.7717L90.8561 89.2998C91.3899 89.6092 91.5732 90.2932 91.2657 90.8279L87.7371 96.9396L88.2348 97.227L88.7325 97.5144L92.2611 91.4027C92.886 90.3182 92.5155 88.9315 91.4308 88.3044L85.3201 84.7764C84.2337 84.15 82.8476 84.5225 82.2218 85.6064L78.6932 91.7181C78.0671 92.8025 78.4379 94.1887 79.5239 94.8157L85.6346 98.3438C86.7197 98.9702 88.1065 98.5987 88.7325 97.5144L88.2348 97.227Z" fill="#0A1C2D"/>
<path d="M86.2084 97.3497L80.0977 93.8216C79.5622 93.511 79.3798 92.8277 79.6873 92.2928L80.757 90.4401L88.8064 95.0874L87.7367 96.9401C87.4273 97.4739 86.7443 97.6576 86.2084 97.3497Z" fill="#908E8E"/>
<path d="M85.9211 97.8494L79.8104 94.3214C78.9997 93.8533 78.723 92.8178 79.1905 92.0079L80.2602 90.1552L80.757 90.442L79.6874 92.2947C79.3798 92.8296 79.5623 93.5129 80.0978 93.8236L86.2085 97.3516C86.7443 97.6595 87.4273 97.4758 87.7367 96.9421L88.8064 95.0894L89.3041 95.3767L88.2345 97.2294C87.7669 98.0393 86.7317 98.3174 85.9211 97.8494Z" fill="#071522"/>
<path d="M80.125 94.3672C79.608 95.2629 78.463 95.5705 77.5654 95.0523C76.6697 94.5352 76.3618 93.3887 76.8789 92.4931L81.7566 84.0448C82.2736 83.1492 83.4205 82.8426 84.3162 83.3597C85.2137 83.8779 85.5198 85.0233 85.0027 85.9189L80.125 94.3672Z" fill="#BDBCBC"/>
<path d="M80.1261 94.3671L79.6284 94.0797C79.2688 94.7004 78.4774 94.9134 77.8539 94.5544C77.2331 94.195 77.02 93.402 77.3777 92.7803L82.2553 84.332C82.6144 83.7121 83.4095 83.4992 84.0304 83.8563C84.6519 84.2166 84.8633 85.0105 84.506 85.6314L79.6284 94.0797L80.1261 94.3671L80.6238 94.6545L85.5014 86.2061C86.177 85.0361 85.7767 83.5383 84.6047 82.8617C83.4336 82.1856 81.937 82.5866 81.2608 83.7578L76.3832 92.2061C75.707 93.3773 76.1079 94.8739 77.279 95.5501C78.451 96.2267 79.9476 95.8256 80.6238 94.6545L80.1261 94.3671Z" fill="#0A1C2D"/>
<path d="M89.0694 99.5313C88.5523 100.427 87.4064 100.734 86.5098 100.216C85.6132 99.6987 85.3062 98.5528 85.8233 97.6572L90.7009 89.2088C91.218 88.3132 92.3639 88.0061 93.2605 88.5238C94.1571 89.0414 94.4641 90.1874 93.947 91.083L89.0694 99.5313Z" fill="#BDBCBC"/>
<path d="M89.0684 99.5317L88.5707 99.2443C88.2112 99.8649 87.4188 100.077 86.7962 99.719C86.1745 99.359 85.9623 98.5666 86.32 97.9449L91.1976 89.4966C91.5568 88.8767 92.3509 88.6633 92.9728 89.0209C93.5943 89.3812 93.8056 90.1751 93.4483 90.796L88.5707 99.2443L89.0684 99.5317L89.5661 99.8191L94.4438 91.3707C95.1184 90.2001 94.719 88.7029 93.547 88.0263C92.3759 87.3502 90.8793 87.7512 90.2022 88.9219L85.3246 97.3702C84.6484 98.5414 85.0503 100.039 86.2214 100.715C87.3934 101.391 88.889 100.99 89.5661 99.8191L89.0684 99.5317Z" fill="#0A1C2D"/>
<path d="M89.3318 89.9246C88.9685 90.5539 88.1637 90.7688 87.5352 90.406L85.6157 89.2977C84.9862 88.9343 84.7718 88.1309 85.1351 87.5016C85.4977 86.8737 86.301 86.657 86.9305 87.0204L88.85 88.1286C89.4785 88.4915 89.6944 89.2966 89.3318 89.9246Z" fill="#DCDBDB"/>
<path d="M95.8495 87.9371C95.6795 88.2316 95.2226 88.2876 94.8301 88.061L83.832 81.7112C83.4395 81.4846 83.2595 81.061 83.4296 80.7665C83.6002 80.4709 84.0565 80.416 84.449 80.6426L95.4471 86.9924C95.8396 87.219 96.0202 87.6415 95.8495 87.9371Z" fill="#DCDBDB"/>
<path d="M93.1445 89.9582C93.441 90.1293 93.5619 90.4713 93.4166 90.7229L89.3541 97.7595C89.2088 98.0111 88.8522 98.0773 88.5558 97.9061C88.2612 97.736 88.1393 97.3936 88.2845 97.142L92.3471 90.1054C92.4924 89.8538 92.8499 89.7881 93.1445 89.9582Z" fill="#DCDBDB"/>
<path d="M84.2011 84.7947C84.4966 84.9653 84.6185 85.3078 84.4732 85.5594L80.4107 92.596C80.2654 92.8476 79.9079 92.9132 79.6124 92.7426C79.3178 92.5725 79.1949 92.2296 79.3402 91.978L83.4028 84.9414C83.548 84.6898 83.9065 84.6246 84.2011 84.7947Z" fill="#DCDBDB"/>
<path d="M70.7637 82.3359L74.3517 77.1439L71.6493 82.8473L70.7637 82.3359Z" fill="#0A1C2D"/>
<path d="M75.4121 85.0195L78.8003 80.1758L76.2987 85.5314L75.4121 85.0195Z" fill="#0A1C2D"/>
<path d="M74.8901 84.716L70.641 91.0531L74.0036 84.2042L74.8901 84.716Z" fill="#0A1C2D"/>
<path d="M96.7217 97.3223L100.109 92.478L97.6082 97.8341L96.7217 97.3223Z" fill="#0A1C2D"/>
<path d="M98.5209 98.3597L95.2084 103.075L97.6344 97.8478L98.5209 98.3597Z" fill="#0A1C2D"/>
<path d="M92.6641 98.5605L143.241 127.761L145.755 123.406L95.1785 94.2054L92.6641 98.5605Z" fill="#BDBCBC"/>
<path d="M143.241 127.762L143.529 127.264L93.45 98.3509L95.3895 94.9914L144.971 123.617L142.744 127.474L143.241 127.762L143.738 128.048L146.54 123.195L94.969 93.421L91.8799 98.7715L143.451 128.546L143.738 128.048L143.241 127.762Z" fill="#0A1C2D"/>
<path d="M93.4492 98.3516L143.03 126.977L143.677 125.856L94.0963 97.2308L93.4492 98.3516Z" fill="#908E8E"/>
<path d="M143.24 127.761L92.6641 98.5605L93.5985 96.942L94.0963 97.2293L93.4492 98.3501L143.03 126.976L143.677 125.855L144.175 126.142L143.24 127.761Z" fill="#071522"/>
<path d="M144.076 123.936C143.905 124.231 143.449 124.287 143.055 124.06L96.2548 97.0393C95.8614 96.8122 95.6822 96.3895 95.8528 96.094C96.024 95.7973 96.4794 95.7418 96.8728 95.969L143.673 122.989C144.067 123.216 144.247 123.639 144.076 123.936Z" fill="#DCDBDB"/>
<path d="M25.3838 59.7168L75.9581 88.9159L78.4725 84.5608L27.8982 55.3617L25.3838 59.7168Z" fill="#BDBCBC"/>
<path d="M75.9601 88.9148L76.2475 88.417L26.1707 59.5052L28.1103 56.1457L77.6894 84.7702L75.4624 88.6275L75.9601 88.9148L76.4578 89.2022L79.2597 84.3492L27.6897 54.5753L24.6006 59.9258L76.1706 89.6997L76.4578 89.2022L75.9601 88.9148Z" fill="#0A1C2D"/>
<path d="M26.1689 59.5078L75.7483 88.1324L76.3953 87.0117L26.816 58.387L26.1689 59.5078Z" fill="#908E8E"/>
<path d="M75.9584 88.916L25.3838 59.7168L26.3183 58.0982L26.816 58.3856L26.1689 59.5064L75.7481 88.1309L76.3951 87.0101L76.8928 87.2975L75.9584 88.916Z" fill="#071522"/>
<path d="M76.7948 85.0914C76.6242 85.3869 76.1676 85.4425 75.7751 85.2159L28.9746 58.1956C28.5811 57.9685 28.4019 57.5457 28.5725 57.2502C28.7438 56.9536 29.1991 56.8981 29.5925 57.1252L76.3931 84.1455C76.7856 84.3721 76.9661 84.7948 76.7948 85.0914Z" fill="#DCDBDB"/>
</g>
</svg>
