<svg width="22" height="22" viewBox="0 0 22 22" fill="none" xmlns="http://www.w3.org/2000/svg">
<path d="M11.9416 1.83203C12.9728 1.83478 13.4962 1.84028 13.9481 1.85311L14.126 1.85953C14.3313 1.86686 14.5339 1.87603 14.7786 1.88703C15.754 1.93286 16.4195 2.08686 17.0034 2.31328C17.6084 2.54611 18.1181 2.86145 18.6277 3.3702C19.0938 3.82844 19.4545 4.38274 19.6846 4.99453C19.9111 5.57845 20.0651 6.24395 20.1109 7.2202C20.1219 7.46403 20.1311 7.66662 20.1384 7.87287L20.1439 8.0507C20.1576 8.5017 20.1631 9.02512 20.165 10.0564L20.1659 10.7402V11.941C20.1681 12.6097 20.1611 13.2783 20.1448 13.9467L20.1393 14.1245C20.132 14.3308 20.1228 14.5334 20.1118 14.7772C20.066 15.7534 19.9101 16.418 19.6846 17.0029C19.4552 17.615 19.0944 18.1694 18.6277 18.6272C18.1694 19.0932 17.6151 19.4538 17.0034 19.6841C16.4195 19.9105 15.754 20.0645 14.7786 20.1104C14.5611 20.1206 14.3436 20.1298 14.126 20.1379L13.9481 20.1434C13.4962 20.1562 12.9728 20.1626 11.9416 20.1645L11.2577 20.1654H10.0578C9.38888 20.1677 8.71996 20.1606 8.05123 20.1443L7.87339 20.1388C7.65579 20.1305 7.43823 20.1211 7.22073 20.1104C6.24539 20.0645 5.57989 19.9105 4.99506 19.6841C4.38334 19.4544 3.82926 19.0936 3.37164 18.6272C2.9051 18.1691 2.5441 17.6148 2.31381 17.0029C2.08739 16.4189 1.93339 15.7534 1.88756 14.7772C1.87735 14.5597 1.86818 14.3421 1.86006 14.1245L1.85548 13.9467C1.83858 13.2783 1.83094 12.6097 1.83256 11.941V10.0564C1.83 9.38775 1.83672 8.71913 1.85273 8.0507L1.85914 7.87287C1.86648 7.66662 1.87564 7.46403 1.88664 7.2202C1.93248 6.24395 2.08648 5.57936 2.31289 4.99453C2.54308 4.38211 2.9048 3.82764 3.37256 3.3702C3.83006 2.90405 4.38378 2.54335 4.99506 2.31328C5.57989 2.08686 6.24448 1.93286 7.22073 1.88703C7.46456 1.87603 7.66806 1.86686 7.87339 1.85953L8.05123 1.85403C8.71965 1.83774 9.38827 1.83072 10.0569 1.83295L11.9416 1.83203ZM10.9992 6.41536C9.78365 6.41536 8.61786 6.89825 7.75832 7.75779C6.89878 8.61733 6.41589 9.78312 6.41589 10.9987C6.41589 12.2143 6.89878 13.3801 7.75832 14.2396C8.61786 15.0991 9.78365 15.582 10.9992 15.582C12.2148 15.582 13.3806 15.0991 14.2401 14.2396C15.0997 13.3801 15.5826 12.2143 15.5826 10.9987C15.5826 9.78312 15.0997 8.61733 14.2401 7.75779C13.3806 6.89825 12.2148 6.41536 10.9992 6.41536ZM10.9992 8.2487C11.3604 8.24864 11.718 8.31971 12.0516 8.45785C12.3853 8.596 12.6885 8.79851 12.9439 9.05383C13.1993 9.30915 13.4019 9.61227 13.5402 9.9459C13.6784 10.2795 13.7496 10.6371 13.7497 10.9982C13.7497 11.3594 13.6787 11.717 13.5405 12.0507C13.4024 12.3843 13.1999 12.6875 12.9446 12.9429C12.6892 13.1983 12.3861 13.4009 12.0525 13.5392C11.7189 13.6774 11.3613 13.7486 11.0001 13.7487C10.2708 13.7487 9.57133 13.459 9.0556 12.9432C8.53987 12.4275 8.25014 11.728 8.25014 10.9987C8.25014 10.2694 8.53987 9.56988 9.0556 9.05415C9.57133 8.53843 10.2708 8.2487 11.0001 8.2487M15.8126 5.04036C15.5087 5.04036 15.2173 5.16109 15.0024 5.37597C14.7875 5.59086 14.6668 5.8823 14.6668 6.1862C14.6668 6.49009 14.7875 6.78154 15.0024 6.99642C15.2173 7.21131 15.5087 7.33203 15.8126 7.33203C16.1165 7.33203 16.408 7.21131 16.6229 6.99642C16.8378 6.78154 16.9585 6.49009 16.9585 6.1862C16.9585 5.8823 16.8378 5.59086 16.6229 5.37597C16.408 5.16109 16.1165 5.04036 15.8126 5.04036Z" fill="#126C9F"/>
</svg>
