<svg width="240" height="328" viewBox="0 0 240 328" fill="none" xmlns="http://www.w3.org/2000/svg">
<line y1="-1" x2="10.0155" y2="-1" transform="matrix(0.342564 -0.939495 0.93989 0.341477 164.44 10.5044)" stroke="#96D0F1" stroke-width="2"/>
<line y1="-1" x2="10.0179" y2="-1" transform="matrix(0.500675 -0.865635 0.866414 0.499326 185.823 10.1919)" stroke="#96D0F1" stroke-width="2"/>
<line y1="-1" x2="10.0209" y2="-1" transform="matrix(0.643467 -0.765474 0.766614 0.642108 207.32 9.87866)" stroke="#96D0F1" stroke-width="2"/>
<line y1="-1" x2="10.024" y2="-1" transform="matrix(0.766613 -0.642109 0.643466 0.765475 228.961 9.25293)" stroke="#96D0F1" stroke-width="2"/>
<line y1="-1" x2="10.024" y2="-1" transform="matrix(-0.766613 -0.642109 0.643466 -0.765475 14.7798 9.25293)" stroke="#96D0F1" stroke-width="2"/>
<line y1="-1" x2="10.0209" y2="-1" transform="matrix(-0.643466 -0.765475 0.766613 -0.642109 36.4241 9.87866)" stroke="#96D0F1" stroke-width="2"/>
<line y1="-1" x2="10.0179" y2="-1" transform="matrix(-0.500675 -0.865635 0.866414 -0.499326 57.9205 10.1919)" stroke="#96D0F1" stroke-width="2"/>
<line y1="-1" x2="10.0155" y2="-1" transform="matrix(-0.342563 -0.939495 0.93989 -0.341478 79.3037 10.5044)" stroke="#96D0F1" stroke-width="2"/>
<line y1="-1" x2="10.0139" y2="-1" transform="matrix(-0.173952 -0.984754 0.984861 -0.173345 100.608 10.8176)" stroke="#96D0F1" stroke-width="2"/>
<line x1="120.872" y1="10.8176" x2="120.872" y2="0.804224" stroke="#96D0F1" stroke-width="2"/>
<line y1="-1" x2="10.0139" y2="-1" transform="matrix(0.173952 -0.984754 0.984861 0.173345 143.135 10.8176)" stroke="#96D0F1" stroke-width="2"/>
<line y1="-1" x2="10.0155" y2="-1" transform="matrix(0.342564 -0.939495 0.93989 0.341477 141.871 28.0281)" stroke="#96D0F1" stroke-width="2"/>
<line y1="-1" x2="10.0179" y2="-1" transform="matrix(0.500675 -0.865635 0.866414 0.499326 163.251 27.7149)" stroke="#96D0F1" stroke-width="2"/>
<line y1="-1" x2="10.0209" y2="-1" transform="matrix(0.643467 -0.765474 0.766614 0.642108 184.747 27.4024)" stroke="#96D0F1" stroke-width="2"/>
<line y1="-1" x2="10.024" y2="-1" transform="matrix(0.766613 -0.642109 0.643466 0.765475 206.392 26.7767)" stroke="#96D0F1" stroke-width="2"/>
<line y1="-1" x2="10.0269" y2="-1" transform="matrix(0.866414 -0.499326 0.500674 0.865636 228.209 25.8378)" stroke="#96D0F1" stroke-width="2"/>
<line y1="-1" x2="10.0209" y2="-1" transform="matrix(-0.643466 -0.765475 0.766613 -0.642109 13.8549 27.4024)" stroke="#96D0F1" stroke-width="2"/>
<line y1="-1" x2="10.0179" y2="-1" transform="matrix(-0.500675 -0.865636 0.866414 -0.499326 35.3513 27.7149)" stroke="#96D0F1" stroke-width="2"/>
<line y1="-1" x2="10.0155" y2="-1" transform="matrix(-0.342564 -0.939495 0.93989 -0.341477 56.7313 28.0281)" stroke="#96D0F1" stroke-width="2"/>
<line y1="-1" x2="10.0139" y2="-1" transform="matrix(-0.173952 -0.984754 0.984861 -0.173345 78.0359 28.3406)" stroke="#96D0F1" stroke-width="2"/>
<line x1="98.2996" y1="28.3406" x2="98.2996" y2="18.3272" stroke="#96D0F1" stroke-width="2"/>
<line y1="-1" x2="10.0139" y2="-1" transform="matrix(0.173951 -0.984754 0.984861 0.173346 120.566 28.3406)" stroke="#96D0F1" stroke-width="2"/>
<line y1="-1" x2="10.0155" y2="-1" transform="matrix(0.342564 -0.939494 0.93989 0.341477 119.298 45.5519)" stroke="#96D0F1" stroke-width="2"/>
<line y1="-1" x2="10.0179" y2="-1" transform="matrix(0.500675 -0.865635 0.866414 0.499325 140.682 45.2386)" stroke="#96D0F1" stroke-width="2"/>
<line y1="-1" x2="10.0209" y2="-1" transform="matrix(0.643467 -0.765474 0.766614 0.642108 162.178 44.9254)" stroke="#96D0F1" stroke-width="2"/>
<line y1="-1" x2="10.024" y2="-1" transform="matrix(0.766613 -0.642109 0.643466 0.765475 183.822 44.2997)" stroke="#96D0F1" stroke-width="2"/>
<line y1="-1" x2="10.0269" y2="-1" transform="matrix(0.866415 -0.499325 0.500675 0.865635 205.64 43.3607)" stroke="#96D0F1" stroke-width="2"/>
<line y1="-1" x2="10.0293" y2="-1" transform="matrix(0.93989 -0.341477 0.342564 0.939495 227.655 42.735)" stroke="#96D0F1" stroke-width="2"/>
<line y1="-1" x2="10.0179" y2="-1" transform="matrix(-0.500675 -0.865635 0.866414 -0.499325 12.7789 45.2386)" stroke="#96D0F1" stroke-width="2"/>
<line y1="-1" x2="10.0155" y2="-1" transform="matrix(-0.342564 -0.939495 0.93989 -0.341477 34.1621 45.5519)" stroke="#96D0F1" stroke-width="2"/>
<line y1="-1" x2="10.0139" y2="-1" transform="matrix(-0.173951 -0.984754 0.984861 -0.173345 55.4667 45.8644)" stroke="#96D0F1" stroke-width="2"/>
<line x1="75.7302" y1="45.8644" x2="75.7302" y2="35.851" stroke="#96D0F1" stroke-width="2"/>
<line y1="-1" x2="10.0139" y2="-1" transform="matrix(0.173951 -0.984754 0.984861 0.173346 97.9939 45.8644)" stroke="#96D0F1" stroke-width="2"/>
<line y1="-1" x2="10.0155" y2="-1" transform="matrix(0.342564 -0.939495 0.93989 0.341477 96.7292 63.0749)" stroke="#96D0F1" stroke-width="2"/>
<line y1="-1" x2="10.0179" y2="-1" transform="matrix(0.500675 -0.865636 0.866414 0.499326 118.109 62.7624)" stroke="#96D0F1" stroke-width="2"/>
<line y1="-1" x2="10.0209" y2="-1" transform="matrix(0.643467 -0.765474 0.766614 0.642108 139.606 62.4492)" stroke="#96D0F1" stroke-width="2"/>
<line y1="-1" x2="10.024" y2="-1" transform="matrix(0.766614 -0.642109 0.643466 0.765475 161.25 61.8234)" stroke="#96D0F1" stroke-width="2"/>
<line y1="-1" x2="10.0269" y2="-1" transform="matrix(0.866415 -0.499325 0.500675 0.865635 183.07 60.8845)" stroke="#96D0F1" stroke-width="2"/>
<line y1="-1" x2="10.0293" y2="-1" transform="matrix(0.93989 -0.341477 0.342564 0.939495 205.086 60.2588)" stroke="#96D0F1" stroke-width="2"/>
<line y1="-1" x2="10.0309" y2="-1" transform="matrix(0.984861 -0.173346 0.173951 0.984754 227.319 59.3198)" stroke="#96D0F1" stroke-width="2"/>
<line y1="-1" x2="10.0155" y2="-1" transform="matrix(-0.342564 -0.939495 0.93989 -0.341477 11.5897 63.0749)" stroke="#96D0F1" stroke-width="2"/>
<line y1="-1" x2="10.0139" y2="-1" transform="matrix(-0.173951 -0.984754 0.984861 -0.173345 32.8943 63.3881)" stroke="#96D0F1" stroke-width="2"/>
<line x1="53.158" y1="63.3881" x2="53.158" y2="53.3747" stroke="#96D0F1" stroke-width="2"/>
<line y1="-1" x2="10.0139" y2="-1" transform="matrix(0.173952 -0.984754 0.984861 0.173345 75.4247 63.3881)" stroke="#96D0F1" stroke-width="2"/>
<line y1="-1" x2="10.0155" y2="-1" transform="matrix(0.342564 -0.939495 0.93989 0.341477 74.1569 80.5986)" stroke="#96D0F1" stroke-width="2"/>
<line y1="-1" x2="10.0179" y2="-1" transform="matrix(0.500675 -0.865635 0.866414 0.499325 95.54 80.2854)" stroke="#96D0F1" stroke-width="2"/>
<line y1="-1" x2="10.0209" y2="-1" transform="matrix(0.643466 -0.765474 0.766614 0.642109 117.036 79.9729)" stroke="#96D0F1" stroke-width="2"/>
<line y1="-1" x2="10.024" y2="-1" transform="matrix(0.766614 -0.642109 0.643466 0.765474 138.681 79.3464)" stroke="#96D0F1" stroke-width="2"/>
<line y1="-1" x2="10.0269" y2="-1" transform="matrix(0.866414 -0.499326 0.500675 0.865635 160.498 78.4083)" stroke="#96D0F1" stroke-width="2"/>
<line y1="-1" x2="10.0293" y2="-1" transform="matrix(0.93989 -0.341477 0.342564 0.939495 182.514 77.7817)" stroke="#96D0F1" stroke-width="2"/>
<line y1="-1" x2="10.0309" y2="-1" transform="matrix(0.984861 -0.173345 0.173951 0.984754 204.746 76.8436)" stroke="#96D0F1" stroke-width="2"/>
<line y1="-1" x2="10.0139" y2="-1" transform="matrix(-0.173951 -0.984754 0.984861 -0.173345 10.3251 80.9111)" stroke="#96D0F1" stroke-width="2"/>
<line x1="30.5887" y1="80.9111" x2="30.5887" y2="70.8977" stroke="#96D0F1" stroke-width="2"/>
<line y1="-1" x2="10.0139" y2="-1" transform="matrix(0.173951 -0.984754 0.984861 0.173345 52.8523 80.9111)" stroke="#96D0F1" stroke-width="2"/>
<line x1="239.742" y1="76.9047" x2="229.711" y2="76.9047" stroke="#96D0F1" stroke-width="2"/>
<line y1="-1" x2="10.0155" y2="-1" transform="matrix(0.342564 -0.939495 0.93989 0.341477 51.5876 98.1216)" stroke="#96D0F1" stroke-width="2"/>
<line y1="-1" x2="10.0179" y2="-1" transform="matrix(0.500675 -0.865635 0.866414 0.499325 72.9677 97.8091)" stroke="#96D0F1" stroke-width="2"/>
<line y1="-1" x2="10.0209" y2="-1" transform="matrix(0.643466 -0.765475 0.766613 0.642109 94.4641 97.4959)" stroke="#96D0F1" stroke-width="2"/>
<line y1="-1" x2="10.024" y2="-1" transform="matrix(0.766613 -0.642109 0.643466 0.765475 116.108 96.8702)" stroke="#96D0F1" stroke-width="2"/>
<line y1="-1" x2="10.0269" y2="-1" transform="matrix(0.866415 -0.499325 0.500675 0.865635 137.929 95.9312)" stroke="#96D0F1" stroke-width="2"/>
<line y1="-1" x2="10.0293" y2="-1" transform="matrix(0.93989 -0.341477 0.342564 0.939495 159.944 95.3055)" stroke="#96D0F1" stroke-width="2"/>
<line y1="-1" x2="10.0309" y2="-1" transform="matrix(0.984861 -0.173346 0.173951 0.984754 182.177 94.3666)" stroke="#96D0F1" stroke-width="2"/>
<line x1="8.01636" y1="98.4349" x2="8.01636" y2="88.4215" stroke="#96D0F1" stroke-width="2"/>
<line y1="-1" x2="10.014" y2="-1" transform="matrix(0.173951 -0.984754 0.984861 0.173346 30.2831 98.4349)" stroke="#96D0F1" stroke-width="2"/>
<line x1="217.17" y1="94.4284" x2="207.138" y2="94.4284" stroke="#96D0F1" stroke-width="2"/>
<line y1="-1" x2="10.0309" y2="-1" transform="matrix(-0.984861 -0.173346 0.173951 -0.984754 239.629 94.3666)" stroke="#96D0F1" stroke-width="2"/>
<line y1="-1" x2="10.0155" y2="-1" transform="matrix(0.342564 -0.939494 0.93989 0.341477 29.0153 115.645)" stroke="#96D0F1" stroke-width="2"/>
<line y1="-1" x2="10.0179" y2="-1" transform="matrix(0.500674 -0.865636 0.866414 0.499326 50.3984 115.332)" stroke="#96D0F1" stroke-width="2"/>
<line y1="-1" x2="10.0209" y2="-1" transform="matrix(0.643465 -0.765475 0.766613 0.642109 71.8949 115.02)" stroke="#96D0F1" stroke-width="2"/>
<line y1="-1" x2="10.024" y2="-1" transform="matrix(0.766613 -0.642109 0.643466 0.765475 93.5392 114.394)" stroke="#96D0F1" stroke-width="2"/>
<line y1="-1" x2="10.0269" y2="-1" transform="matrix(0.866415 -0.499325 0.500675 0.865635 115.357 113.455)" stroke="#96D0F1" stroke-width="2"/>
<line y1="-1" x2="10.0293" y2="-1" transform="matrix(0.93989 -0.341477 0.342564 0.939495 137.372 112.829)" stroke="#96D0F1" stroke-width="2"/>
<line y1="-1" x2="10.0309" y2="-1" transform="matrix(0.984861 -0.173345 0.173951 0.984754 159.605 111.89)" stroke="#96D0F1" stroke-width="2"/>
<line y1="-1" x2="10.0139" y2="-1" transform="matrix(0.173951 -0.984754 0.984861 0.173345 7.71082 115.959)" stroke="#96D0F1" stroke-width="2"/>
<line x1="194.6" y1="111.951" x2="184.569" y2="111.951" stroke="#96D0F1" stroke-width="2"/>
<line y1="-1" x2="10.0309" y2="-1" transform="matrix(-0.984861 -0.173345 0.173951 -0.984754 217.056 111.89)" stroke="#96D0F1" stroke-width="2"/>
<line y1="-1" x2="10.0293" y2="-1" transform="matrix(-0.93989 -0.341477 0.342564 -0.939494 239.289 112.829)" stroke="#96D0F1" stroke-width="2"/>
<line y1="-1" x2="10.0155" y2="-1" transform="matrix(0.342563 -0.939495 0.93989 0.341477 6.44604 133.169)" stroke="#96D0F1" stroke-width="2"/>
<line y1="-1" x2="10.0179" y2="-1" transform="matrix(0.500675 -0.865636 0.866414 0.499326 27.8262 132.856)" stroke="#96D0F1" stroke-width="2"/>
<line y1="-1" x2="10.0209" y2="-1" transform="matrix(0.643466 -0.765475 0.766613 0.642109 49.3225 132.543)" stroke="#96D0F1" stroke-width="2"/>
<line y1="-1" x2="10.024" y2="-1" transform="matrix(0.766613 -0.642109 0.643466 0.765475 70.9669 131.917)" stroke="#96D0F1" stroke-width="2"/>
<line y1="-1" x2="10.0269" y2="-1" transform="matrix(0.866414 -0.499326 0.500674 0.865636 92.7874 130.978)" stroke="#96D0F1" stroke-width="2"/>
<line y1="-1" x2="10.0293" y2="-1" transform="matrix(0.93989 -0.341477 0.342564 0.939494 114.803 130.352)" stroke="#96D0F1" stroke-width="2"/>
<line y1="-1" x2="10.0309" y2="-1" transform="matrix(0.984861 -0.173346 0.173951 0.984754 137.035 129.414)" stroke="#96D0F1" stroke-width="2"/>
<line y1="-1" x2="10.0269" y2="-1" transform="matrix(-0.866414 -0.499326 0.500675 -0.865635 238.735 130.978)" stroke="#96D0F1" stroke-width="2"/>
<line x1="172.031" y1="129.475" x2="162" y2="129.475" stroke="#96D0F1" stroke-width="2"/>
<line y1="-1" x2="10.0309" y2="-1" transform="matrix(-0.984861 -0.173346 0.173951 -0.984754 194.487 129.414)" stroke="#96D0F1" stroke-width="2"/>
<line y1="-1" x2="10.0293" y2="-1" transform="matrix(-0.93989 -0.341477 0.342564 -0.939494 216.717 130.352)" stroke="#96D0F1" stroke-width="2"/>
<line y1="-1" x2="10.0179" y2="-1" transform="matrix(0.500675 -0.865635 0.866414 0.499326 5.25696 150.38)" stroke="#96D0F1" stroke-width="2"/>
<line y1="-1" x2="10.0209" y2="-1" transform="matrix(0.643466 -0.765475 0.766613 0.642109 26.7533 150.066)" stroke="#96D0F1" stroke-width="2"/>
<line y1="-1" x2="10.024" y2="-1" transform="matrix(0.766613 -0.642109 0.643466 0.765475 48.3977 149.441)" stroke="#96D0F1" stroke-width="2"/>
<line y1="-1" x2="10.0269" y2="-1" transform="matrix(0.866415 -0.499325 0.500675 0.865635 70.215 148.502)" stroke="#96D0F1" stroke-width="2"/>
<line y1="-1" x2="10.0293" y2="-1" transform="matrix(0.93989 -0.341477 0.342564 0.939495 92.2305 147.876)" stroke="#96D0F1" stroke-width="2"/>
<line y1="-1" x2="10.0309" y2="-1" transform="matrix(0.984861 -0.173345 0.173952 0.984754 114.463 146.937)" stroke="#96D0F1" stroke-width="2"/>
<line y1="-1" x2="10.0269" y2="-1" transform="matrix(-0.866415 -0.499325 0.500675 -0.865635 216.163 148.502)" stroke="#96D0F1" stroke-width="2"/>
<line y1="-1" x2="10.024" y2="-1" transform="matrix(-0.766613 -0.642109 0.643466 -0.765475 237.983 149.441)" stroke="#96D0F1" stroke-width="2"/>
<line x1="149.459" y1="146.998" x2="139.427" y2="146.998" stroke="#96D0F1" stroke-width="2"/>
<line y1="-1" x2="10.0309" y2="-1" transform="matrix(-0.984861 -0.173344 0.173952 -0.984754 171.915 146.937)" stroke="#96D0F1" stroke-width="2"/>
<line y1="-1" x2="10.0293" y2="-1" transform="matrix(-0.93989 -0.341477 0.342564 -0.939495 194.147 147.876)" stroke="#96D0F1" stroke-width="2"/>
<line y1="-1" x2="10.0208" y2="-1" transform="matrix(0.643467 -0.765474 0.766614 0.642108 4.18103 167.59)" stroke="#96D0F1" stroke-width="2"/>
<line y1="-1" x2="10.024" y2="-1" transform="matrix(0.766614 -0.642108 0.643467 0.765474 25.8253 166.964)" stroke="#96D0F1" stroke-width="2"/>
<line y1="-1" x2="10.0269" y2="-1" transform="matrix(0.866414 -0.499326 0.500674 0.865636 47.6458 166.026)" stroke="#96D0F1" stroke-width="2"/>
<line y1="-1" x2="10.0293" y2="-1" transform="matrix(0.93989 -0.341478 0.342563 0.939495 69.6613 165.4)" stroke="#96D0F1" stroke-width="2"/>
<line y1="-1" x2="10.0309" y2="-1" transform="matrix(0.984861 -0.173346 0.173951 0.984754 91.8939 164.461)" stroke="#96D0F1" stroke-width="2"/>
<line y1="-1" x2="10.0269" y2="-1" transform="matrix(-0.866414 -0.499327 0.500674 -0.865636 193.594 166.026)" stroke="#96D0F1" stroke-width="2"/>
<line y1="-1" x2="10.024" y2="-1" transform="matrix(-0.766614 -0.642108 0.643467 -0.765474 215.411 166.964)" stroke="#96D0F1" stroke-width="2"/>
<line y1="-1" x2="10.0209" y2="-1" transform="matrix(-0.643467 -0.765474 0.766614 -0.642108 237.055 167.59)" stroke="#96D0F1" stroke-width="2"/>
<line x1="126.89" y1="164.522" x2="116.858" y2="164.522" stroke="#96D0F1" stroke-width="2"/>
<line y1="-1" x2="10.0309" y2="-1" transform="matrix(-0.984861 -0.173346 0.173951 -0.984754 149.346 164.461)" stroke="#96D0F1" stroke-width="2"/>
<line y1="-1" x2="10.0293" y2="-1" transform="matrix(-0.93989 -0.341477 0.342564 -0.939495 171.578 165.4)" stroke="#96D0F1" stroke-width="2"/>
<line y1="-1" x2="10.024" y2="-1" transform="matrix(0.766613 -0.642109 0.643466 0.765475 3.2561 184.487)" stroke="#96D0F1" stroke-width="2"/>
<line y1="-1" x2="10.0269" y2="-1" transform="matrix(0.866415 -0.499325 0.500675 0.865635 25.0734 183.548)" stroke="#96D0F1" stroke-width="2"/>
<line y1="-1" x2="10.0293" y2="-1" transform="matrix(0.93989 -0.341477 0.342563 0.939495 47.0889 182.923)" stroke="#96D0F1" stroke-width="2"/>
<line y1="-1" x2="10.0309" y2="-1" transform="matrix(0.984861 -0.173346 0.173951 0.984754 69.3215 181.984)" stroke="#96D0F1" stroke-width="2"/>
<line y1="-1" x2="10.0269" y2="-1" transform="matrix(-0.866414 -0.499326 0.500675 -0.865636 171.021 183.548)" stroke="#96D0F1" stroke-width="2"/>
<line y1="-1" x2="10.024" y2="-1" transform="matrix(-0.766613 -0.642109 0.643466 -0.765475 192.842 184.487)" stroke="#96D0F1" stroke-width="2"/>
<line y1="-1" x2="10.0209" y2="-1" transform="matrix(-0.643466 -0.765474 0.766614 -0.642109 214.483 185.113)" stroke="#96D0F1" stroke-width="2"/>
<line y1="-1" x2="10.0179" y2="-1" transform="matrix(-0.500675 -0.865635 0.866414 -0.499325 235.983 185.426)" stroke="#96D0F1" stroke-width="2"/>
<line x1="104.317" y1="182.046" x2="94.2859" y2="182.046" stroke="#96D0F1" stroke-width="2"/>
<line y1="-1" x2="10.0309" y2="-1" transform="matrix(-0.984861 -0.173346 0.173951 -0.984754 126.773 181.984)" stroke="#96D0F1" stroke-width="2"/>
<line y1="-1" x2="10.0293" y2="-1" transform="matrix(-0.93989 -0.341477 0.342564 -0.939495 149.006 182.923)" stroke="#96D0F1" stroke-width="2"/>
<line y1="-1" x2="10.0269" y2="-1" transform="matrix(0.866415 -0.499325 0.500675 0.865635 2.50415 201.072)" stroke="#96D0F1" stroke-width="2"/>
<line y1="-1" x2="10.0293" y2="-1" transform="matrix(0.93989 -0.341476 0.342565 0.939494 24.5198 200.447)" stroke="#96D0F1" stroke-width="2"/>
<line y1="-1" x2="10.0309" y2="-1" transform="matrix(0.984861 -0.173346 0.173951 0.984754 46.7523 199.508)" stroke="#96D0F1" stroke-width="2"/>
<line y1="-1" x2="10.0269" y2="-1" transform="matrix(-0.866414 -0.499326 0.500675 -0.865636 148.452 201.072)" stroke="#96D0F1" stroke-width="2"/>
<line y1="-1" x2="10.024" y2="-1" transform="matrix(-0.766613 -0.642109 0.643466 -0.765475 170.27 202.011)" stroke="#96D0F1" stroke-width="2"/>
<line y1="-1" x2="10.0209" y2="-1" transform="matrix(-0.643466 -0.765474 0.766614 -0.642109 191.914 202.637)" stroke="#96D0F1" stroke-width="2"/>
<line y1="-1" x2="10.0179" y2="-1" transform="matrix(-0.500675 -0.865635 0.866414 -0.499325 213.41 202.949)" stroke="#96D0F1" stroke-width="2"/>
<line y1="-1" x2="10.0155" y2="-1" transform="matrix(-0.342564 -0.939494 0.93989 -0.341477 234.793 203.263)" stroke="#96D0F1" stroke-width="2"/>
<line x1="81.7482" y1="199.569" x2="71.7167" y2="199.569" stroke="#96D0F1" stroke-width="2"/>
<line y1="-1" x2="10.0309" y2="-1" transform="matrix(-0.984861 -0.173346 0.173951 -0.984754 104.204 199.508)" stroke="#96D0F1" stroke-width="2"/>
<line y1="-1" x2="10.0293" y2="-1" transform="matrix(-0.93989 -0.341476 0.342565 -0.939494 126.437 200.447)" stroke="#96D0F1" stroke-width="2"/>
<line y1="-1" x2="10.0293" y2="-1" transform="matrix(0.93989 -0.341477 0.342563 0.939495 1.94739 217.969)" stroke="#96D0F1" stroke-width="2"/>
<line y1="-1" x2="10.0309" y2="-1" transform="matrix(0.984861 -0.173345 0.173952 0.984754 24.1799 217.031)" stroke="#96D0F1" stroke-width="2"/>
<line y1="-1" x2="10.0269" y2="-1" transform="matrix(-0.866415 -0.499325 0.500675 -0.865635 125.88 218.596)" stroke="#96D0F1" stroke-width="2"/>
<line y1="-1" x2="10.024" y2="-1" transform="matrix(-0.766613 -0.64211 0.643465 -0.765475 147.7 219.534)" stroke="#96D0F1" stroke-width="2"/>
<line y1="-1" x2="10.0208" y2="-1" transform="matrix(-0.643466 -0.765474 0.766614 -0.642109 169.345 220.16)" stroke="#96D0F1" stroke-width="2"/>
<line y1="-1" x2="10.0179" y2="-1" transform="matrix(-0.500675 -0.865635 0.866414 -0.499325 190.841 220.473)" stroke="#96D0F1" stroke-width="2"/>
<line y1="-1" x2="10.0155" y2="-1" transform="matrix(-0.342564 -0.939494 0.93989 -0.341477 212.221 220.786)" stroke="#96D0F1" stroke-width="2"/>
<line y1="-1" x2="10.014" y2="-1" transform="matrix(-0.173952 -0.984754 0.984861 -0.173345 233.526 221.099)" stroke="#96D0F1" stroke-width="2"/>
<line x1="59.1758" y1="217.092" x2="49.1443" y2="217.092" stroke="#96D0F1" stroke-width="2"/>
<line y1="-1" x2="10.0309" y2="-1" transform="matrix(-0.984861 -0.173345 0.173952 -0.984754 81.6317 217.031)" stroke="#96D0F1" stroke-width="2"/>
<line y1="-1" x2="10.0293" y2="-1" transform="matrix(-0.93989 -0.341478 0.342563 -0.939495 103.864 217.969)" stroke="#96D0F1" stroke-width="2"/>
<line y1="-1" x2="10.0309" y2="-1" transform="matrix(0.984861 -0.173345 0.173952 0.984754 1.61072 234.554)" stroke="#96D0F1" stroke-width="2"/>
<line y1="-1" x2="10.0269" y2="-1" transform="matrix(-0.866415 -0.499325 0.500675 -0.865635 103.311 236.119)" stroke="#96D0F1" stroke-width="2"/>
<line y1="-1" x2="10.024" y2="-1" transform="matrix(-0.766613 -0.642109 0.643466 -0.765475 125.128 237.058)" stroke="#96D0F1" stroke-width="2"/>
<line y1="-1" x2="10.0209" y2="-1" transform="matrix(-0.643465 -0.765475 0.766613 -0.642109 146.772 237.684)" stroke="#96D0F1" stroke-width="2"/>
<line y1="-1" x2="10.0179" y2="-1" transform="matrix(-0.500675 -0.865635 0.866414 -0.499325 168.269 237.997)" stroke="#96D0F1" stroke-width="2"/>
<line y1="-1" x2="10.0155" y2="-1" transform="matrix(-0.342564 -0.939494 0.93989 -0.341477 189.652 238.309)" stroke="#96D0F1" stroke-width="2"/>
<line y1="-1" x2="10.0139" y2="-1" transform="matrix(-0.173952 -0.984754 0.984861 -0.173345 210.956 238.623)" stroke="#96D0F1" stroke-width="2"/>
<line x1="231.22" y1="238.623" x2="231.22" y2="228.609" stroke="#96D0F1" stroke-width="2"/>
<line x1="36.6066" y1="234.615" x2="26.5751" y2="234.615" stroke="#96D0F1" stroke-width="2"/>
<line y1="-1" x2="10.0309" y2="-1" transform="matrix(-0.984861 -0.173345 0.173952 -0.984754 59.0625 234.554)" stroke="#96D0F1" stroke-width="2"/>
<line y1="-1" x2="10.0293" y2="-1" transform="matrix(-0.93989 -0.341478 0.342563 -0.939495 81.295 235.493)" stroke="#96D0F1" stroke-width="2"/>
<line y1="-1" x2="10.0269" y2="-1" transform="matrix(-0.866415 -0.499325 0.500675 -0.865635 80.7383 253.643)" stroke="#96D0F1" stroke-width="2"/>
<line y1="-1" x2="10.024" y2="-1" transform="matrix(-0.766613 -0.642109 0.643466 -0.765475 102.559 254.581)" stroke="#96D0F1" stroke-width="2"/>
<line y1="-1" x2="10.0209" y2="-1" transform="matrix(-0.643466 -0.765475 0.766613 -0.642109 124.203 255.207)" stroke="#96D0F1" stroke-width="2"/>
<line y1="-1" x2="10.0179" y2="-1" transform="matrix(-0.500675 -0.865635 0.866414 -0.499325 145.699 255.52)" stroke="#96D0F1" stroke-width="2"/>
<line y1="-1" x2="10.0155" y2="-1" transform="matrix(-0.342564 -0.939495 0.93989 -0.341477 167.079 255.833)" stroke="#96D0F1" stroke-width="2"/>
<line y1="-1" x2="10.014" y2="-1" transform="matrix(-0.173951 -0.984754 0.984861 -0.173346 188.384 256.146)" stroke="#96D0F1" stroke-width="2"/>
<line x1="208.648" y1="256.146" x2="208.648" y2="246.132" stroke="#96D0F1" stroke-width="2"/>
<line y1="-1" x2="10.014" y2="-1" transform="matrix(0.173951 -0.984754 0.984861 0.173346 230.914 256.146)" stroke="#96D0F1" stroke-width="2"/>
<line x1="14.0342" y1="252.139" x2="4.00275" y2="252.139" stroke="#96D0F1" stroke-width="2"/>
<line y1="-1" x2="10.0309" y2="-1" transform="matrix(-0.984861 -0.173345 0.173952 -0.984754 36.4901 252.078)" stroke="#96D0F1" stroke-width="2"/>
<line y1="-1" x2="10.0293" y2="-1" transform="matrix(-0.93989 -0.341477 0.342563 -0.939495 58.7228 253.017)" stroke="#96D0F1" stroke-width="2"/>
<line y1="-1" x2="10.0155" y2="-1" transform="matrix(0.342564 -0.939494 0.93989 0.341477 229.647 273.356)" stroke="#96D0F1" stroke-width="2"/>
<line y1="-1" x2="10.0269" y2="-1" transform="matrix(-0.866414 -0.499326 0.500674 -0.865636 58.1691 271.166)" stroke="#96D0F1" stroke-width="2"/>
<line y1="-1" x2="10.024" y2="-1" transform="matrix(-0.766613 -0.642109 0.643466 -0.765475 79.9863 272.105)" stroke="#96D0F1" stroke-width="2"/>
<line y1="-1" x2="10.0208" y2="-1" transform="matrix(-0.643467 -0.765473 0.766615 -0.642107 101.631 272.73)" stroke="#96D0F1" stroke-width="2"/>
<line y1="-1" x2="10.0179" y2="-1" transform="matrix(-0.500674 -0.865636 0.866414 -0.499326 123.127 273.044)" stroke="#96D0F1" stroke-width="2"/>
<line y1="-1" x2="10.0155" y2="-1" transform="matrix(-0.342564 -0.939494 0.93989 -0.341477 144.51 273.356)" stroke="#96D0F1" stroke-width="2"/>
<line y1="-1" x2="10.0139" y2="-1" transform="matrix(-0.173952 -0.984754 0.984861 -0.173345 165.815 273.669)" stroke="#96D0F1" stroke-width="2"/>
<line x1="186.078" y1="273.669" x2="186.078" y2="263.656" stroke="#96D0F1" stroke-width="2"/>
<line y1="-1" x2="10.0139" y2="-1" transform="matrix(0.173952 -0.984754 0.984861 0.173345 208.342 273.669)" stroke="#96D0F1" stroke-width="2"/>
<line y1="-1" x2="10.0309" y2="-1" transform="matrix(-0.984861 -0.173348 0.173949 -0.984755 13.9209 269.601)" stroke="#96D0F1" stroke-width="2"/>
<line y1="-1" x2="10.0293" y2="-1" transform="matrix(-0.93989 -0.341476 0.342565 -0.939494 36.1536 270.54)" stroke="#96D0F1" stroke-width="2"/>
<line y1="-1" x2="10.0155" y2="-1" transform="matrix(0.342564 -0.939494 0.93989 0.341477 207.077 290.88)" stroke="#96D0F1" stroke-width="2"/>
<line y1="-1" x2="10.0179" y2="-1" transform="matrix(0.500674 -0.865636 0.866414 0.499326 228.457 290.567)" stroke="#96D0F1" stroke-width="2"/>
<line y1="-1" x2="10.0269" y2="-1" transform="matrix(-0.866415 -0.499324 0.500676 -0.865635 35.5967 288.689)" stroke="#96D0F1" stroke-width="2"/>
<line y1="-1" x2="10.024" y2="-1" transform="matrix(-0.766613 -0.642109 0.643466 -0.765475 57.4171 289.628)" stroke="#96D0F1" stroke-width="2"/>
<line y1="-1" x2="10.0209" y2="-1" transform="matrix(-0.643466 -0.765475 0.766613 -0.642109 79.0614 290.254)" stroke="#96D0F1" stroke-width="2"/>
<line y1="-1" x2="10.0179" y2="-1" transform="matrix(-0.500674 -0.865636 0.866414 -0.499326 100.558 290.567)" stroke="#96D0F1" stroke-width="2"/>
<line y1="-1" x2="10.0155" y2="-1" transform="matrix(-0.342564 -0.939494 0.93989 -0.341477 121.938 290.88)" stroke="#96D0F1" stroke-width="2"/>
<line y1="-1" x2="10.0139" y2="-1" transform="matrix(-0.173952 -0.984754 0.984861 -0.173345 143.242 291.193)" stroke="#96D0F1" stroke-width="2"/>
<line x1="163.506" y1="291.193" x2="163.506" y2="281.18" stroke="#96D0F1" stroke-width="2"/>
<line y1="-1" x2="10.0139" y2="-1" transform="matrix(0.173952 -0.984754 0.984861 0.173345 185.773 291.193)" stroke="#96D0F1" stroke-width="2"/>
<line y1="-1" x2="10.0293" y2="-1" transform="matrix(-0.93989 -0.341476 0.342565 -0.939494 13.5812 288.064)" stroke="#96D0F1" stroke-width="2"/>
<line y1="-1" x2="10.0155" y2="-1" transform="matrix(0.342564 -0.939494 0.93989 0.341477 184.505 308.404)" stroke="#96D0F1" stroke-width="2"/>
<line y1="-1" x2="10.0179" y2="-1" transform="matrix(0.500674 -0.865636 0.866414 0.499326 205.888 308.09)" stroke="#96D0F1" stroke-width="2"/>
<line y1="-1" x2="10.0209" y2="-1" transform="matrix(0.643466 -0.765474 0.766614 0.642109 227.385 307.777)" stroke="#96D0F1" stroke-width="2"/>
<line y1="-1" x2="10.0269" y2="-1" transform="matrix(-0.866414 -0.499326 0.500674 -0.865636 13.0275 306.213)" stroke="#96D0F1" stroke-width="2"/>
<line y1="-1" x2="10.024" y2="-1" transform="matrix(-0.766613 -0.642109 0.643466 -0.765475 34.8448 307.151)" stroke="#96D0F1" stroke-width="2"/>
<line y1="-1" x2="10.0209" y2="-1" transform="matrix(-0.643466 -0.765475 0.766613 -0.642109 56.4891 307.777)" stroke="#96D0F1" stroke-width="2"/>
<line y1="-1" x2="10.0179" y2="-1" transform="matrix(-0.500674 -0.865636 0.866414 -0.499326 77.9855 308.09)" stroke="#96D0F1" stroke-width="2"/>
<line y1="-1" x2="10.0155" y2="-1" transform="matrix(-0.342563 -0.939495 0.93989 -0.341477 99.3687 308.404)" stroke="#96D0F1" stroke-width="2"/>
<line y1="-1" x2="10.014" y2="-1" transform="matrix(-0.173951 -0.984754 0.984861 -0.173346 120.673 308.716)" stroke="#96D0F1" stroke-width="2"/>
<line x1="140.937" y1="308.716" x2="140.937" y2="298.703" stroke="#96D0F1" stroke-width="2"/>
<line y1="-1" x2="10.014" y2="-1" transform="matrix(0.173951 -0.984754 0.984861 0.173346 163.2 308.716)" stroke="#96D0F1" stroke-width="2"/>
<line y1="-1" x2="10.0155" y2="-1" transform="matrix(0.342564 -0.939494 0.93989 0.341477 161.936 325.927)" stroke="#96D0F1" stroke-width="2"/>
<line y1="-1" x2="10.0179" y2="-1" transform="matrix(0.500675 -0.865635 0.866415 0.499325 183.316 325.614)" stroke="#96D0F1" stroke-width="2"/>
<line y1="-1" x2="10.0209" y2="-1" transform="matrix(0.643466 -0.765474 0.766614 0.642109 204.812 325.301)" stroke="#96D0F1" stroke-width="2"/>
<line y1="-1" x2="10.024" y2="-1" transform="matrix(0.766613 -0.642109 0.643466 0.765475 226.457 324.675)" stroke="#96D0F1" stroke-width="2"/>
<line y1="-1" x2="10.024" y2="-1" transform="matrix(-0.766613 -0.642109 0.643466 -0.765475 12.2756 324.675)" stroke="#96D0F1" stroke-width="2"/>
<line y1="-1" x2="10.0209" y2="-1" transform="matrix(-0.643466 -0.765475 0.766613 -0.642109 33.9199 325.301)" stroke="#96D0F1" stroke-width="2"/>
<line y1="-1" x2="10.0179" y2="-1" transform="matrix(-0.500675 -0.865635 0.866415 -0.499325 55.4163 325.614)" stroke="#96D0F1" stroke-width="2"/>
<line y1="-1" x2="10.0155" y2="-1" transform="matrix(-0.342563 -0.939495 0.93989 -0.341477 76.7964 325.927)" stroke="#96D0F1" stroke-width="2"/>
<line y1="-1" x2="10.0139" y2="-1" transform="matrix(-0.173952 -0.984754 0.984861 -0.173345 98.1008 326.24)" stroke="#96D0F1" stroke-width="2"/>
<line x1="118.365" y1="326.24" x2="118.365" y2="316.226" stroke="#96D0F1" stroke-width="2"/>
<line y1="-1" x2="10.0139" y2="-1" transform="matrix(0.173952 -0.984754 0.984861 0.173345 140.631 326.24)" stroke="#96D0F1" stroke-width="2"/>
</svg>
