<svg width="52" height="64" viewBox="0 0 52 64" fill="none" xmlns="http://www.w3.org/2000/svg">
<path d="M31.8333 1.83105V14.5669C31.8333 16.2937 31.8333 17.1571 32.1694 17.8167C32.465 18.3969 32.9367 18.8685 33.5169 19.1642C34.1764 19.5002 35.0398 19.5002 36.7667 19.5002H49.5025M38 34.9167H13.3333M38 47.25H13.3333M19.5 22.5833H13.3333M31.8333 1H15.8C10.6195 1 8.02927 1 6.05059 2.00819C4.31009 2.89502 2.89502 4.31009 2.00819 6.05059C1 8.02927 1 10.6195 1 15.8V47.8667C1 53.0472 1 55.6374 2.00819 57.6161C2.89502 59.3566 4.31009 60.7717 6.05059 61.6585C8.02927 62.6667 10.6195 62.6667 15.8 62.6667H35.5333C40.7138 62.6667 43.3041 62.6667 45.2827 61.6585C47.0232 60.7717 48.4383 59.3566 49.3251 57.6161C50.3333 55.6374 50.3333 53.0472 50.3333 47.8667V19.5L31.8333 1Z" stroke="#188ACC" stroke-width="2" stroke-linecap="round" stroke-linejoin="round"/>
</svg>
