<svg width="52" height="64" viewBox="0 0 52 64" fill="none" xmlns="http://www.w3.org/2000/svg">
<path d="M29.0834 17.7487L19.8334 26.9987L32.1667 33.1653L22.9167 42.4153M50.6667 31.6237C50.6667 46.758 34.1587 57.7654 28.1522 61.2695C27.4696 61.6678 27.1282 61.8669 26.6466 61.9702C26.2727 62.0504 25.7273 62.0504 25.3535 61.9702C24.8718 61.8669 24.5305 61.6678 23.8479 61.2695C17.8414 57.7654 1.33337 46.758 1.33337 31.6237V16.8779C1.33337 14.4128 1.33337 13.1802 1.73655 12.1207C2.09272 11.1847 2.67149 10.3495 3.42282 9.68738C4.27332 8.93785 5.42742 8.50506 7.73562 7.63949L24.2678 1.43991C24.9088 1.19953 25.2293 1.07934 25.5591 1.0317C25.8515 0.989435 26.1485 0.989435 26.441 1.0317C26.7707 1.07934 27.0912 1.19953 27.7322 1.43991L44.2645 7.63949C46.5727 8.50506 47.7268 8.93785 48.5773 9.68738C49.3286 10.3495 49.9074 11.1847 50.2635 12.1207C50.6667 13.1802 50.6667 14.4128 50.6667 16.8779V31.6237Z" stroke="#188ACC" stroke-width="2" stroke-linecap="round" stroke-linejoin="round"/>
</svg>
