<svg width="59" height="59" viewBox="0 0 59 59" fill="none" xmlns="http://www.w3.org/2000/svg">
<path d="M41.75 17.7485V6.95889C41.75 4.39436 41.75 3.11209 41.2097 2.32408C40.7377 1.63559 40.0068 1.1679 39.1839 1.02787C38.242 0.867589 37.0778 1.40493 34.7493 2.47962L7.39859 15.103C5.32193 16.0615 4.28361 16.5407 3.52312 17.2839C2.8508 17.941 2.33761 18.7431 2.02277 19.6288C1.66663 20.6308 1.66663 21.7744 1.66663 24.0615V39.3319M43.2916 37.7902H43.3225M1.66663 27.6152L1.66663 47.9652C1.66663 51.4189 1.66663 53.1457 2.33875 54.4648C2.92997 55.6251 3.87335 56.5685 5.03368 57.1597C6.35281 57.8319 8.07963 57.8319 11.5333 57.8319H47.3C50.7536 57.8319 52.4804 57.8319 53.7996 57.1597C54.9599 56.5685 55.9033 55.6251 56.4945 54.4648C57.1666 53.1457 57.1666 51.4189 57.1666 47.9652V27.6152C57.1666 24.1615 57.1666 22.4347 56.4945 21.1156C55.9033 19.9553 54.9599 19.0119 53.7996 18.4207C52.4804 17.7485 50.7536 17.7485 47.3 17.7485L11.5333 17.7485C8.07964 17.7485 6.35281 17.7485 5.03369 18.4207C3.87335 19.0119 2.92997 19.9553 2.33875 21.1156C1.66663 22.4347 1.66663 24.1615 1.66663 27.6152ZM44.8333 37.7902C44.8333 38.6416 44.1431 39.3319 43.2916 39.3319C42.4402 39.3319 41.75 38.6416 41.75 37.7902C41.75 36.9388 42.4402 36.2485 43.2916 36.2485C44.1431 36.2485 44.8333 36.9388 44.8333 37.7902Z" stroke="#188ACC" stroke-width="2" stroke-linecap="round" stroke-linejoin="round"/>
</svg>
